{"glyphs":{"0":{"ha":833,"x_min":7,"x_max":688,"o":"m 346 965 l 346 965 q 303 947 321 965 q 285 904 285 929 l 285 901 q 303 858 285 876 q 346 840 321 840 l 349 840 q 392 858 374 840 q 410 901 410 876 l 410 904 q 392 947 410 929 q 349 965 374 965 l 346 965 m 207 826 l 207 826 q 164 808 182 826 q 146 765 146 790 l 146 763 q 164 719 146 738 q 207 701 182 701 l 210 701 q 253 719 235 701 q 271 763 271 738 l 271 765 q 253 808 271 790 q 210 826 235 826 l 207 826 m 485 826 l 485 826 q 442 808 460 826 q 424 765 424 790 l 424 763 q 442 719 424 738 q 485 701 460 701 l 488 701 q 531 719 513 701 q 549 763 549 738 l 549 765 q 531 808 549 790 q 488 826 513 826 l 485 826 m 68 688 l 68 688 q 25 669 43 688 q 7 626 7 651 l 7 624 q 25 581 7 599 q 68 563 43 563 l 71 563 q 114 581 96 563 q 132 624 132 599 l 132 626 q 114 669 132 651 q 71 688 96 688 l 68 688 m 624 688 l 624 688 q 581 669 599 688 q 563 626 563 651 l 563 624 q 581 581 563 599 q 624 563 599 563 l 626 563 q 669 581 651 563 q 688 624 688 599 l 688 626 q 669 669 688 651 q 626 688 651 688 l 624 688 m 68 549 l 68 549 q 25 531 43 549 q 7 488 7 513 l 7 485 q 25 442 7 460 q 68 424 43 424 l 71 424 q 114 442 96 424 q 132 485 132 460 l 132 488 q 114 531 132 513 q 71 549 96 549 l 68 549 m 624 549 l 624 549 q 581 531 599 549 q 563 488 563 513 l 563 485 q 581 442 563 460 q 624 424 599 424 l 626 424 q 669 442 651 424 q 688 485 688 460 l 688 488 q 669 531 688 513 q 626 549 651 549 l 624 549 m 68 410 l 68 410 q 25 392 43 410 q 7 349 7 374 l 7 346 q 25 303 7 321 q 68 285 43 285 l 71 285 q 114 303 96 285 q 132 346 132 321 l 132 349 q 114 392 132 374 q 71 410 96 410 l 68 410 m 624 410 l 624 410 q 581 392 599 410 q 563 349 563 374 l 563 346 q 581 303 563 321 q 624 285 599 285 l 626 285 q 669 303 651 285 q 688 346 688 321 l 688 349 q 669 392 688 374 q 626 410 651 410 l 624 410 m 207 271 l 207 271 q 164 253 182 271 q 146 210 146 235 l 146 207 q 164 164 146 182 q 207 146 182 146 l 210 146 q 253 164 235 146 q 271 207 271 182 l 271 210 q 253 253 271 235 q 210 271 235 271 l 207 271 m 485 271 l 485 271 q 442 253 460 271 q 424 210 424 235 l 424 207 q 442 164 424 182 q 485 146 460 146 l 488 146 q 531 164 513 146 q 549 207 549 182 l 549 210 q 531 253 549 235 q 488 271 513 271 l 485 271 m 346 132 l 346 132 q 303 114 321 132 q 285 71 285 96 l 285 68 q 303 25 285 43 q 346 7 321 7 l 349 7 q 392 25 374 7 q 410 68 410 43 l 410 71 q 392 114 410 96 q 349 132 374 132 l 346 132 z "},"1":{"ha":833,"x_min":7,"x_max":688,"o":"m 346 965 l 346 965 q 303 947 321 965 q 285 904 285 929 l 285 901 q 303 858 285 876 q 346 840 321 840 l 349 840 q 392 858 374 840 q 410 901 410 876 l 410 904 q 392 947 410 929 q 349 965 374 965 l 346 965 m 207 826 l 207 826 q 164 808 182 826 q 146 765 146 790 l 146 763 q 164 719 146 738 q 207 701 182 701 l 210 701 q 253 719 235 701 q 271 763 271 738 l 271 765 q 253 808 271 790 q 210 826 235 826 l 207 826 m 346 826 l 346 826 q 303 808 321 826 q 285 765 285 790 l 285 763 q 303 719 285 738 q 346 701 321 701 l 349 701 q 392 719 374 701 q 410 763 410 738 l 410 765 q 392 808 410 790 q 349 826 374 826 l 346 826 m 68 688 l 68 688 q 25 669 43 688 q 7 626 7 651 l 7 624 q 25 581 7 599 q 68 563 43 563 l 71 563 q 114 581 96 563 q 132 624 132 599 l 132 626 q 114 669 132 651 q 71 688 96 688 l 68 688 m 346 688 l 346 688 q 303 669 321 688 q 285 626 285 651 l 285 624 q 303 581 285 599 q 346 563 321 563 l 349 563 q 392 581 374 563 q 410 624 410 599 l 410 626 q 392 669 410 651 q 349 688 374 688 l 346 688 m 346 549 l 346 549 q 303 531 321 549 q 285 488 285 513 l 285 485 q 303 442 285 460 q 346 424 321 424 l 349 424 q 392 442 374 424 q 410 485 410 460 l 410 488 q 392 531 410 513 q 349 549 374 549 l 346 549 m 346 410 l 346 410 q 303 392 321 410 q 285 349 285 374 l 285 346 q 303 303 285 321 q 346 285 321 285 l 349 285 q 392 303 374 285 q 410 346 410 321 l 410 349 q 392 392 410 374 q 349 410 374 410 l 346 410 m 346 271 l 346 271 q 303 253 321 271 q 285 210 285 235 l 285 207 q 303 164 285 182 q 346 146 321 146 l 349 146 q 392 164 374 146 q 410 207 410 182 l 410 210 q 392 253 410 235 q 349 271 374 271 l 346 271 m 68 132 l 68 132 q 25 114 43 132 q 7 71 7 96 l 7 68 q 25 25 7 43 q 68 7 43 7 l 71 7 q 114 25 96 7 q 132 68 132 43 l 132 71 q 114 114 132 96 q 71 132 96 132 l 68 132 m 207 132 l 207 132 q 164 114 182 132 q 146 71 146 96 l 146 68 q 164 25 146 43 q 207 7 182 7 l 210 7 q 253 25 235 7 q 271 68 271 43 l 271 71 q 253 114 271 96 q 210 132 235 132 l 207 132 m 346 132 l 346 132 q 303 114 321 132 q 285 71 285 96 l 285 68 q 303 25 285 43 q 346 7 321 7 l 349 7 q 392 25 374 7 q 410 68 410 43 l 410 71 q 392 114 410 96 q 349 132 374 132 l 346 132 m 485 132 l 485 132 q 442 114 460 132 q 424 71 424 96 l 424 68 q 442 25 424 43 q 485 7 460 7 l 488 7 q 531 25 513 7 q 549 68 549 43 l 549 71 q 531 114 549 96 q 488 132 513 132 l 485 132 m 624 132 l 624 132 q 581 114 599 132 q 563 71 563 96 l 563 68 q 581 25 563 43 q 624 7 599 7 l 626 7 q 669 25 651 7 q 688 68 688 43 l 688 71 q 669 114 688 96 q 626 132 651 132 l 624 132 z "},"2":{"ha":833,"x_min":7,"x_max":688,"o":"m 207 965 l 207 965 q 164 947 182 965 q 146 904 146 929 l 146 901 q 164 858 146 876 q 207 840 182 840 l 210 840 q 253 858 235 840 q 271 901 271 876 l 271 904 q 253 947 271 929 q 210 965 235 965 l 207 965 m 346 965 l 346 965 q 303 947 321 965 q 285 904 285 929 l 285 901 q 303 858 285 876 q 346 840 321 840 l 349 840 q 392 858 374 840 q 410 901 410 876 l 410 904 q 392 947 410 929 q 349 965 374 965 l 346 965 m 485 965 l 485 965 q 442 947 460 965 q 424 904 424 929 l 424 901 q 442 858 424 876 q 485 840 460 840 l 488 840 q 531 858 513 840 q 549 901 549 876 l 549 904 q 531 947 549 929 q 488 965 513 965 l 485 965 m 68 826 l 68 826 q 25 808 43 826 q 7 765 7 790 l 7 763 q 25 719 7 738 q 68 701 43 701 l 71 701 q 114 719 96 701 q 132 763 132 738 l 132 765 q 114 808 132 790 q 71 826 96 826 l 68 826 m 624 826 l 624 826 q 581 808 599 826 q 563 765 563 790 l 563 763 q 581 719 563 738 q 624 701 599 701 l 626 701 q 669 719 651 701 q 688 763 688 738 l 688 765 q 669 808 688 790 q 626 826 651 826 l 624 826 m 624 688 l 624 688 q 581 669 599 688 q 563 626 563 651 l 563 624 q 581 581 563 599 q 624 563 599 563 l 626 563 q 669 581 651 563 q 688 624 688 599 l 688 626 q 669 669 688 651 q 626 688 651 688 l 624 688 m 346 549 l 346 549 q 303 531 321 549 q 285 488 285 513 l 285 485 q 303 442 285 460 q 346 424 321 424 l 349 424 q 392 442 374 424 q 410 485 410 460 l 410 488 q 392 531 410 513 q 349 549 374 549 l 346 549 m 485 549 l 485 549 q 442 531 460 549 q 424 488 424 513 l 424 485 q 442 442 424 460 q 485 424 460 424 l 488 424 q 531 442 513 424 q 549 485 549 460 l 549 488 q 531 531 549 513 q 488 549 513 549 l 485 549 m 207 410 l 207 410 q 164 392 182 410 q 146 349 146 374 l 146 346 q 164 303 146 321 q 207 285 182 285 l 210 285 q 253 303 235 285 q 271 346 271 321 l 271 349 q 253 392 271 374 q 210 410 235 410 l 207 410 m 68 271 l 68 271 q 25 253 43 271 q 7 210 7 235 l 7 207 q 25 164 7 182 q 68 146 43 146 l 71 146 q 114 164 96 146 q 132 207 132 182 l 132 210 q 114 253 132 235 q 71 271 96 271 l 68 271 m 68 132 l 68 132 q 25 114 43 132 q 7 71 7 96 l 7 68 q 25 25 7 43 q 68 7 43 7 l 71 7 q 114 25 96 7 q 132 68 132 43 l 132 71 q 114 114 132 96 q 71 132 96 132 l 68 132 m 207 132 l 207 132 q 164 114 182 132 q 146 71 146 96 l 146 68 q 164 25 146 43 q 207 7 182 7 l 210 7 q 253 25 235 7 q 271 68 271 43 l 271 71 q 253 114 271 96 q 210 132 235 132 l 207 132 m 346 132 l 346 132 q 303 114 321 132 q 285 71 285 96 l 285 68 q 303 25 285 43 q 346 7 321 7 l 349 7 q 392 25 374 7 q 410 68 410 43 l 410 71 q 392 114 410 96 q 349 132 374 132 l 346 132 m 485 132 l 485 132 q 442 114 460 132 q 424 71 424 96 l 424 68 q 442 25 424 43 q 485 7 460 7 l 488 7 q 531 25 513 7 q 549 68 549 43 l 549 71 q 531 114 549 96 q 488 132 513 132 l 485 132 m 624 132 l 624 132 q 581 114 599 132 q 563 71 563 96 l 563 68 q 581 25 563 43 q 624 7 599 7 l 626 7 q 669 25 651 7 q 688 68 688 43 l 688 71 q 669 114 688 96 q 626 132 651 132 l 624 132 z "},"3":{"ha":833,"x_min":7,"x_max":688,"o":"m 68 965 l 68 965 q 25 947 43 965 q 7 904 7 929 l 7 901 q 25 858 7 876 q 68 840 43 840 l 71 840 q 114 858 96 840 q 132 901 132 876 l 132 904 q 114 947 132 929 q 71 965 96 965 l 68 965 m 207 965 l 207 965 q 164 947 182 965 q 146 904 146 929 l 146 901 q 164 858 146 876 q 207 840 182 840 l 210 840 q 253 858 235 840 q 271 901 271 876 l 271 904 q 253 947 271 929 q 210 965 235 965 l 207 965 m 346 965 l 346 965 q 303 947 321 965 q 285 904 285 929 l 285 901 q 303 858 285 876 q 346 840 321 840 l 349 840 q 392 858 374 840 q 410 901 410 876 l 410 904 q 392 947 410 929 q 349 965 374 965 l 346 965 m 485 965 l 485 965 q 442 947 460 965 q 424 904 424 929 l 424 901 q 442 858 424 876 q 485 840 460 840 l 488 840 q 531 858 513 840 q 549 901 549 876 l 549 904 q 531 947 549 929 q 488 965 513 965 l 485 965 m 624 965 l 624 965 q 581 947 599 965 q 563 904 563 929 l 563 901 q 581 858 563 876 q 624 840 599 840 l 626 840 q 669 858 651 840 q 688 901 688 876 l 688 904 q 669 947 688 929 q 626 965 651 965 l 624 965 m 624 826 l 624 826 q 581 808 599 826 q 563 765 563 790 l 563 763 q 581 719 563 738 q 624 701 599 701 l 626 701 q 669 719 651 701 q 688 763 688 738 l 688 765 q 669 808 688 790 q 626 826 651 826 l 624 826 m 485 688 l 485 688 q 442 669 460 688 q 424 626 424 651 l 424 624 q 442 581 424 599 q 485 563 460 563 l 488 563 q 531 581 513 563 q 549 624 549 599 l 549 626 q 531 669 549 651 q 488 688 513 688 l 485 688 m 346 549 l 346 549 q 303 531 321 549 q 285 488 285 513 l 285 485 q 303 442 285 460 q 346 424 321 424 l 349 424 q 392 442 374 424 q 410 485 410 460 l 410 488 q 392 531 410 513 q 349 549 374 549 l 346 549 m 485 549 l 485 549 q 442 531 460 549 q 424 488 424 513 l 424 485 q 442 442 424 460 q 485 424 460 424 l 488 424 q 531 442 513 424 q 549 485 549 460 l 549 488 q 531 531 549 513 q 488 549 513 549 l 485 549 m 624 410 l 624 410 q 581 392 599 410 q 563 349 563 374 l 563 346 q 581 303 563 321 q 624 285 599 285 l 626 285 q 669 303 651 285 q 688 346 688 321 l 688 349 q 669 392 688 374 q 626 410 651 410 l 624 410 m 68 271 l 68 271 q 25 253 43 271 q 7 210 7 235 l 7 207 q 25 164 7 182 q 68 146 43 146 l 71 146 q 114 164 96 146 q 132 207 132 182 l 132 210 q 114 253 132 235 q 71 271 96 271 l 68 271 m 624 271 l 624 271 q 581 253 599 271 q 563 210 563 235 l 563 207 q 581 164 563 182 q 624 146 599 146 l 626 146 q 669 164 651 146 q 688 207 688 182 l 688 210 q 669 253 688 235 q 626 271 651 271 l 624 271 m 207 132 l 207 132 q 164 114 182 132 q 146 71 146 96 l 146 68 q 164 25 146 43 q 207 7 182 7 l 210 7 q 253 25 235 7 q 271 68 271 43 l 271 71 q 253 114 271 96 q 210 132 235 132 l 207 132 m 346 132 l 346 132 q 303 114 321 132 q 285 71 285 96 l 285 68 q 303 25 285 43 q 346 7 321 7 l 349 7 q 392 25 374 7 q 410 68 410 43 l 410 71 q 392 114 410 96 q 349 132 374 132 l 346 132 m 485 132 l 485 132 q 442 114 460 132 q 424 71 424 96 l 424 68 q 442 25 424 43 q 485 7 460 7 l 488 7 q 531 25 513 7 q 549 68 549 43 l 549 71 q 531 114 549 96 q 488 132 513 132 l 485 132 z "},"4":{"ha":833,"x_min":7,"x_max":688,"o":"m 485 965 l 485 965 q 442 947 460 965 q 424 904 424 929 l 424 901 q 442 858 424 876 q 485 840 460 840 l 488 840 q 531 858 513 840 q 549 901 549 876 l 549 904 q 531 947 549 929 q 488 965 513 965 l 485 965 m 346 826 l 346 826 q 303 808 321 826 q 285 765 285 790 l 285 763 q 303 719 285 738 q 346 701 321 701 l 349 701 q 392 719 374 701 q 410 763 410 738 l 410 765 q 392 808 410 790 q 349 826 374 826 l 346 826 m 485 826 l 485 826 q 442 808 460 826 q 424 765 424 790 l 424 763 q 442 719 424 738 q 485 701 460 701 l 488 701 q 531 719 513 701 q 549 763 549 738 l 549 765 q 531 808 549 790 q 488 826 513 826 l 485 826 m 207 688 l 207 688 q 164 669 182 688 q 146 626 146 651 l 146 624 q 164 581 146 599 q 207 563 182 563 l 210 563 q 253 581 235 563 q 271 624 271 599 l 271 626 q 253 669 271 651 q 210 688 235 688 l 207 688 m 485 688 l 485 688 q 442 669 460 688 q 424 626 424 651 l 424 624 q 442 581 424 599 q 485 563 460 563 l 488 563 q 531 581 513 563 q 549 624 549 599 l 549 626 q 531 669 549 651 q 488 688 513 688 l 485 688 m 68 549 l 68 549 q 25 531 43 549 q 7 488 7 513 l 7 485 q 25 442 7 460 q 68 424 43 424 l 71 424 q 114 442 96 424 q 132 485 132 460 l 132 488 q 114 531 132 513 q 71 549 96 549 l 68 549 m 485 549 l 485 549 q 442 531 460 549 q 424 488 424 513 l 424 485 q 442 442 424 460 q 485 424 460 424 l 488 424 q 531 442 513 424 q 549 485 549 460 l 549 488 q 531 531 549 513 q 488 549 513 549 l 485 549 m 68 410 l 68 410 q 25 392 43 410 q 7 349 7 374 l 7 346 q 25 303 7 321 q 68 285 43 285 l 71 285 q 114 303 96 285 q 132 346 132 321 l 132 349 q 114 392 132 374 q 71 410 96 410 l 68 410 m 207 410 l 207 410 q 164 392 182 410 q 146 349 146 374 l 146 346 q 164 303 146 321 q 207 285 182 285 l 210 285 q 253 303 235 285 q 271 346 271 321 l 271 349 q 253 392 271 374 q 210 410 235 410 l 207 410 m 346 410 l 346 410 q 303 392 321 410 q 285 349 285 374 l 285 346 q 303 303 285 321 q 346 285 321 285 l 349 285 q 392 303 374 285 q 410 346 410 321 l 410 349 q 392 392 410 374 q 349 410 374 410 l 346 410 m 485 410 l 485 410 q 442 392 460 410 q 424 349 424 374 l 424 346 q 442 303 424 321 q 485 285 460 285 l 488 285 q 531 303 513 285 q 549 346 549 321 l 549 349 q 531 392 549 374 q 488 410 513 410 l 485 410 m 624 410 l 624 410 q 581 392 599 410 q 563 349 563 374 l 563 346 q 581 303 563 321 q 624 285 599 285 l 626 285 q 669 303 651 285 q 688 346 688 321 l 688 349 q 669 392 688 374 q 626 410 651 410 l 624 410 m 485 271 l 485 271 q 442 253 460 271 q 424 210 424 235 l 424 207 q 442 164 424 182 q 485 146 460 146 l 488 146 q 531 164 513 146 q 549 207 549 182 l 549 210 q 531 253 549 235 q 488 271 513 271 l 485 271 m 485 132 l 485 132 q 442 114 460 132 q 424 71 424 96 l 424 68 q 442 25 424 43 q 485 7 460 7 l 488 7 q 531 25 513 7 q 549 68 549 43 l 549 71 q 531 114 549 96 q 488 132 513 132 l 485 132 z "},"5":{"ha":833,"x_min":7,"x_max":688,"o":"m 68 965 l 68 965 q 25 947 43 965 q 7 904 7 929 l 7 901 q 25 858 7 876 q 68 840 43 840 l 71 840 q 114 858 96 840 q 132 901 132 876 l 132 904 q 114 947 132 929 q 71 965 96 965 l 68 965 m 207 965 l 207 965 q 164 947 182 965 q 146 904 146 929 l 146 901 q 164 858 146 876 q 207 840 182 840 l 210 840 q 253 858 235 840 q 271 901 271 876 l 271 904 q 253 947 271 929 q 210 965 235 965 l 207 965 m 346 965 l 346 965 q 303 947 321 965 q 285 904 285 929 l 285 901 q 303 858 285 876 q 346 840 321 840 l 349 840 q 392 858 374 840 q 410 901 410 876 l 410 904 q 392 947 410 929 q 349 965 374 965 l 346 965 m 485 965 l 485 965 q 442 947 460 965 q 424 904 424 929 l 424 901 q 442 858 424 876 q 485 840 460 840 l 488 840 q 531 858 513 840 q 549 901 549 876 l 549 904 q 531 947 549 929 q 488 965 513 965 l 485 965 m 624 965 l 624 965 q 581 947 599 965 q 563 904 563 929 l 563 901 q 581 858 563 876 q 624 840 599 840 l 626 840 q 669 858 651 840 q 688 901 688 876 l 688 904 q 669 947 688 929 q 626 965 651 965 l 624 965 m 68 826 l 68 826 q 25 808 43 826 q 7 765 7 790 l 7 763 q 25 719 7 738 q 68 701 43 701 l 71 701 q 114 719 96 701 q 132 763 132 738 l 132 765 q 114 808 132 790 q 71 826 96 826 l 68 826 m 68 688 l 68 688 q 25 669 43 688 q 7 626 7 651 l 7 624 q 25 581 7 599 q 68 563 43 563 l 71 563 q 114 581 96 563 q 132 624 132 599 l 132 626 q 114 669 132 651 q 71 688 96 688 l 68 688 m 346 688 l 346 688 q 303 669 321 688 q 285 626 285 651 l 285 624 q 303 581 285 599 q 346 563 321 563 l 349 563 q 392 581 374 563 q 410 624 410 599 l 410 626 q 392 669 410 651 q 349 688 374 688 l 346 688 m 485 688 l 485 688 q 442 669 460 688 q 424 626 424 651 l 424 624 q 442 581 424 599 q 485 563 460 563 l 488 563 q 531 581 513 563 q 549 624 549 599 l 549 626 q 531 669 549 651 q 488 688 513 688 l 485 688 m 68 549 l 68 549 q 25 531 43 549 q 7 488 7 513 l 7 485 q 25 442 7 460 q 68 424 43 424 l 71 424 q 114 442 96 424 q 132 485 132 460 l 132 488 q 114 531 132 513 q 71 549 96 549 l 68 549 m 207 549 l 207 549 q 164 531 182 549 q 146 488 146 513 l 146 485 q 164 442 146 460 q 207 424 182 424 l 210 424 q 253 442 235 424 q 271 485 271 460 l 271 488 q 253 531 271 513 q 210 549 235 549 l 207 549 m 624 549 l 624 549 q 581 531 599 549 q 563 488 563 513 l 563 485 q 581 442 563 460 q 624 424 599 424 l 626 424 q 669 442 651 424 q 688 485 688 460 l 688 488 q 669 531 688 513 q 626 549 651 549 l 624 549 m 624 410 l 624 410 q 581 392 599 410 q 563 349 563 374 l 563 346 q 581 303 563 321 q 624 285 599 285 l 626 285 q 669 303 651 285 q 688 346 688 321 l 688 349 q 669 392 688 374 q 626 410 651 410 l 624 410 m 68 271 l 68 271 q 25 253 43 271 q 7 210 7 235 l 7 207 q 25 164 7 182 q 68 146 43 146 l 71 146 q 114 164 96 146 q 132 207 132 182 l 132 210 q 114 253 132 235 q 71 271 96 271 l 68 271 m 624 271 l 624 271 q 581 253 599 271 q 563 210 563 235 l 563 207 q 581 164 563 182 q 624 146 599 146 l 626 146 q 669 164 651 146 q 688 207 688 182 l 688 210 q 669 253 688 235 q 626 271 651 271 l 624 271 m 207 132 l 207 132 q 164 114 182 132 q 146 71 146 96 l 146 68 q 164 25 146 43 q 207 7 182 7 l 210 7 q 253 25 235 7 q 271 68 271 43 l 271 71 q 253 114 271 96 q 210 132 235 132 l 207 132 m 346 132 l 346 132 q 303 114 321 132 q 285 71 285 96 l 285 68 q 303 25 285 43 q 346 7 321 7 l 349 7 q 392 25 374 7 q 410 68 410 43 l 410 71 q 392 114 410 96 q 349 132 374 132 l 346 132 m 485 132 l 485 132 q 442 114 460 132 q 424 71 424 96 l 424 68 q 442 25 424 43 q 485 7 460 7 l 488 7 q 531 25 513 7 q 549 68 549 43 l 549 71 q 531 114 549 96 q 488 132 513 132 l 485 132 z "},"6":{"ha":833,"x_min":7,"x_max":688,"o":"m 346 965 l 346 965 q 303 947 321 965 q 285 904 285 929 l 285 901 q 303 858 285 876 q 346 840 321 840 l 349 840 q 392 858 374 840 q 410 901 410 876 l 410 904 q 392 947 410 929 q 349 965 374 965 l 346 965 m 485 965 l 485 965 q 442 947 460 965 q 424 904 424 929 l 424 901 q 442 858 424 876 q 485 840 460 840 l 488 840 q 531 858 513 840 q 549 901 549 876 l 549 904 q 531 947 549 929 q 488 965 513 965 l 485 965 m 207 826 l 207 826 q 164 808 182 826 q 146 765 146 790 l 146 763 q 164 719 146 738 q 207 701 182 701 l 210 701 q 253 719 235 701 q 271 763 271 738 l 271 765 q 253 808 271 790 q 210 826 235 826 l 207 826 m 68 688 l 68 688 q 25 669 43 688 q 7 626 7 651 l 7 624 q 25 581 7 599 q 68 563 43 563 l 71 563 q 114 581 96 563 q 132 624 132 599 l 132 626 q 114 669 132 651 q 71 688 96 688 l 68 688 m 68 549 l 68 549 q 25 531 43 549 q 7 488 7 513 l 7 485 q 25 442 7 460 q 68 424 43 424 l 71 424 q 114 442 96 424 q 132 485 132 460 l 132 488 q 114 531 132 513 q 71 549 96 549 l 68 549 m 346 549 l 346 549 q 303 531 321 549 q 285 488 285 513 l 285 485 q 303 442 285 460 q 346 424 321 424 l 349 424 q 392 442 374 424 q 410 485 410 460 l 410 488 q 392 531 410 513 q 349 549 374 549 l 346 549 m 485 549 l 485 549 q 442 531 460 549 q 424 488 424 513 l 424 485 q 442 442 424 460 q 485 424 460 424 l 488 424 q 531 442 513 424 q 549 485 549 460 l 549 488 q 531 531 549 513 q 488 549 513 549 l 485 549 m 68 410 l 68 410 q 25 392 43 410 q 7 349 7 374 l 7 346 q 25 303 7 321 q 68 285 43 285 l 71 285 q 114 303 96 285 q 132 346 132 321 l 132 349 q 114 392 132 374 q 71 410 96 410 l 68 410 m 207 410 l 207 410 q 164 392 182 410 q 146 349 146 374 l 146 346 q 164 303 146 321 q 207 285 182 285 l 210 285 q 253 303 235 285 q 271 346 271 321 l 271 349 q 253 392 271 374 q 210 410 235 410 l 207 410 m 624 410 l 624 410 q 581 392 599 410 q 563 349 563 374 l 563 346 q 581 303 563 321 q 624 285 599 285 l 626 285 q 669 303 651 285 q 688 346 688 321 l 688 349 q 669 392 688 374 q 626 410 651 410 l 624 410 m 68 271 l 68 271 q 25 253 43 271 q 7 210 7 235 l 7 207 q 25 164 7 182 q 68 146 43 146 l 71 146 q 114 164 96 146 q 132 207 132 182 l 132 210 q 114 253 132 235 q 71 271 96 271 l 68 271 m 624 271 l 624 271 q 581 253 599 271 q 563 210 563 235 l 563 207 q 581 164 563 182 q 624 146 599 146 l 626 146 q 669 164 651 146 q 688 207 688 182 l 688 210 q 669 253 688 235 q 626 271 651 271 l 624 271 m 207 132 l 207 132 q 164 114 182 132 q 146 71 146 96 l 146 68 q 164 25 146 43 q 207 7 182 7 l 210 7 q 253 25 235 7 q 271 68 271 43 l 271 71 q 253 114 271 96 q 210 132 235 132 l 207 132 m 346 132 l 346 132 q 303 114 321 132 q 285 71 285 96 l 285 68 q 303 25 285 43 q 346 7 321 7 l 349 7 q 392 25 374 7 q 410 68 410 43 l 410 71 q 392 114 410 96 q 349 132 374 132 l 346 132 m 485 132 l 485 132 q 442 114 460 132 q 424 71 424 96 l 424 68 q 442 25 424 43 q 485 7 460 7 l 488 7 q 531 25 513 7 q 549 68 549 43 l 549 71 q 531 114 549 96 q 488 132 513 132 l 485 132 z "},"7":{"ha":833,"x_min":7,"x_max":688,"o":"m 68 965 l 68 965 q 25 947 43 965 q 7 904 7 929 l 7 901 q 25 858 7 876 q 68 840 43 840 l 71 840 q 114 858 96 840 q 132 901 132 876 l 132 904 q 114 947 132 929 q 71 965 96 965 l 68 965 m 207 965 l 207 965 q 164 947 182 965 q 146 904 146 929 l 146 901 q 164 858 146 876 q 207 840 182 840 l 210 840 q 253 858 235 840 q 271 901 271 876 l 271 904 q 253 947 271 929 q 210 965 235 965 l 207 965 m 346 965 l 346 965 q 303 947 321 965 q 285 904 285 929 l 285 901 q 303 858 285 876 q 346 840 321 840 l 349 840 q 392 858 374 840 q 410 901 410 876 l 410 904 q 392 947 410 929 q 349 965 374 965 l 346 965 m 485 965 l 485 965 q 442 947 460 965 q 424 904 424 929 l 424 901 q 442 858 424 876 q 485 840 460 840 l 488 840 q 531 858 513 840 q 549 901 549 876 l 549 904 q 531 947 549 929 q 488 965 513 965 l 485 965 m 624 965 l 624 965 q 581 947 599 965 q 563 904 563 929 l 563 901 q 581 858 563 876 q 624 840 599 840 l 626 840 q 669 858 651 840 q 688 901 688 876 l 688 904 q 669 947 688 929 q 626 965 651 965 l 624 965 m 624 826 l 624 826 q 581 808 599 826 q 563 765 563 790 l 563 763 q 581 719 563 738 q 624 701 599 701 l 626 701 q 669 719 651 701 q 688 763 688 738 l 688 765 q 669 808 688 790 q 626 826 651 826 l 624 826 m 485 688 l 485 688 q 442 669 460 688 q 424 626 424 651 l 424 624 q 442 581 424 599 q 485 563 460 563 l 488 563 q 531 581 513 563 q 549 624 549 599 l 549 626 q 531 669 549 651 q 488 688 513 688 l 485 688 m 485 549 l 485 549 q 442 531 460 549 q 424 488 424 513 l 424 485 q 442 442 424 460 q 485 424 460 424 l 488 424 q 531 442 513 424 q 549 485 549 460 l 549 488 q 531 531 549 513 q 488 549 513 549 l 485 549 m 346 410 l 346 410 q 303 392 321 410 q 285 349 285 374 l 285 346 q 303 303 285 321 q 346 285 321 285 l 349 285 q 392 303 374 285 q 410 346 410 321 l 410 349 q 392 392 410 374 q 349 410 374 410 l 346 410 m 207 271 l 207 271 q 164 253 182 271 q 146 210 146 235 l 146 207 q 164 164 146 182 q 207 146 182 146 l 210 146 q 253 164 235 146 q 271 207 271 182 l 271 210 q 253 253 271 235 q 210 271 235 271 l 207 271 m 207 132 l 207 132 q 164 114 182 132 q 146 71 146 96 l 146 68 q 164 25 146 43 q 207 7 182 7 l 210 7 q 253 25 235 7 q 271 68 271 43 l 271 71 q 253 114 271 96 q 210 132 235 132 l 207 132 z "},"8":{"ha":833,"x_min":7,"x_max":688,"o":"m 207 965 l 207 965 q 164 947 182 965 q 146 904 146 929 l 146 901 q 164 858 146 876 q 207 840 182 840 l 210 840 q 253 858 235 840 q 271 901 271 876 l 271 904 q 253 947 271 929 q 210 965 235 965 l 207 965 m 346 965 l 346 965 q 303 947 321 965 q 285 904 285 929 l 285 901 q 303 858 285 876 q 346 840 321 840 l 349 840 q 392 858 374 840 q 410 901 410 876 l 410 904 q 392 947 410 929 q 349 965 374 965 l 346 965 m 485 965 l 485 965 q 442 947 460 965 q 424 904 424 929 l 424 901 q 442 858 424 876 q 485 840 460 840 l 488 840 q 531 858 513 840 q 549 901 549 876 l 549 904 q 531 947 549 929 q 488 965 513 965 l 485 965 m 68 826 l 68 826 q 25 808 43 826 q 7 765 7 790 l 7 763 q 25 719 7 738 q 68 701 43 701 l 71 701 q 114 719 96 701 q 132 763 132 738 l 132 765 q 114 808 132 790 q 71 826 96 826 l 68 826 m 624 826 l 624 826 q 581 808 599 826 q 563 765 563 790 l 563 763 q 581 719 563 738 q 624 701 599 701 l 626 701 q 669 719 651 701 q 688 763 688 738 l 688 765 q 669 808 688 790 q 626 826 651 826 l 624 826 m 68 688 l 68 688 q 25 669 43 688 q 7 626 7 651 l 7 624 q 25 581 7 599 q 68 563 43 563 l 71 563 q 114 581 96 563 q 132 624 132 599 l 132 626 q 114 669 132 651 q 71 688 96 688 l 68 688 m 624 688 l 624 688 q 581 669 599 688 q 563 626 563 651 l 563 624 q 581 581 563 599 q 624 563 599 563 l 626 563 q 669 581 651 563 q 688 624 688 599 l 688 626 q 669 669 688 651 q 626 688 651 688 l 624 688 m 207 549 l 207 549 q 164 531 182 549 q 146 488 146 513 l 146 485 q 164 442 146 460 q 207 424 182 424 l 210 424 q 253 442 235 424 q 271 485 271 460 l 271 488 q 253 531 271 513 q 210 549 235 549 l 207 549 m 346 549 l 346 549 q 303 531 321 549 q 285 488 285 513 l 285 485 q 303 442 285 460 q 346 424 321 424 l 349 424 q 392 442 374 424 q 410 485 410 460 l 410 488 q 392 531 410 513 q 349 549 374 549 l 346 549 m 485 549 l 485 549 q 442 531 460 549 q 424 488 424 513 l 424 485 q 442 442 424 460 q 485 424 460 424 l 488 424 q 531 442 513 424 q 549 485 549 460 l 549 488 q 531 531 549 513 q 488 549 513 549 l 485 549 m 68 410 l 68 410 q 25 392 43 410 q 7 349 7 374 l 7 346 q 25 303 7 321 q 68 285 43 285 l 71 285 q 114 303 96 285 q 132 346 132 321 l 132 349 q 114 392 132 374 q 71 410 96 410 l 68 410 m 624 410 l 624 410 q 581 392 599 410 q 563 349 563 374 l 563 346 q 581 303 563 321 q 624 285 599 285 l 626 285 q 669 303 651 285 q 688 346 688 321 l 688 349 q 669 392 688 374 q 626 410 651 410 l 624 410 m 68 271 l 68 271 q 25 253 43 271 q 7 210 7 235 l 7 207 q 25 164 7 182 q 68 146 43 146 l 71 146 q 114 164 96 146 q 132 207 132 182 l 132 210 q 114 253 132 235 q 71 271 96 271 l 68 271 m 624 271 l 624 271 q 581 253 599 271 q 563 210 563 235 l 563 207 q 581 164 563 182 q 624 146 599 146 l 626 146 q 669 164 651 146 q 688 207 688 182 l 688 210 q 669 253 688 235 q 626 271 651 271 l 624 271 m 207 132 l 207 132 q 164 114 182 132 q 146 71 146 96 l 146 68 q 164 25 146 43 q 207 7 182 7 l 210 7 q 253 25 235 7 q 271 68 271 43 l 271 71 q 253 114 271 96 q 210 132 235 132 l 207 132 m 346 132 l 346 132 q 303 114 321 132 q 285 71 285 96 l 285 68 q 303 25 285 43 q 346 7 321 7 l 349 7 q 392 25 374 7 q 410 68 410 43 l 410 71 q 392 114 410 96 q 349 132 374 132 l 346 132 m 485 132 l 485 132 q 442 114 460 132 q 424 71 424 96 l 424 68 q 442 25 424 43 q 485 7 460 7 l 488 7 q 531 25 513 7 q 549 68 549 43 l 549 71 q 531 114 549 96 q 488 132 513 132 l 485 132 z "},"9":{"ha":833,"x_min":7,"x_max":688,"o":"m 207 965 l 207 965 q 164 947 182 965 q 146 904 146 929 l 146 901 q 164 858 146 876 q 207 840 182 840 l 210 840 q 253 858 235 840 q 271 901 271 876 l 271 904 q 253 947 271 929 q 210 965 235 965 l 207 965 m 346 965 l 346 965 q 303 947 321 965 q 285 904 285 929 l 285 901 q 303 858 285 876 q 346 840 321 840 l 349 840 q 392 858 374 840 q 410 901 410 876 l 410 904 q 392 947 410 929 q 349 965 374 965 l 346 965 m 485 965 l 485 965 q 442 947 460 965 q 424 904 424 929 l 424 901 q 442 858 424 876 q 485 840 460 840 l 488 840 q 531 858 513 840 q 549 901 549 876 l 549 904 q 531 947 549 929 q 488 965 513 965 l 485 965 m 68 826 l 68 826 q 25 808 43 826 q 7 765 7 790 l 7 763 q 25 719 7 738 q 68 701 43 701 l 71 701 q 114 719 96 701 q 132 763 132 738 l 132 765 q 114 808 132 790 q 71 826 96 826 l 68 826 m 624 826 l 624 826 q 581 808 599 826 q 563 765 563 790 l 563 763 q 581 719 563 738 q 624 701 599 701 l 626 701 q 669 719 651 701 q 688 763 688 738 l 688 765 q 669 808 688 790 q 626 826 651 826 l 624 826 m 68 688 l 68 688 q 25 669 43 688 q 7 626 7 651 l 7 624 q 25 581 7 599 q 68 563 43 563 l 71 563 q 114 581 96 563 q 132 624 132 599 l 132 626 q 114 669 132 651 q 71 688 96 688 l 68 688 m 485 688 l 485 688 q 442 669 460 688 q 424 626 424 651 l 424 624 q 442 581 424 599 q 485 563 460 563 l 488 563 q 531 581 513 563 q 549 624 549 599 l 549 626 q 531 669 549 651 q 488 688 513 688 l 485 688 m 624 688 l 624 688 q 581 669 599 688 q 563 626 563 651 l 563 624 q 581 581 563 599 q 624 563 599 563 l 626 563 q 669 581 651 563 q 688 624 688 599 l 688 626 q 669 669 688 651 q 626 688 651 688 l 624 688 m 207 549 l 207 549 q 164 531 182 549 q 146 488 146 513 l 146 485 q 164 442 146 460 q 207 424 182 424 l 210 424 q 253 442 235 424 q 271 485 271 460 l 271 488 q 253 531 271 513 q 210 549 235 549 l 207 549 m 346 549 l 346 549 q 303 531 321 549 q 285 488 285 513 l 285 485 q 303 442 285 460 q 346 424 321 424 l 349 424 q 392 442 374 424 q 410 485 410 460 l 410 488 q 392 531 410 513 q 349 549 374 549 l 346 549 m 624 549 l 624 549 q 581 531 599 549 q 563 488 563 513 l 563 485 q 581 442 563 460 q 624 424 599 424 l 626 424 q 669 442 651 424 q 688 485 688 460 l 688 488 q 669 531 688 513 q 626 549 651 549 l 624 549 m 624 410 l 624 410 q 581 392 599 410 q 563 349 563 374 l 563 346 q 581 303 563 321 q 624 285 599 285 l 626 285 q 669 303 651 285 q 688 346 688 321 l 688 349 q 669 392 688 374 q 626 410 651 410 l 624 410 m 485 271 l 485 271 q 442 253 460 271 q 424 210 424 235 l 424 207 q 442 164 424 182 q 485 146 460 146 l 488 146 q 531 164 513 146 q 549 207 549 182 l 549 210 q 531 253 549 235 q 488 271 513 271 l 485 271 m 207 132 l 207 132 q 164 114 182 132 q 146 71 146 96 l 146 68 q 164 25 146 43 q 207 7 182 7 l 210 7 q 253 25 235 7 q 271 68 271 43 l 271 71 q 253 114 271 96 q 210 132 235 132 l 207 132 m 346 132 l 346 132 q 303 114 321 132 q 285 71 285 96 l 285 68 q 303 25 285 43 q 346 7 321 7 l 349 7 q 392 25 374 7 q 410 68 410 43 l 410 71 q 392 114 410 96 q 349 132 374 132 l 346 132 z "},"A":{"ha":833,"x_min":7,"x_max":688,"o":"m 346 965 l 346 965 q 303 947 321 965 q 285 904 285 929 l 285 901 q 303 858 285 876 q 346 840 321 840 l 349 840 q 392 858 374 840 q 410 901 410 876 l 410 904 q 392 947 410 929 q 349 965 374 965 l 346 965 m 207 826 l 207 826 q 164 808 182 826 q 146 765 146 790 l 146 763 q 164 719 146 738 q 207 701 182 701 l 210 701 q 253 719 235 701 q 271 763 271 738 l 271 765 q 253 808 271 790 q 210 826 235 826 l 207 826 m 485 826 l 485 826 q 442 808 460 826 q 424 765 424 790 l 424 763 q 442 719 424 738 q 485 701 460 701 l 488 701 q 531 719 513 701 q 549 763 549 738 l 549 765 q 531 808 549 790 q 488 826 513 826 l 485 826 m 68 688 l 68 688 q 25 669 43 688 q 7 626 7 651 l 7 624 q 25 581 7 599 q 68 563 43 563 l 71 563 q 114 581 96 563 q 132 624 132 599 l 132 626 q 114 669 132 651 q 71 688 96 688 l 68 688 m 624 688 l 624 688 q 581 669 599 688 q 563 626 563 651 l 563 624 q 581 581 563 599 q 624 563 599 563 l 626 563 q 669 581 651 563 q 688 624 688 599 l 688 626 q 669 669 688 651 q 626 688 651 688 l 624 688 m 68 549 l 68 549 q 25 531 43 549 q 7 488 7 513 l 7 485 q 25 442 7 460 q 68 424 43 424 l 71 424 q 114 442 96 424 q 132 485 132 460 l 132 488 q 114 531 132 513 q 71 549 96 549 l 68 549 m 624 549 l 624 549 q 581 531 599 549 q 563 488 563 513 l 563 485 q 581 442 563 460 q 624 424 599 424 l 626 424 q 669 442 651 424 q 688 485 688 460 l 688 488 q 669 531 688 513 q 626 549 651 549 l 624 549 m 68 410 l 68 410 q 25 392 43 410 q 7 349 7 374 l 7 346 q 25 303 7 321 q 68 285 43 285 l 71 285 q 114 303 96 285 q 132 346 132 321 l 132 349 q 114 392 132 374 q 71 410 96 410 l 68 410 m 207 410 l 207 410 q 164 392 182 410 q 146 349 146 374 l 146 346 q 164 303 146 321 q 207 285 182 285 l 210 285 q 253 303 235 285 q 271 346 271 321 l 271 349 q 253 392 271 374 q 210 410 235 410 l 207 410 m 346 410 l 346 410 q 303 392 321 410 q 285 349 285 374 l 285 346 q 303 303 285 321 q 346 285 321 285 l 349 285 q 392 303 374 285 q 410 346 410 321 l 410 349 q 392 392 410 374 q 349 410 374 410 l 346 410 m 485 410 l 485 410 q 442 392 460 410 q 424 349 424 374 l 424 346 q 442 303 424 321 q 485 285 460 285 l 488 285 q 531 303 513 285 q 549 346 549 321 l 549 349 q 531 392 549 374 q 488 410 513 410 l 485 410 m 624 410 l 624 410 q 581 392 599 410 q 563 349 563 374 l 563 346 q 581 303 563 321 q 624 285 599 285 l 626 285 q 669 303 651 285 q 688 346 688 321 l 688 349 q 669 392 688 374 q 626 410 651 410 l 624 410 m 68 271 l 68 271 q 25 253 43 271 q 7 210 7 235 l 7 207 q 25 164 7 182 q 68 146 43 146 l 71 146 q 114 164 96 146 q 132 207 132 182 l 132 210 q 114 253 132 235 q 71 271 96 271 l 68 271 m 624 271 l 624 271 q 581 253 599 271 q 563 210 563 235 l 563 207 q 581 164 563 182 q 624 146 599 146 l 626 146 q 669 164 651 146 q 688 207 688 182 l 688 210 q 669 253 688 235 q 626 271 651 271 l 624 271 m 68 132 l 68 132 q 25 114 43 132 q 7 71 7 96 l 7 68 q 25 25 7 43 q 68 7 43 7 l 71 7 q 114 25 96 7 q 132 68 132 43 l 132 71 q 114 114 132 96 q 71 132 96 132 l 68 132 m 624 132 l 624 132 q 581 114 599 132 q 563 71 563 96 l 563 68 q 581 25 563 43 q 624 7 599 7 l 626 7 q 669 25 651 7 q 688 68 688 43 l 688 71 q 669 114 688 96 q 626 132 651 132 l 624 132 z "},"Æ":{"ha":833,"x_min":7,"x_max":688,"o":"m 346 965 l 346 965 q 303 947 321 965 q 285 904 285 929 l 285 901 q 303 858 285 876 q 346 840 321 840 l 349 840 q 392 858 374 840 q 410 901 410 876 l 410 904 q 392 947 410 929 q 349 965 374 965 l 346 965 m 485 965 l 485 965 q 442 947 460 965 q 424 904 424 929 l 424 901 q 442 858 424 876 q 485 840 460 840 l 488 840 q 531 858 513 840 q 549 901 549 876 l 549 904 q 531 947 549 929 q 488 965 513 965 l 485 965 m 624 965 l 624 965 q 581 947 599 965 q 563 904 563 929 l 563 901 q 581 858 563 876 q 624 840 599 840 l 626 840 q 669 858 651 840 q 688 901 688 876 l 688 904 q 669 947 688 929 q 626 965 651 965 l 624 965 m 207 826 l 207 826 q 164 808 182 826 q 146 765 146 790 l 146 763 q 164 719 146 738 q 207 701 182 701 l 210 701 q 253 719 235 701 q 271 763 271 738 l 271 765 q 253 808 271 790 q 210 826 235 826 l 207 826 m 346 826 l 346 826 q 303 808 321 826 q 285 765 285 790 l 285 763 q 303 719 285 738 q 346 701 321 701 l 349 701 q 392 719 374 701 q 410 763 410 738 l 410 765 q 392 808 410 790 q 349 826 374 826 l 346 826 m 68 688 l 68 688 q 25 669 43 688 q 7 626 7 651 l 7 624 q 25 581 7 599 q 68 563 43 563 l 71 563 q 114 581 96 563 q 132 624 132 599 l 132 626 q 114 669 132 651 q 71 688 96 688 l 68 688 m 346 688 l 346 688 q 303 669 321 688 q 285 626 285 651 l 285 624 q 303 581 285 599 q 346 563 321 563 l 349 563 q 392 581 374 563 q 410 624 410 599 l 410 626 q 392 669 410 651 q 349 688 374 688 l 346 688 m 68 549 l 68 549 q 25 531 43 549 q 7 488 7 513 l 7 485 q 25 442 7 460 q 68 424 43 424 l 71 424 q 114 442 96 424 q 132 485 132 460 l 132 488 q 114 531 132 513 q 71 549 96 549 l 68 549 m 346 549 l 346 549 q 303 531 321 549 q 285 488 285 513 l 285 485 q 303 442 285 460 q 346 424 321 424 l 349 424 q 392 442 374 424 q 410 485 410 460 l 410 488 q 392 531 410 513 q 349 549 374 549 l 346 549 m 485 549 l 485 549 q 442 531 460 549 q 424 488 424 513 l 424 485 q 442 442 424 460 q 485 424 460 424 l 488 424 q 531 442 513 424 q 549 485 549 460 l 549 488 q 531 531 549 513 q 488 549 513 549 l 485 549 m 624 549 l 624 549 q 581 531 599 549 q 563 488 563 513 l 563 485 q 581 442 563 460 q 624 424 599 424 l 626 424 q 669 442 651 424 q 688 485 688 460 l 688 488 q 669 531 688 513 q 626 549 651 549 l 624 549 m 68 410 l 68 410 q 25 392 43 410 q 7 349 7 374 l 7 346 q 25 303 7 321 q 68 285 43 285 l 71 285 q 114 303 96 285 q 132 346 132 321 l 132 349 q 114 392 132 374 q 71 410 96 410 l 68 410 m 207 410 l 207 410 q 164 392 182 410 q 146 349 146 374 l 146 346 q 164 303 146 321 q 207 285 182 285 l 210 285 q 253 303 235 285 q 271 346 271 321 l 271 349 q 253 392 271 374 q 210 410 235 410 l 207 410 m 346 410 l 346 410 q 303 392 321 410 q 285 349 285 374 l 285 346 q 303 303 285 321 q 346 285 321 285 l 349 285 q 392 303 374 285 q 410 346 410 321 l 410 349 q 392 392 410 374 q 349 410 374 410 l 346 410 m 68 271 l 68 271 q 25 253 43 271 q 7 210 7 235 l 7 207 q 25 164 7 182 q 68 146 43 146 l 71 146 q 114 164 96 146 q 132 207 132 182 l 132 210 q 114 253 132 235 q 71 271 96 271 l 68 271 m 346 271 l 346 271 q 303 253 321 271 q 285 210 285 235 l 285 207 q 303 164 285 182 q 346 146 321 146 l 349 146 q 392 164 374 146 q 410 207 410 182 l 410 210 q 392 253 410 235 q 349 271 374 271 l 346 271 m 68 132 l 68 132 q 25 114 43 132 q 7 71 7 96 l 7 68 q 25 25 7 43 q 68 7 43 7 l 71 7 q 114 25 96 7 q 132 68 132 43 l 132 71 q 114 114 132 96 q 71 132 96 132 l 68 132 m 346 132 l 346 132 q 303 114 321 132 q 285 71 285 96 l 285 68 q 303 25 285 43 q 346 7 321 7 l 349 7 q 392 25 374 7 q 410 68 410 43 l 410 71 q 392 114 410 96 q 349 132 374 132 l 346 132 m 485 132 l 485 132 q 442 114 460 132 q 424 71 424 96 l 424 68 q 442 25 424 43 q 485 7 460 7 l 488 7 q 531 25 513 7 q 549 68 549 43 l 549 71 q 531 114 549 96 q 488 132 513 132 l 485 132 m 624 132 l 624 132 q 581 114 599 132 q 563 71 563 96 l 563 68 q 581 25 563 43 q 624 7 599 7 l 626 7 q 669 25 651 7 q 688 68 688 43 l 688 71 q 669 114 688 96 q 626 132 651 132 l 624 132 z "},"Á":{"ha":833,"x_min":7,"x_max":688,"o":"m 485 1104 l 485 1104 q 442 1086 460 1104 q 424 1043 424 1068 l 424 1040 q 442 997 424 1015 q 485 979 460 979 l 488 979 q 531 997 513 979 q 549 1040 549 1015 l 549 1043 q 531 1086 549 1068 q 488 1104 513 1104 l 485 1104 m 346 965 l 346 965 q 303 947 321 965 q 285 904 285 929 l 285 901 q 303 858 285 876 q 346 840 321 840 l 349 840 q 392 858 374 840 q 410 901 410 876 l 410 904 q 392 947 410 929 q 349 965 374 965 l 346 965 m 207 826 l 207 826 q 164 808 182 826 q 146 765 146 790 l 146 763 q 164 719 146 738 q 207 701 182 701 l 210 701 q 253 719 235 701 q 271 763 271 738 l 271 765 q 253 808 271 790 q 210 826 235 826 l 207 826 m 346 826 l 346 826 q 303 808 321 826 q 285 765 285 790 l 285 763 q 303 719 285 738 q 346 701 321 701 l 349 701 q 392 719 374 701 q 410 763 410 738 l 410 765 q 392 808 410 790 q 349 826 374 826 l 346 826 m 485 826 l 485 826 q 442 808 460 826 q 424 765 424 790 l 424 763 q 442 719 424 738 q 485 701 460 701 l 488 701 q 531 719 513 701 q 549 763 549 738 l 549 765 q 531 808 549 790 q 488 826 513 826 l 485 826 m 68 688 l 68 688 q 25 669 43 688 q 7 626 7 651 l 7 624 q 25 581 7 599 q 68 563 43 563 l 71 563 q 114 581 96 563 q 132 624 132 599 l 132 626 q 114 669 132 651 q 71 688 96 688 l 68 688 m 624 688 l 624 688 q 581 669 599 688 q 563 626 563 651 l 563 624 q 581 581 563 599 q 624 563 599 563 l 626 563 q 669 581 651 563 q 688 624 688 599 l 688 626 q 669 669 688 651 q 626 688 651 688 l 624 688 m 68 549 l 68 549 q 25 531 43 549 q 7 488 7 513 l 7 485 q 25 442 7 460 q 68 424 43 424 l 71 424 q 114 442 96 424 q 132 485 132 460 l 132 488 q 114 531 132 513 q 71 549 96 549 l 68 549 m 624 549 l 624 549 q 581 531 599 549 q 563 488 563 513 l 563 485 q 581 442 563 460 q 624 424 599 424 l 626 424 q 669 442 651 424 q 688 485 688 460 l 688 488 q 669 531 688 513 q 626 549 651 549 l 624 549 m 68 410 l 68 410 q 25 392 43 410 q 7 349 7 374 l 7 346 q 25 303 7 321 q 68 285 43 285 l 71 285 q 114 303 96 285 q 132 346 132 321 l 132 349 q 114 392 132 374 q 71 410 96 410 l 68 410 m 207 410 l 207 410 q 164 392 182 410 q 146 349 146 374 l 146 346 q 164 303 146 321 q 207 285 182 285 l 210 285 q 253 303 235 285 q 271 346 271 321 l 271 349 q 253 392 271 374 q 210 410 235 410 l 207 410 m 346 410 l 346 410 q 303 392 321 410 q 285 349 285 374 l 285 346 q 303 303 285 321 q 346 285 321 285 l 349 285 q 392 303 374 285 q 410 346 410 321 l 410 349 q 392 392 410 374 q 349 410 374 410 l 346 410 m 485 410 l 485 410 q 442 392 460 410 q 424 349 424 374 l 424 346 q 442 303 424 321 q 485 285 460 285 l 488 285 q 531 303 513 285 q 549 346 549 321 l 549 349 q 531 392 549 374 q 488 410 513 410 l 485 410 m 624 410 l 624 410 q 581 392 599 410 q 563 349 563 374 l 563 346 q 581 303 563 321 q 624 285 599 285 l 626 285 q 669 303 651 285 q 688 346 688 321 l 688 349 q 669 392 688 374 q 626 410 651 410 l 624 410 m 68 271 l 68 271 q 25 253 43 271 q 7 210 7 235 l 7 207 q 25 164 7 182 q 68 146 43 146 l 71 146 q 114 164 96 146 q 132 207 132 182 l 132 210 q 114 253 132 235 q 71 271 96 271 l 68 271 m 624 271 l 624 271 q 581 253 599 271 q 563 210 563 235 l 563 207 q 581 164 563 182 q 624 146 599 146 l 626 146 q 669 164 651 146 q 688 207 688 182 l 688 210 q 669 253 688 235 q 626 271 651 271 l 624 271 m 68 132 l 68 132 q 25 114 43 132 q 7 71 7 96 l 7 68 q 25 25 7 43 q 68 7 43 7 l 71 7 q 114 25 96 7 q 132 68 132 43 l 132 71 q 114 114 132 96 q 71 132 96 132 l 68 132 m 624 132 l 624 132 q 581 114 599 132 q 563 71 563 96 l 563 68 q 581 25 563 43 q 624 7 599 7 l 626 7 q 669 25 651 7 q 688 68 688 43 l 688 71 q 669 114 688 96 q 626 132 651 132 l 624 132 z "},"Ă":{"ha":833,"x_min":7,"x_max":688,"o":"m 68 1104 l 68 1104 q 25 1086 43 1104 q 7 1043 7 1068 l 7 1040 q 25 997 7 1015 q 68 979 43 979 l 71 979 q 114 997 96 979 q 132 1040 132 1015 l 132 1043 q 114 1086 132 1068 q 71 1104 96 1104 l 68 1104 m 624 1104 l 624 1104 q 581 1086 599 1104 q 563 1043 563 1068 l 563 1040 q 581 997 563 1015 q 624 979 599 979 l 626 979 q 669 997 651 979 q 688 1040 688 1015 l 688 1043 q 669 1086 688 1068 q 626 1104 651 1104 l 624 1104 m 207 965 l 207 965 q 164 947 182 965 q 146 904 146 929 l 146 901 q 164 858 146 876 q 207 840 182 840 l 210 840 q 253 858 235 840 q 271 901 271 876 l 271 904 q 253 947 271 929 q 210 965 235 965 l 207 965 m 346 965 l 346 965 q 303 947 321 965 q 285 904 285 929 l 285 901 q 303 858 285 876 q 346 840 321 840 l 349 840 q 392 858 374 840 q 410 901 410 876 l 410 904 q 392 947 410 929 q 349 965 374 965 l 346 965 m 485 965 l 485 965 q 442 947 460 965 q 424 904 424 929 l 424 901 q 442 858 424 876 q 485 840 460 840 l 488 840 q 531 858 513 840 q 549 901 549 876 l 549 904 q 531 947 549 929 q 488 965 513 965 l 485 965 m 207 826 l 207 826 q 164 808 182 826 q 146 765 146 790 l 146 763 q 164 719 146 738 q 207 701 182 701 l 210 701 q 253 719 235 701 q 271 763 271 738 l 271 765 q 253 808 271 790 q 210 826 235 826 l 207 826 m 346 826 l 346 826 q 303 808 321 826 q 285 765 285 790 l 285 763 q 303 719 285 738 q 346 701 321 701 l 349 701 q 392 719 374 701 q 410 763 410 738 l 410 765 q 392 808 410 790 q 349 826 374 826 l 346 826 m 485 826 l 485 826 q 442 808 460 826 q 424 765 424 790 l 424 763 q 442 719 424 738 q 485 701 460 701 l 488 701 q 531 719 513 701 q 549 763 549 738 l 549 765 q 531 808 549 790 q 488 826 513 826 l 485 826 m 68 688 l 68 688 q 25 669 43 688 q 7 626 7 651 l 7 624 q 25 581 7 599 q 68 563 43 563 l 71 563 q 114 581 96 563 q 132 624 132 599 l 132 626 q 114 669 132 651 q 71 688 96 688 l 68 688 m 624 688 l 624 688 q 581 669 599 688 q 563 626 563 651 l 563 624 q 581 581 563 599 q 624 563 599 563 l 626 563 q 669 581 651 563 q 688 624 688 599 l 688 626 q 669 669 688 651 q 626 688 651 688 l 624 688 m 68 549 l 68 549 q 25 531 43 549 q 7 488 7 513 l 7 485 q 25 442 7 460 q 68 424 43 424 l 71 424 q 114 442 96 424 q 132 485 132 460 l 132 488 q 114 531 132 513 q 71 549 96 549 l 68 549 m 624 549 l 624 549 q 581 531 599 549 q 563 488 563 513 l 563 485 q 581 442 563 460 q 624 424 599 424 l 626 424 q 669 442 651 424 q 688 485 688 460 l 688 488 q 669 531 688 513 q 626 549 651 549 l 624 549 m 68 410 l 68 410 q 25 392 43 410 q 7 349 7 374 l 7 346 q 25 303 7 321 q 68 285 43 285 l 71 285 q 114 303 96 285 q 132 346 132 321 l 132 349 q 114 392 132 374 q 71 410 96 410 l 68 410 m 207 410 l 207 410 q 164 392 182 410 q 146 349 146 374 l 146 346 q 164 303 146 321 q 207 285 182 285 l 210 285 q 253 303 235 285 q 271 346 271 321 l 271 349 q 253 392 271 374 q 210 410 235 410 l 207 410 m 346 410 l 346 410 q 303 392 321 410 q 285 349 285 374 l 285 346 q 303 303 285 321 q 346 285 321 285 l 349 285 q 392 303 374 285 q 410 346 410 321 l 410 349 q 392 392 410 374 q 349 410 374 410 l 346 410 m 485 410 l 485 410 q 442 392 460 410 q 424 349 424 374 l 424 346 q 442 303 424 321 q 485 285 460 285 l 488 285 q 531 303 513 285 q 549 346 549 321 l 549 349 q 531 392 549 374 q 488 410 513 410 l 485 410 m 624 410 l 624 410 q 581 392 599 410 q 563 349 563 374 l 563 346 q 581 303 563 321 q 624 285 599 285 l 626 285 q 669 303 651 285 q 688 346 688 321 l 688 349 q 669 392 688 374 q 626 410 651 410 l 624 410 m 68 271 l 68 271 q 25 253 43 271 q 7 210 7 235 l 7 207 q 25 164 7 182 q 68 146 43 146 l 71 146 q 114 164 96 146 q 132 207 132 182 l 132 210 q 114 253 132 235 q 71 271 96 271 l 68 271 m 624 271 l 624 271 q 581 253 599 271 q 563 210 563 235 l 563 207 q 581 164 563 182 q 624 146 599 146 l 626 146 q 669 164 651 146 q 688 207 688 182 l 688 210 q 669 253 688 235 q 626 271 651 271 l 624 271 m 68 132 l 68 132 q 25 114 43 132 q 7 71 7 96 l 7 68 q 25 25 7 43 q 68 7 43 7 l 71 7 q 114 25 96 7 q 132 68 132 43 l 132 71 q 114 114 132 96 q 71 132 96 132 l 68 132 m 624 132 l 624 132 q 581 114 599 132 q 563 71 563 96 l 563 68 q 581 25 563 43 q 624 7 599 7 l 626 7 q 669 25 651 7 q 688 68 688 43 l 688 71 q 669 114 688 96 q 626 132 651 132 l 624 132 z "},"Â":{"ha":833,"x_min":7,"x_max":688,"o":"m 346 1104 l 346 1104 q 303 1086 321 1104 q 285 1043 285 1068 l 285 1040 q 303 997 285 1015 q 346 979 321 979 l 349 979 q 392 997 374 979 q 410 1040 410 1015 l 410 1043 q 392 1086 410 1068 q 349 1104 374 1104 l 346 1104 m 207 965 l 207 965 q 164 947 182 965 q 146 904 146 929 l 146 901 q 164 858 146 876 q 207 840 182 840 l 210 840 q 253 858 235 840 q 271 901 271 876 l 271 904 q 253 947 271 929 q 210 965 235 965 l 207 965 m 485 965 l 485 965 q 442 947 460 965 q 424 904 424 929 l 424 901 q 442 858 424 876 q 485 840 460 840 l 488 840 q 531 858 513 840 q 549 901 549 876 l 549 904 q 531 947 549 929 q 488 965 513 965 l 485 965 m 207 826 l 207 826 q 164 808 182 826 q 146 765 146 790 l 146 763 q 164 719 146 738 q 207 701 182 701 l 210 701 q 253 719 235 701 q 271 763 271 738 l 271 765 q 253 808 271 790 q 210 826 235 826 l 207 826 m 346 826 l 346 826 q 303 808 321 826 q 285 765 285 790 l 285 763 q 303 719 285 738 q 346 701 321 701 l 349 701 q 392 719 374 701 q 410 763 410 738 l 410 765 q 392 808 410 790 q 349 826 374 826 l 346 826 m 485 826 l 485 826 q 442 808 460 826 q 424 765 424 790 l 424 763 q 442 719 424 738 q 485 701 460 701 l 488 701 q 531 719 513 701 q 549 763 549 738 l 549 765 q 531 808 549 790 q 488 826 513 826 l 485 826 m 68 688 l 68 688 q 25 669 43 688 q 7 626 7 651 l 7 624 q 25 581 7 599 q 68 563 43 563 l 71 563 q 114 581 96 563 q 132 624 132 599 l 132 626 q 114 669 132 651 q 71 688 96 688 l 68 688 m 624 688 l 624 688 q 581 669 599 688 q 563 626 563 651 l 563 624 q 581 581 563 599 q 624 563 599 563 l 626 563 q 669 581 651 563 q 688 624 688 599 l 688 626 q 669 669 688 651 q 626 688 651 688 l 624 688 m 68 549 l 68 549 q 25 531 43 549 q 7 488 7 513 l 7 485 q 25 442 7 460 q 68 424 43 424 l 71 424 q 114 442 96 424 q 132 485 132 460 l 132 488 q 114 531 132 513 q 71 549 96 549 l 68 549 m 624 549 l 624 549 q 581 531 599 549 q 563 488 563 513 l 563 485 q 581 442 563 460 q 624 424 599 424 l 626 424 q 669 442 651 424 q 688 485 688 460 l 688 488 q 669 531 688 513 q 626 549 651 549 l 624 549 m 68 410 l 68 410 q 25 392 43 410 q 7 349 7 374 l 7 346 q 25 303 7 321 q 68 285 43 285 l 71 285 q 114 303 96 285 q 132 346 132 321 l 132 349 q 114 392 132 374 q 71 410 96 410 l 68 410 m 207 410 l 207 410 q 164 392 182 410 q 146 349 146 374 l 146 346 q 164 303 146 321 q 207 285 182 285 l 210 285 q 253 303 235 285 q 271 346 271 321 l 271 349 q 253 392 271 374 q 210 410 235 410 l 207 410 m 346 410 l 346 410 q 303 392 321 410 q 285 349 285 374 l 285 346 q 303 303 285 321 q 346 285 321 285 l 349 285 q 392 303 374 285 q 410 346 410 321 l 410 349 q 392 392 410 374 q 349 410 374 410 l 346 410 m 485 410 l 485 410 q 442 392 460 410 q 424 349 424 374 l 424 346 q 442 303 424 321 q 485 285 460 285 l 488 285 q 531 303 513 285 q 549 346 549 321 l 549 349 q 531 392 549 374 q 488 410 513 410 l 485 410 m 624 410 l 624 410 q 581 392 599 410 q 563 349 563 374 l 563 346 q 581 303 563 321 q 624 285 599 285 l 626 285 q 669 303 651 285 q 688 346 688 321 l 688 349 q 669 392 688 374 q 626 410 651 410 l 624 410 m 68 271 l 68 271 q 25 253 43 271 q 7 210 7 235 l 7 207 q 25 164 7 182 q 68 146 43 146 l 71 146 q 114 164 96 146 q 132 207 132 182 l 132 210 q 114 253 132 235 q 71 271 96 271 l 68 271 m 624 271 l 624 271 q 581 253 599 271 q 563 210 563 235 l 563 207 q 581 164 563 182 q 624 146 599 146 l 626 146 q 669 164 651 146 q 688 207 688 182 l 688 210 q 669 253 688 235 q 626 271 651 271 l 624 271 m 68 132 l 68 132 q 25 114 43 132 q 7 71 7 96 l 7 68 q 25 25 7 43 q 68 7 43 7 l 71 7 q 114 25 96 7 q 132 68 132 43 l 132 71 q 114 114 132 96 q 71 132 96 132 l 68 132 m 624 132 l 624 132 q 581 114 599 132 q 563 71 563 96 l 563 68 q 581 25 563 43 q 624 7 599 7 l 626 7 q 669 25 651 7 q 688 68 688 43 l 688 71 q 669 114 688 96 q 626 132 651 132 l 624 132 z "},"Ä":{"ha":833,"x_min":7,"x_max":688,"o":"m 207 1104 l 207 1104 q 164 1086 182 1104 q 146 1043 146 1068 l 146 1040 q 164 997 146 1015 q 207 979 182 979 l 210 979 q 253 997 235 979 q 271 1040 271 1015 l 271 1043 q 253 1086 271 1068 q 210 1104 235 1104 l 207 1104 m 485 1104 l 485 1104 q 442 1086 460 1104 q 424 1043 424 1068 l 424 1040 q 442 997 424 1015 q 485 979 460 979 l 488 979 q 531 997 513 979 q 549 1040 549 1015 l 549 1043 q 531 1086 549 1068 q 488 1104 513 1104 l 485 1104 m 207 826 l 207 826 q 164 808 182 826 q 146 765 146 790 l 146 763 q 164 719 146 738 q 207 701 182 701 l 210 701 q 253 719 235 701 q 271 763 271 738 l 271 765 q 253 808 271 790 q 210 826 235 826 l 207 826 m 346 826 l 346 826 q 303 808 321 826 q 285 765 285 790 l 285 763 q 303 719 285 738 q 346 701 321 701 l 349 701 q 392 719 374 701 q 410 763 410 738 l 410 765 q 392 808 410 790 q 349 826 374 826 l 346 826 m 485 826 l 485 826 q 442 808 460 826 q 424 765 424 790 l 424 763 q 442 719 424 738 q 485 701 460 701 l 488 701 q 531 719 513 701 q 549 763 549 738 l 549 765 q 531 808 549 790 q 488 826 513 826 l 485 826 m 68 688 l 68 688 q 25 669 43 688 q 7 626 7 651 l 7 624 q 25 581 7 599 q 68 563 43 563 l 71 563 q 114 581 96 563 q 132 624 132 599 l 132 626 q 114 669 132 651 q 71 688 96 688 l 68 688 m 624 688 l 624 688 q 581 669 599 688 q 563 626 563 651 l 563 624 q 581 581 563 599 q 624 563 599 563 l 626 563 q 669 581 651 563 q 688 624 688 599 l 688 626 q 669 669 688 651 q 626 688 651 688 l 624 688 m 68 549 l 68 549 q 25 531 43 549 q 7 488 7 513 l 7 485 q 25 442 7 460 q 68 424 43 424 l 71 424 q 114 442 96 424 q 132 485 132 460 l 132 488 q 114 531 132 513 q 71 549 96 549 l 68 549 m 624 549 l 624 549 q 581 531 599 549 q 563 488 563 513 l 563 485 q 581 442 563 460 q 624 424 599 424 l 626 424 q 669 442 651 424 q 688 485 688 460 l 688 488 q 669 531 688 513 q 626 549 651 549 l 624 549 m 68 410 l 68 410 q 25 392 43 410 q 7 349 7 374 l 7 346 q 25 303 7 321 q 68 285 43 285 l 71 285 q 114 303 96 285 q 132 346 132 321 l 132 349 q 114 392 132 374 q 71 410 96 410 l 68 410 m 207 410 l 207 410 q 164 392 182 410 q 146 349 146 374 l 146 346 q 164 303 146 321 q 207 285 182 285 l 210 285 q 253 303 235 285 q 271 346 271 321 l 271 349 q 253 392 271 374 q 210 410 235 410 l 207 410 m 346 410 l 346 410 q 303 392 321 410 q 285 349 285 374 l 285 346 q 303 303 285 321 q 346 285 321 285 l 349 285 q 392 303 374 285 q 410 346 410 321 l 410 349 q 392 392 410 374 q 349 410 374 410 l 346 410 m 485 410 l 485 410 q 442 392 460 410 q 424 349 424 374 l 424 346 q 442 303 424 321 q 485 285 460 285 l 488 285 q 531 303 513 285 q 549 346 549 321 l 549 349 q 531 392 549 374 q 488 410 513 410 l 485 410 m 624 410 l 624 410 q 581 392 599 410 q 563 349 563 374 l 563 346 q 581 303 563 321 q 624 285 599 285 l 626 285 q 669 303 651 285 q 688 346 688 321 l 688 349 q 669 392 688 374 q 626 410 651 410 l 624 410 m 68 271 l 68 271 q 25 253 43 271 q 7 210 7 235 l 7 207 q 25 164 7 182 q 68 146 43 146 l 71 146 q 114 164 96 146 q 132 207 132 182 l 132 210 q 114 253 132 235 q 71 271 96 271 l 68 271 m 624 271 l 624 271 q 581 253 599 271 q 563 210 563 235 l 563 207 q 581 164 563 182 q 624 146 599 146 l 626 146 q 669 164 651 146 q 688 207 688 182 l 688 210 q 669 253 688 235 q 626 271 651 271 l 624 271 m 68 132 l 68 132 q 25 114 43 132 q 7 71 7 96 l 7 68 q 25 25 7 43 q 68 7 43 7 l 71 7 q 114 25 96 7 q 132 68 132 43 l 132 71 q 114 114 132 96 q 71 132 96 132 l 68 132 m 624 132 l 624 132 q 581 114 599 132 q 563 71 563 96 l 563 68 q 581 25 563 43 q 624 7 599 7 l 626 7 q 669 25 651 7 q 688 68 688 43 l 688 71 q 669 114 688 96 q 626 132 651 132 l 624 132 z "},"À":{"ha":833,"x_min":7,"x_max":688,"o":"m 207 1104 l 207 1104 q 164 1086 182 1104 q 146 1043 146 1068 l 146 1040 q 164 997 146 1015 q 207 979 182 979 l 210 979 q 253 997 235 979 q 271 1040 271 1015 l 271 1043 q 253 1086 271 1068 q 210 1104 235 1104 l 207 1104 m 346 965 l 346 965 q 303 947 321 965 q 285 904 285 929 l 285 901 q 303 858 285 876 q 346 840 321 840 l 349 840 q 392 858 374 840 q 410 901 410 876 l 410 904 q 392 947 410 929 q 349 965 374 965 l 346 965 m 207 826 l 207 826 q 164 808 182 826 q 146 765 146 790 l 146 763 q 164 719 146 738 q 207 701 182 701 l 210 701 q 253 719 235 701 q 271 763 271 738 l 271 765 q 253 808 271 790 q 210 826 235 826 l 207 826 m 346 826 l 346 826 q 303 808 321 826 q 285 765 285 790 l 285 763 q 303 719 285 738 q 346 701 321 701 l 349 701 q 392 719 374 701 q 410 763 410 738 l 410 765 q 392 808 410 790 q 349 826 374 826 l 346 826 m 485 826 l 485 826 q 442 808 460 826 q 424 765 424 790 l 424 763 q 442 719 424 738 q 485 701 460 701 l 488 701 q 531 719 513 701 q 549 763 549 738 l 549 765 q 531 808 549 790 q 488 826 513 826 l 485 826 m 68 688 l 68 688 q 25 669 43 688 q 7 626 7 651 l 7 624 q 25 581 7 599 q 68 563 43 563 l 71 563 q 114 581 96 563 q 132 624 132 599 l 132 626 q 114 669 132 651 q 71 688 96 688 l 68 688 m 624 688 l 624 688 q 581 669 599 688 q 563 626 563 651 l 563 624 q 581 581 563 599 q 624 563 599 563 l 626 563 q 669 581 651 563 q 688 624 688 599 l 688 626 q 669 669 688 651 q 626 688 651 688 l 624 688 m 68 549 l 68 549 q 25 531 43 549 q 7 488 7 513 l 7 485 q 25 442 7 460 q 68 424 43 424 l 71 424 q 114 442 96 424 q 132 485 132 460 l 132 488 q 114 531 132 513 q 71 549 96 549 l 68 549 m 624 549 l 624 549 q 581 531 599 549 q 563 488 563 513 l 563 485 q 581 442 563 460 q 624 424 599 424 l 626 424 q 669 442 651 424 q 688 485 688 460 l 688 488 q 669 531 688 513 q 626 549 651 549 l 624 549 m 68 410 l 68 410 q 25 392 43 410 q 7 349 7 374 l 7 346 q 25 303 7 321 q 68 285 43 285 l 71 285 q 114 303 96 285 q 132 346 132 321 l 132 349 q 114 392 132 374 q 71 410 96 410 l 68 410 m 207 410 l 207 410 q 164 392 182 410 q 146 349 146 374 l 146 346 q 164 303 146 321 q 207 285 182 285 l 210 285 q 253 303 235 285 q 271 346 271 321 l 271 349 q 253 392 271 374 q 210 410 235 410 l 207 410 m 346 410 l 346 410 q 303 392 321 410 q 285 349 285 374 l 285 346 q 303 303 285 321 q 346 285 321 285 l 349 285 q 392 303 374 285 q 410 346 410 321 l 410 349 q 392 392 410 374 q 349 410 374 410 l 346 410 m 485 410 l 485 410 q 442 392 460 410 q 424 349 424 374 l 424 346 q 442 303 424 321 q 485 285 460 285 l 488 285 q 531 303 513 285 q 549 346 549 321 l 549 349 q 531 392 549 374 q 488 410 513 410 l 485 410 m 624 410 l 624 410 q 581 392 599 410 q 563 349 563 374 l 563 346 q 581 303 563 321 q 624 285 599 285 l 626 285 q 669 303 651 285 q 688 346 688 321 l 688 349 q 669 392 688 374 q 626 410 651 410 l 624 410 m 68 271 l 68 271 q 25 253 43 271 q 7 210 7 235 l 7 207 q 25 164 7 182 q 68 146 43 146 l 71 146 q 114 164 96 146 q 132 207 132 182 l 132 210 q 114 253 132 235 q 71 271 96 271 l 68 271 m 624 271 l 624 271 q 581 253 599 271 q 563 210 563 235 l 563 207 q 581 164 563 182 q 624 146 599 146 l 626 146 q 669 164 651 146 q 688 207 688 182 l 688 210 q 669 253 688 235 q 626 271 651 271 l 624 271 m 68 132 l 68 132 q 25 114 43 132 q 7 71 7 96 l 7 68 q 25 25 7 43 q 68 7 43 7 l 71 7 q 114 25 96 7 q 132 68 132 43 l 132 71 q 114 114 132 96 q 71 132 96 132 l 68 132 m 624 132 l 624 132 q 581 114 599 132 q 563 71 563 96 l 563 68 q 581 25 563 43 q 624 7 599 7 l 626 7 q 669 25 651 7 q 688 68 688 43 l 688 71 q 669 114 688 96 q 626 132 651 132 l 624 132 z "},"Ā":{"ha":833,"x_min":7,"x_max":688,"o":"m 207 1104 l 207 1104 q 164 1086 182 1104 q 146 1043 146 1068 l 146 1040 q 164 997 146 1015 q 207 979 182 979 l 210 979 q 253 997 235 979 q 271 1040 271 1015 l 271 1043 q 253 1086 271 1068 q 210 1104 235 1104 l 207 1104 m 346 1104 l 346 1104 q 303 1086 321 1104 q 285 1043 285 1068 l 285 1040 q 303 997 285 1015 q 346 979 321 979 l 349 979 q 392 997 374 979 q 410 1040 410 1015 l 410 1043 q 392 1086 410 1068 q 349 1104 374 1104 l 346 1104 m 485 1104 l 485 1104 q 442 1086 460 1104 q 424 1043 424 1068 l 424 1040 q 442 997 424 1015 q 485 979 460 979 l 488 979 q 531 997 513 979 q 549 1040 549 1015 l 549 1043 q 531 1086 549 1068 q 488 1104 513 1104 l 485 1104 m 207 826 l 207 826 q 164 808 182 826 q 146 765 146 790 l 146 763 q 164 719 146 738 q 207 701 182 701 l 210 701 q 253 719 235 701 q 271 763 271 738 l 271 765 q 253 808 271 790 q 210 826 235 826 l 207 826 m 346 826 l 346 826 q 303 808 321 826 q 285 765 285 790 l 285 763 q 303 719 285 738 q 346 701 321 701 l 349 701 q 392 719 374 701 q 410 763 410 738 l 410 765 q 392 808 410 790 q 349 826 374 826 l 346 826 m 485 826 l 485 826 q 442 808 460 826 q 424 765 424 790 l 424 763 q 442 719 424 738 q 485 701 460 701 l 488 701 q 531 719 513 701 q 549 763 549 738 l 549 765 q 531 808 549 790 q 488 826 513 826 l 485 826 m 68 688 l 68 688 q 25 669 43 688 q 7 626 7 651 l 7 624 q 25 581 7 599 q 68 563 43 563 l 71 563 q 114 581 96 563 q 132 624 132 599 l 132 626 q 114 669 132 651 q 71 688 96 688 l 68 688 m 624 688 l 624 688 q 581 669 599 688 q 563 626 563 651 l 563 624 q 581 581 563 599 q 624 563 599 563 l 626 563 q 669 581 651 563 q 688 624 688 599 l 688 626 q 669 669 688 651 q 626 688 651 688 l 624 688 m 68 549 l 68 549 q 25 531 43 549 q 7 488 7 513 l 7 485 q 25 442 7 460 q 68 424 43 424 l 71 424 q 114 442 96 424 q 132 485 132 460 l 132 488 q 114 531 132 513 q 71 549 96 549 l 68 549 m 624 549 l 624 549 q 581 531 599 549 q 563 488 563 513 l 563 485 q 581 442 563 460 q 624 424 599 424 l 626 424 q 669 442 651 424 q 688 485 688 460 l 688 488 q 669 531 688 513 q 626 549 651 549 l 624 549 m 68 410 l 68 410 q 25 392 43 410 q 7 349 7 374 l 7 346 q 25 303 7 321 q 68 285 43 285 l 71 285 q 114 303 96 285 q 132 346 132 321 l 132 349 q 114 392 132 374 q 71 410 96 410 l 68 410 m 207 410 l 207 410 q 164 392 182 410 q 146 349 146 374 l 146 346 q 164 303 146 321 q 207 285 182 285 l 210 285 q 253 303 235 285 q 271 346 271 321 l 271 349 q 253 392 271 374 q 210 410 235 410 l 207 410 m 346 410 l 346 410 q 303 392 321 410 q 285 349 285 374 l 285 346 q 303 303 285 321 q 346 285 321 285 l 349 285 q 392 303 374 285 q 410 346 410 321 l 410 349 q 392 392 410 374 q 349 410 374 410 l 346 410 m 485 410 l 485 410 q 442 392 460 410 q 424 349 424 374 l 424 346 q 442 303 424 321 q 485 285 460 285 l 488 285 q 531 303 513 285 q 549 346 549 321 l 549 349 q 531 392 549 374 q 488 410 513 410 l 485 410 m 624 410 l 624 410 q 581 392 599 410 q 563 349 563 374 l 563 346 q 581 303 563 321 q 624 285 599 285 l 626 285 q 669 303 651 285 q 688 346 688 321 l 688 349 q 669 392 688 374 q 626 410 651 410 l 624 410 m 68 271 l 68 271 q 25 253 43 271 q 7 210 7 235 l 7 207 q 25 164 7 182 q 68 146 43 146 l 71 146 q 114 164 96 146 q 132 207 132 182 l 132 210 q 114 253 132 235 q 71 271 96 271 l 68 271 m 624 271 l 624 271 q 581 253 599 271 q 563 210 563 235 l 563 207 q 581 164 563 182 q 624 146 599 146 l 626 146 q 669 164 651 146 q 688 207 688 182 l 688 210 q 669 253 688 235 q 626 271 651 271 l 624 271 m 68 132 l 68 132 q 25 114 43 132 q 7 71 7 96 l 7 68 q 25 25 7 43 q 68 7 43 7 l 71 7 q 114 25 96 7 q 132 68 132 43 l 132 71 q 114 114 132 96 q 71 132 96 132 l 68 132 m 624 132 l 624 132 q 581 114 599 132 q 563 71 563 96 l 563 68 q 581 25 563 43 q 624 7 599 7 l 626 7 q 669 25 651 7 q 688 68 688 43 l 688 71 q 669 114 688 96 q 626 132 651 132 l 624 132 z "},"Ą":{"ha":833,"x_min":7,"x_max":688,"o":"m 346 965 l 346 965 q 303 947 321 965 q 285 904 285 929 l 285 901 q 303 858 285 876 q 346 840 321 840 l 349 840 q 392 858 374 840 q 410 901 410 876 l 410 904 q 392 947 410 929 q 349 965 374 965 l 346 965 m 207 826 l 207 826 q 164 808 182 826 q 146 765 146 790 l 146 763 q 164 719 146 738 q 207 701 182 701 l 210 701 q 253 719 235 701 q 271 763 271 738 l 271 765 q 253 808 271 790 q 210 826 235 826 l 207 826 m 485 826 l 485 826 q 442 808 460 826 q 424 765 424 790 l 424 763 q 442 719 424 738 q 485 701 460 701 l 488 701 q 531 719 513 701 q 549 763 549 738 l 549 765 q 531 808 549 790 q 488 826 513 826 l 485 826 m 68 688 l 68 688 q 25 669 43 688 q 7 626 7 651 l 7 624 q 25 581 7 599 q 68 563 43 563 l 71 563 q 114 581 96 563 q 132 624 132 599 l 132 626 q 114 669 132 651 q 71 688 96 688 l 68 688 m 624 688 l 624 688 q 581 669 599 688 q 563 626 563 651 l 563 624 q 581 581 563 599 q 624 563 599 563 l 626 563 q 669 581 651 563 q 688 624 688 599 l 688 626 q 669 669 688 651 q 626 688 651 688 l 624 688 m 68 549 l 68 549 q 25 531 43 549 q 7 488 7 513 l 7 485 q 25 442 7 460 q 68 424 43 424 l 71 424 q 114 442 96 424 q 132 485 132 460 l 132 488 q 114 531 132 513 q 71 549 96 549 l 68 549 m 624 549 l 624 549 q 581 531 599 549 q 563 488 563 513 l 563 485 q 581 442 563 460 q 624 424 599 424 l 626 424 q 669 442 651 424 q 688 485 688 460 l 688 488 q 669 531 688 513 q 626 549 651 549 l 624 549 m 68 410 l 68 410 q 25 392 43 410 q 7 349 7 374 l 7 346 q 25 303 7 321 q 68 285 43 285 l 71 285 q 114 303 96 285 q 132 346 132 321 l 132 349 q 114 392 132 374 q 71 410 96 410 l 68 410 m 207 410 l 207 410 q 164 392 182 410 q 146 349 146 374 l 146 346 q 164 303 146 321 q 207 285 182 285 l 210 285 q 253 303 235 285 q 271 346 271 321 l 271 349 q 253 392 271 374 q 210 410 235 410 l 207 410 m 346 410 l 346 410 q 303 392 321 410 q 285 349 285 374 l 285 346 q 303 303 285 321 q 346 285 321 285 l 349 285 q 392 303 374 285 q 410 346 410 321 l 410 349 q 392 392 410 374 q 349 410 374 410 l 346 410 m 485 410 l 485 410 q 442 392 460 410 q 424 349 424 374 l 424 346 q 442 303 424 321 q 485 285 460 285 l 488 285 q 531 303 513 285 q 549 346 549 321 l 549 349 q 531 392 549 374 q 488 410 513 410 l 485 410 m 624 410 l 624 410 q 581 392 599 410 q 563 349 563 374 l 563 346 q 581 303 563 321 q 624 285 599 285 l 626 285 q 669 303 651 285 q 688 346 688 321 l 688 349 q 669 392 688 374 q 626 410 651 410 l 624 410 m 68 271 l 68 271 q 25 253 43 271 q 7 210 7 235 l 7 207 q 25 164 7 182 q 68 146 43 146 l 71 146 q 114 164 96 146 q 132 207 132 182 l 132 210 q 114 253 132 235 q 71 271 96 271 l 68 271 m 624 271 l 624 271 q 581 253 599 271 q 563 210 563 235 l 563 207 q 581 164 563 182 q 624 146 599 146 l 626 146 q 669 164 651 146 q 688 207 688 182 l 688 210 q 669 253 688 235 q 626 271 651 271 l 624 271 m 68 132 l 68 132 q 25 114 43 132 q 7 71 7 96 l 7 68 q 25 25 7 43 q 68 7 43 7 l 71 7 q 114 25 96 7 q 132 68 132 43 l 132 71 q 114 114 132 96 q 71 132 96 132 l 68 132 m 624 132 l 624 132 q 581 114 599 132 q 563 71 563 96 l 563 68 q 581 25 563 43 q 624 7 599 7 l 626 7 q 669 25 651 7 q 688 68 688 43 l 688 71 q 669 114 688 96 q 626 132 651 132 l 624 132 m 485 -7 l 485 -7 q 442 -25 460 -7 q 424 -68 424 -43 l 424 -71 q 442 -114 424 -96 q 485 -132 460 -132 l 488 -132 q 531 -114 513 -132 q 549 -71 549 -96 l 549 -68 q 531 -25 549 -43 q 488 -7 513 -7 l 485 -7 m 485 -146 l 485 -146 q 442 -164 460 -146 q 424 -207 424 -182 l 424 -210 q 442 -253 424 -235 q 485 -271 460 -271 l 488 -271 q 531 -253 513 -271 q 549 -210 549 -235 l 549 -207 q 531 -164 549 -182 q 488 -146 513 -146 l 485 -146 m 624 -146 l 624 -146 q 581 -164 599 -146 q 563 -207 563 -182 l 563 -210 q 581 -253 563 -235 q 624 -271 599 -271 l 626 -271 q 669 -253 651 -271 q 688 -210 688 -235 l 688 -207 q 669 -164 688 -182 q 626 -146 651 -146 l 624 -146 z "},"Å":{"ha":833,"x_min":7,"x_max":688,"o":"m 346 1104 l 346 1104 q 303 1086 321 1104 q 285 1043 285 1068 l 285 1040 q 303 997 285 1015 q 346 979 321 979 l 349 979 q 392 997 374 979 q 410 1040 410 1015 l 410 1043 q 392 1086 410 1068 q 349 1104 374 1104 l 346 1104 m 207 965 l 207 965 q 164 947 182 965 q 146 904 146 929 l 146 901 q 164 858 146 876 q 207 840 182 840 l 210 840 q 253 858 235 840 q 271 901 271 876 l 271 904 q 253 947 271 929 q 210 965 235 965 l 207 965 m 485 965 l 485 965 q 442 947 460 965 q 424 904 424 929 l 424 901 q 442 858 424 876 q 485 840 460 840 l 488 840 q 531 858 513 840 q 549 901 549 876 l 549 904 q 531 947 549 929 q 488 965 513 965 l 485 965 m 207 826 l 207 826 q 164 808 182 826 q 146 765 146 790 l 146 763 q 164 719 146 738 q 207 701 182 701 l 210 701 q 253 719 235 701 q 271 763 271 738 l 271 765 q 253 808 271 790 q 210 826 235 826 l 207 826 m 346 826 l 346 826 q 303 808 321 826 q 285 765 285 790 l 285 763 q 303 719 285 738 q 346 701 321 701 l 349 701 q 392 719 374 701 q 410 763 410 738 l 410 765 q 392 808 410 790 q 349 826 374 826 l 346 826 m 485 826 l 485 826 q 442 808 460 826 q 424 765 424 790 l 424 763 q 442 719 424 738 q 485 701 460 701 l 488 701 q 531 719 513 701 q 549 763 549 738 l 549 765 q 531 808 549 790 q 488 826 513 826 l 485 826 m 68 688 l 68 688 q 25 669 43 688 q 7 626 7 651 l 7 624 q 25 581 7 599 q 68 563 43 563 l 71 563 q 114 581 96 563 q 132 624 132 599 l 132 626 q 114 669 132 651 q 71 688 96 688 l 68 688 m 624 688 l 624 688 q 581 669 599 688 q 563 626 563 651 l 563 624 q 581 581 563 599 q 624 563 599 563 l 626 563 q 669 581 651 563 q 688 624 688 599 l 688 626 q 669 669 688 651 q 626 688 651 688 l 624 688 m 68 549 l 68 549 q 25 531 43 549 q 7 488 7 513 l 7 485 q 25 442 7 460 q 68 424 43 424 l 71 424 q 114 442 96 424 q 132 485 132 460 l 132 488 q 114 531 132 513 q 71 549 96 549 l 68 549 m 624 549 l 624 549 q 581 531 599 549 q 563 488 563 513 l 563 485 q 581 442 563 460 q 624 424 599 424 l 626 424 q 669 442 651 424 q 688 485 688 460 l 688 488 q 669 531 688 513 q 626 549 651 549 l 624 549 m 68 410 l 68 410 q 25 392 43 410 q 7 349 7 374 l 7 346 q 25 303 7 321 q 68 285 43 285 l 71 285 q 114 303 96 285 q 132 346 132 321 l 132 349 q 114 392 132 374 q 71 410 96 410 l 68 410 m 207 410 l 207 410 q 164 392 182 410 q 146 349 146 374 l 146 346 q 164 303 146 321 q 207 285 182 285 l 210 285 q 253 303 235 285 q 271 346 271 321 l 271 349 q 253 392 271 374 q 210 410 235 410 l 207 410 m 346 410 l 346 410 q 303 392 321 410 q 285 349 285 374 l 285 346 q 303 303 285 321 q 346 285 321 285 l 349 285 q 392 303 374 285 q 410 346 410 321 l 410 349 q 392 392 410 374 q 349 410 374 410 l 346 410 m 485 410 l 485 410 q 442 392 460 410 q 424 349 424 374 l 424 346 q 442 303 424 321 q 485 285 460 285 l 488 285 q 531 303 513 285 q 549 346 549 321 l 549 349 q 531 392 549 374 q 488 410 513 410 l 485 410 m 624 410 l 624 410 q 581 392 599 410 q 563 349 563 374 l 563 346 q 581 303 563 321 q 624 285 599 285 l 626 285 q 669 303 651 285 q 688 346 688 321 l 688 349 q 669 392 688 374 q 626 410 651 410 l 624 410 m 68 271 l 68 271 q 25 253 43 271 q 7 210 7 235 l 7 207 q 25 164 7 182 q 68 146 43 146 l 71 146 q 114 164 96 146 q 132 207 132 182 l 132 210 q 114 253 132 235 q 71 271 96 271 l 68 271 m 624 271 l 624 271 q 581 253 599 271 q 563 210 563 235 l 563 207 q 581 164 563 182 q 624 146 599 146 l 626 146 q 669 164 651 146 q 688 207 688 182 l 688 210 q 669 253 688 235 q 626 271 651 271 l 624 271 m 68 132 l 68 132 q 25 114 43 132 q 7 71 7 96 l 7 68 q 25 25 7 43 q 68 7 43 7 l 71 7 q 114 25 96 7 q 132 68 132 43 l 132 71 q 114 114 132 96 q 71 132 96 132 l 68 132 m 624 132 l 624 132 q 581 114 599 132 q 563 71 563 96 l 563 68 q 581 25 563 43 q 624 7 599 7 l 626 7 q 669 25 651 7 q 688 68 688 43 l 688 71 q 669 114 688 96 q 626 132 651 132 l 624 132 z "},"Ã":{"ha":833,"x_min":7,"x_max":688,"o":"m 207 1104 l 207 1104 q 164 1086 182 1104 q 146 1043 146 1068 l 146 1040 q 164 997 146 1015 q 207 979 182 979 l 210 979 q 253 997 235 979 q 271 1040 271 1015 l 271 1043 q 253 1086 271 1068 q 210 1104 235 1104 l 207 1104 m 624 1104 l 624 1104 q 581 1086 599 1104 q 563 1043 563 1068 l 563 1040 q 581 997 563 1015 q 624 979 599 979 l 626 979 q 669 997 651 979 q 688 1040 688 1015 l 688 1043 q 669 1086 688 1068 q 626 1104 651 1104 l 624 1104 m 68 965 l 68 965 q 25 947 43 965 q 7 904 7 929 l 7 901 q 25 858 7 876 q 68 840 43 840 l 71 840 q 114 858 96 840 q 132 901 132 876 l 132 904 q 114 947 132 929 q 71 965 96 965 l 68 965 m 346 965 l 346 965 q 303 947 321 965 q 285 904 285 929 l 285 901 q 303 858 285 876 q 346 840 321 840 l 349 840 q 392 858 374 840 q 410 901 410 876 l 410 904 q 392 947 410 929 q 349 965 374 965 l 346 965 m 485 965 l 485 965 q 442 947 460 965 q 424 904 424 929 l 424 901 q 442 858 424 876 q 485 840 460 840 l 488 840 q 531 858 513 840 q 549 901 549 876 l 549 904 q 531 947 549 929 q 488 965 513 965 l 485 965 m 207 826 l 207 826 q 164 808 182 826 q 146 765 146 790 l 146 763 q 164 719 146 738 q 207 701 182 701 l 210 701 q 253 719 235 701 q 271 763 271 738 l 271 765 q 253 808 271 790 q 210 826 235 826 l 207 826 m 346 826 l 346 826 q 303 808 321 826 q 285 765 285 790 l 285 763 q 303 719 285 738 q 346 701 321 701 l 349 701 q 392 719 374 701 q 410 763 410 738 l 410 765 q 392 808 410 790 q 349 826 374 826 l 346 826 m 485 826 l 485 826 q 442 808 460 826 q 424 765 424 790 l 424 763 q 442 719 424 738 q 485 701 460 701 l 488 701 q 531 719 513 701 q 549 763 549 738 l 549 765 q 531 808 549 790 q 488 826 513 826 l 485 826 m 68 688 l 68 688 q 25 669 43 688 q 7 626 7 651 l 7 624 q 25 581 7 599 q 68 563 43 563 l 71 563 q 114 581 96 563 q 132 624 132 599 l 132 626 q 114 669 132 651 q 71 688 96 688 l 68 688 m 624 688 l 624 688 q 581 669 599 688 q 563 626 563 651 l 563 624 q 581 581 563 599 q 624 563 599 563 l 626 563 q 669 581 651 563 q 688 624 688 599 l 688 626 q 669 669 688 651 q 626 688 651 688 l 624 688 m 68 549 l 68 549 q 25 531 43 549 q 7 488 7 513 l 7 485 q 25 442 7 460 q 68 424 43 424 l 71 424 q 114 442 96 424 q 132 485 132 460 l 132 488 q 114 531 132 513 q 71 549 96 549 l 68 549 m 624 549 l 624 549 q 581 531 599 549 q 563 488 563 513 l 563 485 q 581 442 563 460 q 624 424 599 424 l 626 424 q 669 442 651 424 q 688 485 688 460 l 688 488 q 669 531 688 513 q 626 549 651 549 l 624 549 m 68 410 l 68 410 q 25 392 43 410 q 7 349 7 374 l 7 346 q 25 303 7 321 q 68 285 43 285 l 71 285 q 114 303 96 285 q 132 346 132 321 l 132 349 q 114 392 132 374 q 71 410 96 410 l 68 410 m 207 410 l 207 410 q 164 392 182 410 q 146 349 146 374 l 146 346 q 164 303 146 321 q 207 285 182 285 l 210 285 q 253 303 235 285 q 271 346 271 321 l 271 349 q 253 392 271 374 q 210 410 235 410 l 207 410 m 346 410 l 346 410 q 303 392 321 410 q 285 349 285 374 l 285 346 q 303 303 285 321 q 346 285 321 285 l 349 285 q 392 303 374 285 q 410 346 410 321 l 410 349 q 392 392 410 374 q 349 410 374 410 l 346 410 m 485 410 l 485 410 q 442 392 460 410 q 424 349 424 374 l 424 346 q 442 303 424 321 q 485 285 460 285 l 488 285 q 531 303 513 285 q 549 346 549 321 l 549 349 q 531 392 549 374 q 488 410 513 410 l 485 410 m 624 410 l 624 410 q 581 392 599 410 q 563 349 563 374 l 563 346 q 581 303 563 321 q 624 285 599 285 l 626 285 q 669 303 651 285 q 688 346 688 321 l 688 349 q 669 392 688 374 q 626 410 651 410 l 624 410 m 68 271 l 68 271 q 25 253 43 271 q 7 210 7 235 l 7 207 q 25 164 7 182 q 68 146 43 146 l 71 146 q 114 164 96 146 q 132 207 132 182 l 132 210 q 114 253 132 235 q 71 271 96 271 l 68 271 m 624 271 l 624 271 q 581 253 599 271 q 563 210 563 235 l 563 207 q 581 164 563 182 q 624 146 599 146 l 626 146 q 669 164 651 146 q 688 207 688 182 l 688 210 q 669 253 688 235 q 626 271 651 271 l 624 271 m 68 132 l 68 132 q 25 114 43 132 q 7 71 7 96 l 7 68 q 25 25 7 43 q 68 7 43 7 l 71 7 q 114 25 96 7 q 132 68 132 43 l 132 71 q 114 114 132 96 q 71 132 96 132 l 68 132 m 624 132 l 624 132 q 581 114 599 132 q 563 71 563 96 l 563 68 q 581 25 563 43 q 624 7 599 7 l 626 7 q 669 25 651 7 q 688 68 688 43 l 688 71 q 669 114 688 96 q 626 132 651 132 l 624 132 z "},"B":{"ha":833,"x_min":7,"x_max":688,"o":"m 68 965 l 68 965 q 25 947 43 965 q 7 904 7 929 l 7 901 q 25 858 7 876 q 68 840 43 840 l 71 840 q 114 858 96 840 q 132 901 132 876 l 132 904 q 114 947 132 929 q 71 965 96 965 l 68 965 m 207 965 l 207 965 q 164 947 182 965 q 146 904 146 929 l 146 901 q 164 858 146 876 q 207 840 182 840 l 210 840 q 253 858 235 840 q 271 901 271 876 l 271 904 q 253 947 271 929 q 210 965 235 965 l 207 965 m 346 965 l 346 965 q 303 947 321 965 q 285 904 285 929 l 285 901 q 303 858 285 876 q 346 840 321 840 l 349 840 q 392 858 374 840 q 410 901 410 876 l 410 904 q 392 947 410 929 q 349 965 374 965 l 346 965 m 485 965 l 485 965 q 442 947 460 965 q 424 904 424 929 l 424 901 q 442 858 424 876 q 485 840 460 840 l 488 840 q 531 858 513 840 q 549 901 549 876 l 549 904 q 531 947 549 929 q 488 965 513 965 l 485 965 m 207 826 l 207 826 q 164 808 182 826 q 146 765 146 790 l 146 763 q 164 719 146 738 q 207 701 182 701 l 210 701 q 253 719 235 701 q 271 763 271 738 l 271 765 q 253 808 271 790 q 210 826 235 826 l 207 826 m 624 826 l 624 826 q 581 808 599 826 q 563 765 563 790 l 563 763 q 581 719 563 738 q 624 701 599 701 l 626 701 q 669 719 651 701 q 688 763 688 738 l 688 765 q 669 808 688 790 q 626 826 651 826 l 624 826 m 207 688 l 207 688 q 164 669 182 688 q 146 626 146 651 l 146 624 q 164 581 146 599 q 207 563 182 563 l 210 563 q 253 581 235 563 q 271 624 271 599 l 271 626 q 253 669 271 651 q 210 688 235 688 l 207 688 m 624 688 l 624 688 q 581 669 599 688 q 563 626 563 651 l 563 624 q 581 581 563 599 q 624 563 599 563 l 626 563 q 669 581 651 563 q 688 624 688 599 l 688 626 q 669 669 688 651 q 626 688 651 688 l 624 688 m 207 549 l 207 549 q 164 531 182 549 q 146 488 146 513 l 146 485 q 164 442 146 460 q 207 424 182 424 l 210 424 q 253 442 235 424 q 271 485 271 460 l 271 488 q 253 531 271 513 q 210 549 235 549 l 207 549 m 346 549 l 346 549 q 303 531 321 549 q 285 488 285 513 l 285 485 q 303 442 285 460 q 346 424 321 424 l 349 424 q 392 442 374 424 q 410 485 410 460 l 410 488 q 392 531 410 513 q 349 549 374 549 l 346 549 m 485 549 l 485 549 q 442 531 460 549 q 424 488 424 513 l 424 485 q 442 442 424 460 q 485 424 460 424 l 488 424 q 531 442 513 424 q 549 485 549 460 l 549 488 q 531 531 549 513 q 488 549 513 549 l 485 549 m 207 410 l 207 410 q 164 392 182 410 q 146 349 146 374 l 146 346 q 164 303 146 321 q 207 285 182 285 l 210 285 q 253 303 235 285 q 271 346 271 321 l 271 349 q 253 392 271 374 q 210 410 235 410 l 207 410 m 624 410 l 624 410 q 581 392 599 410 q 563 349 563 374 l 563 346 q 581 303 563 321 q 624 285 599 285 l 626 285 q 669 303 651 285 q 688 346 688 321 l 688 349 q 669 392 688 374 q 626 410 651 410 l 624 410 m 207 271 l 207 271 q 164 253 182 271 q 146 210 146 235 l 146 207 q 164 164 146 182 q 207 146 182 146 l 210 146 q 253 164 235 146 q 271 207 271 182 l 271 210 q 253 253 271 235 q 210 271 235 271 l 207 271 m 624 271 l 624 271 q 581 253 599 271 q 563 210 563 235 l 563 207 q 581 164 563 182 q 624 146 599 146 l 626 146 q 669 164 651 146 q 688 207 688 182 l 688 210 q 669 253 688 235 q 626 271 651 271 l 624 271 m 68 132 l 68 132 q 25 114 43 132 q 7 71 7 96 l 7 68 q 25 25 7 43 q 68 7 43 7 l 71 7 q 114 25 96 7 q 132 68 132 43 l 132 71 q 114 114 132 96 q 71 132 96 132 l 68 132 m 207 132 l 207 132 q 164 114 182 132 q 146 71 146 96 l 146 68 q 164 25 146 43 q 207 7 182 7 l 210 7 q 253 25 235 7 q 271 68 271 43 l 271 71 q 253 114 271 96 q 210 132 235 132 l 207 132 m 346 132 l 346 132 q 303 114 321 132 q 285 71 285 96 l 285 68 q 303 25 285 43 q 346 7 321 7 l 349 7 q 392 25 374 7 q 410 68 410 43 l 410 71 q 392 114 410 96 q 349 132 374 132 l 346 132 m 485 132 l 485 132 q 442 114 460 132 q 424 71 424 96 l 424 68 q 442 25 424 43 q 485 7 460 7 l 488 7 q 531 25 513 7 q 549 68 549 43 l 549 71 q 531 114 549 96 q 488 132 513 132 l 485 132 z "},"C":{"ha":833,"x_min":7,"x_max":688,"o":"m 207 965 l 207 965 q 164 947 182 965 q 146 904 146 929 l 146 901 q 164 858 146 876 q 207 840 182 840 l 210 840 q 253 858 235 840 q 271 901 271 876 l 271 904 q 253 947 271 929 q 210 965 235 965 l 207 965 m 346 965 l 346 965 q 303 947 321 965 q 285 904 285 929 l 285 901 q 303 858 285 876 q 346 840 321 840 l 349 840 q 392 858 374 840 q 410 901 410 876 l 410 904 q 392 947 410 929 q 349 965 374 965 l 346 965 m 485 965 l 485 965 q 442 947 460 965 q 424 904 424 929 l 424 901 q 442 858 424 876 q 485 840 460 840 l 488 840 q 531 858 513 840 q 549 901 549 876 l 549 904 q 531 947 549 929 q 488 965 513 965 l 485 965 m 68 826 l 68 826 q 25 808 43 826 q 7 765 7 790 l 7 763 q 25 719 7 738 q 68 701 43 701 l 71 701 q 114 719 96 701 q 132 763 132 738 l 132 765 q 114 808 132 790 q 71 826 96 826 l 68 826 m 624 826 l 624 826 q 581 808 599 826 q 563 765 563 790 l 563 763 q 581 719 563 738 q 624 701 599 701 l 626 701 q 669 719 651 701 q 688 763 688 738 l 688 765 q 669 808 688 790 q 626 826 651 826 l 624 826 m 68 688 l 68 688 q 25 669 43 688 q 7 626 7 651 l 7 624 q 25 581 7 599 q 68 563 43 563 l 71 563 q 114 581 96 563 q 132 624 132 599 l 132 626 q 114 669 132 651 q 71 688 96 688 l 68 688 m 68 549 l 68 549 q 25 531 43 549 q 7 488 7 513 l 7 485 q 25 442 7 460 q 68 424 43 424 l 71 424 q 114 442 96 424 q 132 485 132 460 l 132 488 q 114 531 132 513 q 71 549 96 549 l 68 549 m 68 410 l 68 410 q 25 392 43 410 q 7 349 7 374 l 7 346 q 25 303 7 321 q 68 285 43 285 l 71 285 q 114 303 96 285 q 132 346 132 321 l 132 349 q 114 392 132 374 q 71 410 96 410 l 68 410 m 68 271 l 68 271 q 25 253 43 271 q 7 210 7 235 l 7 207 q 25 164 7 182 q 68 146 43 146 l 71 146 q 114 164 96 146 q 132 207 132 182 l 132 210 q 114 253 132 235 q 71 271 96 271 l 68 271 m 624 271 l 624 271 q 581 253 599 271 q 563 210 563 235 l 563 207 q 581 164 563 182 q 624 146 599 146 l 626 146 q 669 164 651 146 q 688 207 688 182 l 688 210 q 669 253 688 235 q 626 271 651 271 l 624 271 m 207 132 l 207 132 q 164 114 182 132 q 146 71 146 96 l 146 68 q 164 25 146 43 q 207 7 182 7 l 210 7 q 253 25 235 7 q 271 68 271 43 l 271 71 q 253 114 271 96 q 210 132 235 132 l 207 132 m 346 132 l 346 132 q 303 114 321 132 q 285 71 285 96 l 285 68 q 303 25 285 43 q 346 7 321 7 l 349 7 q 392 25 374 7 q 410 68 410 43 l 410 71 q 392 114 410 96 q 349 132 374 132 l 346 132 m 485 132 l 485 132 q 442 114 460 132 q 424 71 424 96 l 424 68 q 442 25 424 43 q 485 7 460 7 l 488 7 q 531 25 513 7 q 549 68 549 43 l 549 71 q 531 114 549 96 q 488 132 513 132 l 485 132 z "},"Ć":{"ha":833,"x_min":7,"x_max":688,"o":"m 485 1104 l 485 1104 q 442 1086 460 1104 q 424 1043 424 1068 l 424 1040 q 442 997 424 1015 q 485 979 460 979 l 488 979 q 531 997 513 979 q 549 1040 549 1015 l 549 1043 q 531 1086 549 1068 q 488 1104 513 1104 l 485 1104 m 346 965 l 346 965 q 303 947 321 965 q 285 904 285 929 l 285 901 q 303 858 285 876 q 346 840 321 840 l 349 840 q 392 858 374 840 q 410 901 410 876 l 410 904 q 392 947 410 929 q 349 965 374 965 l 346 965 m 207 826 l 207 826 q 164 808 182 826 q 146 765 146 790 l 146 763 q 164 719 146 738 q 207 701 182 701 l 210 701 q 253 719 235 701 q 271 763 271 738 l 271 765 q 253 808 271 790 q 210 826 235 826 l 207 826 m 346 826 l 346 826 q 303 808 321 826 q 285 765 285 790 l 285 763 q 303 719 285 738 q 346 701 321 701 l 349 701 q 392 719 374 701 q 410 763 410 738 l 410 765 q 392 808 410 790 q 349 826 374 826 l 346 826 m 485 826 l 485 826 q 442 808 460 826 q 424 765 424 790 l 424 763 q 442 719 424 738 q 485 701 460 701 l 488 701 q 531 719 513 701 q 549 763 549 738 l 549 765 q 531 808 549 790 q 488 826 513 826 l 485 826 m 68 688 l 68 688 q 25 669 43 688 q 7 626 7 651 l 7 624 q 25 581 7 599 q 68 563 43 563 l 71 563 q 114 581 96 563 q 132 624 132 599 l 132 626 q 114 669 132 651 q 71 688 96 688 l 68 688 m 624 688 l 624 688 q 581 669 599 688 q 563 626 563 651 l 563 624 q 581 581 563 599 q 624 563 599 563 l 626 563 q 669 581 651 563 q 688 624 688 599 l 688 626 q 669 669 688 651 q 626 688 651 688 l 624 688 m 68 549 l 68 549 q 25 531 43 549 q 7 488 7 513 l 7 485 q 25 442 7 460 q 68 424 43 424 l 71 424 q 114 442 96 424 q 132 485 132 460 l 132 488 q 114 531 132 513 q 71 549 96 549 l 68 549 m 68 410 l 68 410 q 25 392 43 410 q 7 349 7 374 l 7 346 q 25 303 7 321 q 68 285 43 285 l 71 285 q 114 303 96 285 q 132 346 132 321 l 132 349 q 114 392 132 374 q 71 410 96 410 l 68 410 m 68 271 l 68 271 q 25 253 43 271 q 7 210 7 235 l 7 207 q 25 164 7 182 q 68 146 43 146 l 71 146 q 114 164 96 146 q 132 207 132 182 l 132 210 q 114 253 132 235 q 71 271 96 271 l 68 271 m 624 271 l 624 271 q 581 253 599 271 q 563 210 563 235 l 563 207 q 581 164 563 182 q 624 146 599 146 l 626 146 q 669 164 651 146 q 688 207 688 182 l 688 210 q 669 253 688 235 q 626 271 651 271 l 624 271 m 207 132 l 207 132 q 164 114 182 132 q 146 71 146 96 l 146 68 q 164 25 146 43 q 207 7 182 7 l 210 7 q 253 25 235 7 q 271 68 271 43 l 271 71 q 253 114 271 96 q 210 132 235 132 l 207 132 m 346 132 l 346 132 q 303 114 321 132 q 285 71 285 96 l 285 68 q 303 25 285 43 q 346 7 321 7 l 349 7 q 392 25 374 7 q 410 68 410 43 l 410 71 q 392 114 410 96 q 349 132 374 132 l 346 132 m 485 132 l 485 132 q 442 114 460 132 q 424 71 424 96 l 424 68 q 442 25 424 43 q 485 7 460 7 l 488 7 q 531 25 513 7 q 549 68 549 43 l 549 71 q 531 114 549 96 q 488 132 513 132 l 485 132 z "},"Č":{"ha":833,"x_min":7,"x_max":688,"o":"m 207 1104 l 207 1104 q 164 1086 182 1104 q 146 1043 146 1068 l 146 1040 q 164 997 146 1015 q 207 979 182 979 l 210 979 q 253 997 235 979 q 271 1040 271 1015 l 271 1043 q 253 1086 271 1068 q 210 1104 235 1104 l 207 1104 m 485 1104 l 485 1104 q 442 1086 460 1104 q 424 1043 424 1068 l 424 1040 q 442 997 424 1015 q 485 979 460 979 l 488 979 q 531 997 513 979 q 549 1040 549 1015 l 549 1043 q 531 1086 549 1068 q 488 1104 513 1104 l 485 1104 m 346 965 l 346 965 q 303 947 321 965 q 285 904 285 929 l 285 901 q 303 858 285 876 q 346 840 321 840 l 349 840 q 392 858 374 840 q 410 901 410 876 l 410 904 q 392 947 410 929 q 349 965 374 965 l 346 965 m 207 826 l 207 826 q 164 808 182 826 q 146 765 146 790 l 146 763 q 164 719 146 738 q 207 701 182 701 l 210 701 q 253 719 235 701 q 271 763 271 738 l 271 765 q 253 808 271 790 q 210 826 235 826 l 207 826 m 346 826 l 346 826 q 303 808 321 826 q 285 765 285 790 l 285 763 q 303 719 285 738 q 346 701 321 701 l 349 701 q 392 719 374 701 q 410 763 410 738 l 410 765 q 392 808 410 790 q 349 826 374 826 l 346 826 m 485 826 l 485 826 q 442 808 460 826 q 424 765 424 790 l 424 763 q 442 719 424 738 q 485 701 460 701 l 488 701 q 531 719 513 701 q 549 763 549 738 l 549 765 q 531 808 549 790 q 488 826 513 826 l 485 826 m 68 688 l 68 688 q 25 669 43 688 q 7 626 7 651 l 7 624 q 25 581 7 599 q 68 563 43 563 l 71 563 q 114 581 96 563 q 132 624 132 599 l 132 626 q 114 669 132 651 q 71 688 96 688 l 68 688 m 624 688 l 624 688 q 581 669 599 688 q 563 626 563 651 l 563 624 q 581 581 563 599 q 624 563 599 563 l 626 563 q 669 581 651 563 q 688 624 688 599 l 688 626 q 669 669 688 651 q 626 688 651 688 l 624 688 m 68 549 l 68 549 q 25 531 43 549 q 7 488 7 513 l 7 485 q 25 442 7 460 q 68 424 43 424 l 71 424 q 114 442 96 424 q 132 485 132 460 l 132 488 q 114 531 132 513 q 71 549 96 549 l 68 549 m 68 410 l 68 410 q 25 392 43 410 q 7 349 7 374 l 7 346 q 25 303 7 321 q 68 285 43 285 l 71 285 q 114 303 96 285 q 132 346 132 321 l 132 349 q 114 392 132 374 q 71 410 96 410 l 68 410 m 68 271 l 68 271 q 25 253 43 271 q 7 210 7 235 l 7 207 q 25 164 7 182 q 68 146 43 146 l 71 146 q 114 164 96 146 q 132 207 132 182 l 132 210 q 114 253 132 235 q 71 271 96 271 l 68 271 m 624 271 l 624 271 q 581 253 599 271 q 563 210 563 235 l 563 207 q 581 164 563 182 q 624 146 599 146 l 626 146 q 669 164 651 146 q 688 207 688 182 l 688 210 q 669 253 688 235 q 626 271 651 271 l 624 271 m 207 132 l 207 132 q 164 114 182 132 q 146 71 146 96 l 146 68 q 164 25 146 43 q 207 7 182 7 l 210 7 q 253 25 235 7 q 271 68 271 43 l 271 71 q 253 114 271 96 q 210 132 235 132 l 207 132 m 346 132 l 346 132 q 303 114 321 132 q 285 71 285 96 l 285 68 q 303 25 285 43 q 346 7 321 7 l 349 7 q 392 25 374 7 q 410 68 410 43 l 410 71 q 392 114 410 96 q 349 132 374 132 l 346 132 m 485 132 l 485 132 q 442 114 460 132 q 424 71 424 96 l 424 68 q 442 25 424 43 q 485 7 460 7 l 488 7 q 531 25 513 7 q 549 68 549 43 l 549 71 q 531 114 549 96 q 488 132 513 132 l 485 132 z "},"Ç":{"ha":833,"x_min":7,"x_max":688,"o":"m 207 965 l 207 965 q 164 947 182 965 q 146 904 146 929 l 146 901 q 164 858 146 876 q 207 840 182 840 l 210 840 q 253 858 235 840 q 271 901 271 876 l 271 904 q 253 947 271 929 q 210 965 235 965 l 207 965 m 346 965 l 346 965 q 303 947 321 965 q 285 904 285 929 l 285 901 q 303 858 285 876 q 346 840 321 840 l 349 840 q 392 858 374 840 q 410 901 410 876 l 410 904 q 392 947 410 929 q 349 965 374 965 l 346 965 m 485 965 l 485 965 q 442 947 460 965 q 424 904 424 929 l 424 901 q 442 858 424 876 q 485 840 460 840 l 488 840 q 531 858 513 840 q 549 901 549 876 l 549 904 q 531 947 549 929 q 488 965 513 965 l 485 965 m 68 826 l 68 826 q 25 808 43 826 q 7 765 7 790 l 7 763 q 25 719 7 738 q 68 701 43 701 l 71 701 q 114 719 96 701 q 132 763 132 738 l 132 765 q 114 808 132 790 q 71 826 96 826 l 68 826 m 624 826 l 624 826 q 581 808 599 826 q 563 765 563 790 l 563 763 q 581 719 563 738 q 624 701 599 701 l 626 701 q 669 719 651 701 q 688 763 688 738 l 688 765 q 669 808 688 790 q 626 826 651 826 l 624 826 m 68 688 l 68 688 q 25 669 43 688 q 7 626 7 651 l 7 624 q 25 581 7 599 q 68 563 43 563 l 71 563 q 114 581 96 563 q 132 624 132 599 l 132 626 q 114 669 132 651 q 71 688 96 688 l 68 688 m 68 549 l 68 549 q 25 531 43 549 q 7 488 7 513 l 7 485 q 25 442 7 460 q 68 424 43 424 l 71 424 q 114 442 96 424 q 132 485 132 460 l 132 488 q 114 531 132 513 q 71 549 96 549 l 68 549 m 68 410 l 68 410 q 25 392 43 410 q 7 349 7 374 l 7 346 q 25 303 7 321 q 68 285 43 285 l 71 285 q 114 303 96 285 q 132 346 132 321 l 132 349 q 114 392 132 374 q 71 410 96 410 l 68 410 m 68 271 l 68 271 q 25 253 43 271 q 7 210 7 235 l 7 207 q 25 164 7 182 q 68 146 43 146 l 71 146 q 114 164 96 146 q 132 207 132 182 l 132 210 q 114 253 132 235 q 71 271 96 271 l 68 271 m 624 271 l 624 271 q 581 253 599 271 q 563 210 563 235 l 563 207 q 581 164 563 182 q 624 146 599 146 l 626 146 q 669 164 651 146 q 688 207 688 182 l 688 210 q 669 253 688 235 q 626 271 651 271 l 624 271 m 207 132 l 207 132 q 164 114 182 132 q 146 71 146 96 l 146 68 q 164 25 146 43 q 207 7 182 7 l 210 7 q 253 25 235 7 q 271 68 271 43 l 271 71 q 253 114 271 96 q 210 132 235 132 l 207 132 m 346 132 l 346 132 q 303 114 321 132 q 285 71 285 96 l 285 68 q 303 25 285 43 q 346 7 321 7 l 349 7 q 392 25 374 7 q 410 68 410 43 l 410 71 q 392 114 410 96 q 349 132 374 132 l 346 132 m 485 132 l 485 132 q 442 114 460 132 q 424 71 424 96 l 424 68 q 442 25 424 43 q 485 7 460 7 l 488 7 q 531 25 513 7 q 549 68 549 43 l 549 71 q 531 114 549 96 q 488 132 513 132 l 485 132 m 346 -7 l 346 -7 q 303 -25 321 -7 q 285 -68 285 -43 l 285 -71 q 303 -114 285 -96 q 346 -132 321 -132 l 349 -132 q 392 -114 374 -132 q 410 -71 410 -96 l 410 -68 q 392 -25 410 -43 q 349 -7 374 -7 l 346 -7 m 207 -146 l 207 -146 q 164 -164 182 -146 q 146 -207 146 -182 l 146 -210 q 164 -253 146 -235 q 207 -271 182 -271 l 210 -271 q 253 -253 235 -271 q 271 -210 271 -235 l 271 -207 q 253 -164 271 -182 q 210 -146 235 -146 l 207 -146 z "},"Ċ":{"ha":833,"x_min":7,"x_max":688,"o":"m 346 1104 l 346 1104 q 303 1086 321 1104 q 285 1043 285 1068 l 285 1040 q 303 997 285 1015 q 346 979 321 979 l 349 979 q 392 997 374 979 q 410 1040 410 1015 l 410 1043 q 392 1086 410 1068 q 349 1104 374 1104 l 346 1104 m 207 826 l 207 826 q 164 808 182 826 q 146 765 146 790 l 146 763 q 164 719 146 738 q 207 701 182 701 l 210 701 q 253 719 235 701 q 271 763 271 738 l 271 765 q 253 808 271 790 q 210 826 235 826 l 207 826 m 346 826 l 346 826 q 303 808 321 826 q 285 765 285 790 l 285 763 q 303 719 285 738 q 346 701 321 701 l 349 701 q 392 719 374 701 q 410 763 410 738 l 410 765 q 392 808 410 790 q 349 826 374 826 l 346 826 m 485 826 l 485 826 q 442 808 460 826 q 424 765 424 790 l 424 763 q 442 719 424 738 q 485 701 460 701 l 488 701 q 531 719 513 701 q 549 763 549 738 l 549 765 q 531 808 549 790 q 488 826 513 826 l 485 826 m 68 688 l 68 688 q 25 669 43 688 q 7 626 7 651 l 7 624 q 25 581 7 599 q 68 563 43 563 l 71 563 q 114 581 96 563 q 132 624 132 599 l 132 626 q 114 669 132 651 q 71 688 96 688 l 68 688 m 624 688 l 624 688 q 581 669 599 688 q 563 626 563 651 l 563 624 q 581 581 563 599 q 624 563 599 563 l 626 563 q 669 581 651 563 q 688 624 688 599 l 688 626 q 669 669 688 651 q 626 688 651 688 l 624 688 m 68 549 l 68 549 q 25 531 43 549 q 7 488 7 513 l 7 485 q 25 442 7 460 q 68 424 43 424 l 71 424 q 114 442 96 424 q 132 485 132 460 l 132 488 q 114 531 132 513 q 71 549 96 549 l 68 549 m 68 410 l 68 410 q 25 392 43 410 q 7 349 7 374 l 7 346 q 25 303 7 321 q 68 285 43 285 l 71 285 q 114 303 96 285 q 132 346 132 321 l 132 349 q 114 392 132 374 q 71 410 96 410 l 68 410 m 68 271 l 68 271 q 25 253 43 271 q 7 210 7 235 l 7 207 q 25 164 7 182 q 68 146 43 146 l 71 146 q 114 164 96 146 q 132 207 132 182 l 132 210 q 114 253 132 235 q 71 271 96 271 l 68 271 m 624 271 l 624 271 q 581 253 599 271 q 563 210 563 235 l 563 207 q 581 164 563 182 q 624 146 599 146 l 626 146 q 669 164 651 146 q 688 207 688 182 l 688 210 q 669 253 688 235 q 626 271 651 271 l 624 271 m 207 132 l 207 132 q 164 114 182 132 q 146 71 146 96 l 146 68 q 164 25 146 43 q 207 7 182 7 l 210 7 q 253 25 235 7 q 271 68 271 43 l 271 71 q 253 114 271 96 q 210 132 235 132 l 207 132 m 346 132 l 346 132 q 303 114 321 132 q 285 71 285 96 l 285 68 q 303 25 285 43 q 346 7 321 7 l 349 7 q 392 25 374 7 q 410 68 410 43 l 410 71 q 392 114 410 96 q 349 132 374 132 l 346 132 m 485 132 l 485 132 q 442 114 460 132 q 424 71 424 96 l 424 68 q 442 25 424 43 q 485 7 460 7 l 488 7 q 531 25 513 7 q 549 68 549 43 l 549 71 q 531 114 549 96 q 488 132 513 132 l 485 132 z "},"D":{"ha":833,"x_min":7,"x_max":688,"o":"m 68 965 l 68 965 q 25 947 43 965 q 7 904 7 929 l 7 901 q 25 858 7 876 q 68 840 43 840 l 71 840 q 114 858 96 840 q 132 901 132 876 l 132 904 q 114 947 132 929 q 71 965 96 965 l 68 965 m 207 965 l 207 965 q 164 947 182 965 q 146 904 146 929 l 146 901 q 164 858 146 876 q 207 840 182 840 l 210 840 q 253 858 235 840 q 271 901 271 876 l 271 904 q 253 947 271 929 q 210 965 235 965 l 207 965 m 346 965 l 346 965 q 303 947 321 965 q 285 904 285 929 l 285 901 q 303 858 285 876 q 346 840 321 840 l 349 840 q 392 858 374 840 q 410 901 410 876 l 410 904 q 392 947 410 929 q 349 965 374 965 l 346 965 m 485 965 l 485 965 q 442 947 460 965 q 424 904 424 929 l 424 901 q 442 858 424 876 q 485 840 460 840 l 488 840 q 531 858 513 840 q 549 901 549 876 l 549 904 q 531 947 549 929 q 488 965 513 965 l 485 965 m 207 826 l 207 826 q 164 808 182 826 q 146 765 146 790 l 146 763 q 164 719 146 738 q 207 701 182 701 l 210 701 q 253 719 235 701 q 271 763 271 738 l 271 765 q 253 808 271 790 q 210 826 235 826 l 207 826 m 624 826 l 624 826 q 581 808 599 826 q 563 765 563 790 l 563 763 q 581 719 563 738 q 624 701 599 701 l 626 701 q 669 719 651 701 q 688 763 688 738 l 688 765 q 669 808 688 790 q 626 826 651 826 l 624 826 m 207 688 l 207 688 q 164 669 182 688 q 146 626 146 651 l 146 624 q 164 581 146 599 q 207 563 182 563 l 210 563 q 253 581 235 563 q 271 624 271 599 l 271 626 q 253 669 271 651 q 210 688 235 688 l 207 688 m 624 688 l 624 688 q 581 669 599 688 q 563 626 563 651 l 563 624 q 581 581 563 599 q 624 563 599 563 l 626 563 q 669 581 651 563 q 688 624 688 599 l 688 626 q 669 669 688 651 q 626 688 651 688 l 624 688 m 207 549 l 207 549 q 164 531 182 549 q 146 488 146 513 l 146 485 q 164 442 146 460 q 207 424 182 424 l 210 424 q 253 442 235 424 q 271 485 271 460 l 271 488 q 253 531 271 513 q 210 549 235 549 l 207 549 m 624 549 l 624 549 q 581 531 599 549 q 563 488 563 513 l 563 485 q 581 442 563 460 q 624 424 599 424 l 626 424 q 669 442 651 424 q 688 485 688 460 l 688 488 q 669 531 688 513 q 626 549 651 549 l 624 549 m 207 410 l 207 410 q 164 392 182 410 q 146 349 146 374 l 146 346 q 164 303 146 321 q 207 285 182 285 l 210 285 q 253 303 235 285 q 271 346 271 321 l 271 349 q 253 392 271 374 q 210 410 235 410 l 207 410 m 624 410 l 624 410 q 581 392 599 410 q 563 349 563 374 l 563 346 q 581 303 563 321 q 624 285 599 285 l 626 285 q 669 303 651 285 q 688 346 688 321 l 688 349 q 669 392 688 374 q 626 410 651 410 l 624 410 m 207 271 l 207 271 q 164 253 182 271 q 146 210 146 235 l 146 207 q 164 164 146 182 q 207 146 182 146 l 210 146 q 253 164 235 146 q 271 207 271 182 l 271 210 q 253 253 271 235 q 210 271 235 271 l 207 271 m 624 271 l 624 271 q 581 253 599 271 q 563 210 563 235 l 563 207 q 581 164 563 182 q 624 146 599 146 l 626 146 q 669 164 651 146 q 688 207 688 182 l 688 210 q 669 253 688 235 q 626 271 651 271 l 624 271 m 68 132 l 68 132 q 25 114 43 132 q 7 71 7 96 l 7 68 q 25 25 7 43 q 68 7 43 7 l 71 7 q 114 25 96 7 q 132 68 132 43 l 132 71 q 114 114 132 96 q 71 132 96 132 l 68 132 m 207 132 l 207 132 q 164 114 182 132 q 146 71 146 96 l 146 68 q 164 25 146 43 q 207 7 182 7 l 210 7 q 253 25 235 7 q 271 68 271 43 l 271 71 q 253 114 271 96 q 210 132 235 132 l 207 132 m 346 132 l 346 132 q 303 114 321 132 q 285 71 285 96 l 285 68 q 303 25 285 43 q 346 7 321 7 l 349 7 q 392 25 374 7 q 410 68 410 43 l 410 71 q 392 114 410 96 q 349 132 374 132 l 346 132 m 485 132 l 485 132 q 442 114 460 132 q 424 71 424 96 l 424 68 q 442 25 424 43 q 485 7 460 7 l 488 7 q 531 25 513 7 q 549 68 549 43 l 549 71 q 531 114 549 96 q 488 132 513 132 l 485 132 z "},"Ď":{"ha":833,"x_min":7,"x_max":688,"o":"m 207 1104 l 207 1104 q 164 1086 182 1104 q 146 1043 146 1068 l 146 1040 q 164 997 146 1015 q 207 979 182 979 l 210 979 q 253 997 235 979 q 271 1040 271 1015 l 271 1043 q 253 1086 271 1068 q 210 1104 235 1104 l 207 1104 m 485 1104 l 485 1104 q 442 1086 460 1104 q 424 1043 424 1068 l 424 1040 q 442 997 424 1015 q 485 979 460 979 l 488 979 q 531 997 513 979 q 549 1040 549 1015 l 549 1043 q 531 1086 549 1068 q 488 1104 513 1104 l 485 1104 m 346 965 l 346 965 q 303 947 321 965 q 285 904 285 929 l 285 901 q 303 858 285 876 q 346 840 321 840 l 349 840 q 392 858 374 840 q 410 901 410 876 l 410 904 q 392 947 410 929 q 349 965 374 965 l 346 965 m 68 826 l 68 826 q 25 808 43 826 q 7 765 7 790 l 7 763 q 25 719 7 738 q 68 701 43 701 l 71 701 q 114 719 96 701 q 132 763 132 738 l 132 765 q 114 808 132 790 q 71 826 96 826 l 68 826 m 207 826 l 207 826 q 164 808 182 826 q 146 765 146 790 l 146 763 q 164 719 146 738 q 207 701 182 701 l 210 701 q 253 719 235 701 q 271 763 271 738 l 271 765 q 253 808 271 790 q 210 826 235 826 l 207 826 m 346 826 l 346 826 q 303 808 321 826 q 285 765 285 790 l 285 763 q 303 719 285 738 q 346 701 321 701 l 349 701 q 392 719 374 701 q 410 763 410 738 l 410 765 q 392 808 410 790 q 349 826 374 826 l 346 826 m 485 826 l 485 826 q 442 808 460 826 q 424 765 424 790 l 424 763 q 442 719 424 738 q 485 701 460 701 l 488 701 q 531 719 513 701 q 549 763 549 738 l 549 765 q 531 808 549 790 q 488 826 513 826 l 485 826 m 68 688 l 68 688 q 25 669 43 688 q 7 626 7 651 l 7 624 q 25 581 7 599 q 68 563 43 563 l 71 563 q 114 581 96 563 q 132 624 132 599 l 132 626 q 114 669 132 651 q 71 688 96 688 l 68 688 m 624 688 l 624 688 q 581 669 599 688 q 563 626 563 651 l 563 624 q 581 581 563 599 q 624 563 599 563 l 626 563 q 669 581 651 563 q 688 624 688 599 l 688 626 q 669 669 688 651 q 626 688 651 688 l 624 688 m 68 549 l 68 549 q 25 531 43 549 q 7 488 7 513 l 7 485 q 25 442 7 460 q 68 424 43 424 l 71 424 q 114 442 96 424 q 132 485 132 460 l 132 488 q 114 531 132 513 q 71 549 96 549 l 68 549 m 624 549 l 624 549 q 581 531 599 549 q 563 488 563 513 l 563 485 q 581 442 563 460 q 624 424 599 424 l 626 424 q 669 442 651 424 q 688 485 688 460 l 688 488 q 669 531 688 513 q 626 549 651 549 l 624 549 m 68 410 l 68 410 q 25 392 43 410 q 7 349 7 374 l 7 346 q 25 303 7 321 q 68 285 43 285 l 71 285 q 114 303 96 285 q 132 346 132 321 l 132 349 q 114 392 132 374 q 71 410 96 410 l 68 410 m 624 410 l 624 410 q 581 392 599 410 q 563 349 563 374 l 563 346 q 581 303 563 321 q 624 285 599 285 l 626 285 q 669 303 651 285 q 688 346 688 321 l 688 349 q 669 392 688 374 q 626 410 651 410 l 624 410 m 68 271 l 68 271 q 25 253 43 271 q 7 210 7 235 l 7 207 q 25 164 7 182 q 68 146 43 146 l 71 146 q 114 164 96 146 q 132 207 132 182 l 132 210 q 114 253 132 235 q 71 271 96 271 l 68 271 m 624 271 l 624 271 q 581 253 599 271 q 563 210 563 235 l 563 207 q 581 164 563 182 q 624 146 599 146 l 626 146 q 669 164 651 146 q 688 207 688 182 l 688 210 q 669 253 688 235 q 626 271 651 271 l 624 271 m 68 132 l 68 132 q 25 114 43 132 q 7 71 7 96 l 7 68 q 25 25 7 43 q 68 7 43 7 l 71 7 q 114 25 96 7 q 132 68 132 43 l 132 71 q 114 114 132 96 q 71 132 96 132 l 68 132 m 207 132 l 207 132 q 164 114 182 132 q 146 71 146 96 l 146 68 q 164 25 146 43 q 207 7 182 7 l 210 7 q 253 25 235 7 q 271 68 271 43 l 271 71 q 253 114 271 96 q 210 132 235 132 l 207 132 m 346 132 l 346 132 q 303 114 321 132 q 285 71 285 96 l 285 68 q 303 25 285 43 q 346 7 321 7 l 349 7 q 392 25 374 7 q 410 68 410 43 l 410 71 q 392 114 410 96 q 349 132 374 132 l 346 132 m 485 132 l 485 132 q 442 114 460 132 q 424 71 424 96 l 424 68 q 442 25 424 43 q 485 7 460 7 l 488 7 q 531 25 513 7 q 549 68 549 43 l 549 71 q 531 114 549 96 q 488 132 513 132 l 485 132 z "},"Đ":{"ha":833,"x_min":7,"x_max":688,"o":"m 207 965 l 207 965 q 164 947 182 965 q 146 904 146 929 l 146 901 q 164 858 146 876 q 207 840 182 840 l 210 840 q 253 858 235 840 q 271 901 271 876 l 271 904 q 253 947 271 929 q 210 965 235 965 l 207 965 m 346 965 l 346 965 q 303 947 321 965 q 285 904 285 929 l 285 901 q 303 858 285 876 q 346 840 321 840 l 349 840 q 392 858 374 840 q 410 901 410 876 l 410 904 q 392 947 410 929 q 349 965 374 965 l 346 965 m 485 965 l 485 965 q 442 947 460 965 q 424 904 424 929 l 424 901 q 442 858 424 876 q 485 840 460 840 l 488 840 q 531 858 513 840 q 549 901 549 876 l 549 904 q 531 947 549 929 q 488 965 513 965 l 485 965 m 207 826 l 207 826 q 164 808 182 826 q 146 765 146 790 l 146 763 q 164 719 146 738 q 207 701 182 701 l 210 701 q 253 719 235 701 q 271 763 271 738 l 271 765 q 253 808 271 790 q 210 826 235 826 l 207 826 m 624 826 l 624 826 q 581 808 599 826 q 563 765 563 790 l 563 763 q 581 719 563 738 q 624 701 599 701 l 626 701 q 669 719 651 701 q 688 763 688 738 l 688 765 q 669 808 688 790 q 626 826 651 826 l 624 826 m 207 688 l 207 688 q 164 669 182 688 q 146 626 146 651 l 146 624 q 164 581 146 599 q 207 563 182 563 l 210 563 q 253 581 235 563 q 271 624 271 599 l 271 626 q 253 669 271 651 q 210 688 235 688 l 207 688 m 624 688 l 624 688 q 581 669 599 688 q 563 626 563 651 l 563 624 q 581 581 563 599 q 624 563 599 563 l 626 563 q 669 581 651 563 q 688 624 688 599 l 688 626 q 669 669 688 651 q 626 688 651 688 l 624 688 m 68 549 l 68 549 q 25 531 43 549 q 7 488 7 513 l 7 485 q 25 442 7 460 q 68 424 43 424 l 71 424 q 114 442 96 424 q 132 485 132 460 l 132 488 q 114 531 132 513 q 71 549 96 549 l 68 549 m 207 549 l 207 549 q 164 531 182 549 q 146 488 146 513 l 146 485 q 164 442 146 460 q 207 424 182 424 l 210 424 q 253 442 235 424 q 271 485 271 460 l 271 488 q 253 531 271 513 q 210 549 235 549 l 207 549 m 346 549 l 346 549 q 303 531 321 549 q 285 488 285 513 l 285 485 q 303 442 285 460 q 346 424 321 424 l 349 424 q 392 442 374 424 q 410 485 410 460 l 410 488 q 392 531 410 513 q 349 549 374 549 l 346 549 m 624 549 l 624 549 q 581 531 599 549 q 563 488 563 513 l 563 485 q 581 442 563 460 q 624 424 599 424 l 626 424 q 669 442 651 424 q 688 485 688 460 l 688 488 q 669 531 688 513 q 626 549 651 549 l 624 549 m 207 410 l 207 410 q 164 392 182 410 q 146 349 146 374 l 146 346 q 164 303 146 321 q 207 285 182 285 l 210 285 q 253 303 235 285 q 271 346 271 321 l 271 349 q 253 392 271 374 q 210 410 235 410 l 207 410 m 624 410 l 624 410 q 581 392 599 410 q 563 349 563 374 l 563 346 q 581 303 563 321 q 624 285 599 285 l 626 285 q 669 303 651 285 q 688 346 688 321 l 688 349 q 669 392 688 374 q 626 410 651 410 l 624 410 m 207 271 l 207 271 q 164 253 182 271 q 146 210 146 235 l 146 207 q 164 164 146 182 q 207 146 182 146 l 210 146 q 253 164 235 146 q 271 207 271 182 l 271 210 q 253 253 271 235 q 210 271 235 271 l 207 271 m 624 271 l 624 271 q 581 253 599 271 q 563 210 563 235 l 563 207 q 581 164 563 182 q 624 146 599 146 l 626 146 q 669 164 651 146 q 688 207 688 182 l 688 210 q 669 253 688 235 q 626 271 651 271 l 624 271 m 207 132 l 207 132 q 164 114 182 132 q 146 71 146 96 l 146 68 q 164 25 146 43 q 207 7 182 7 l 210 7 q 253 25 235 7 q 271 68 271 43 l 271 71 q 253 114 271 96 q 210 132 235 132 l 207 132 m 346 132 l 346 132 q 303 114 321 132 q 285 71 285 96 l 285 68 q 303 25 285 43 q 346 7 321 7 l 349 7 q 392 25 374 7 q 410 68 410 43 l 410 71 q 392 114 410 96 q 349 132 374 132 l 346 132 m 485 132 l 485 132 q 442 114 460 132 q 424 71 424 96 l 424 68 q 442 25 424 43 q 485 7 460 7 l 488 7 q 531 25 513 7 q 549 68 549 43 l 549 71 q 531 114 549 96 q 488 132 513 132 l 485 132 z "},"E":{"ha":833,"x_min":7,"x_max":688,"o":"m 68 965 l 68 965 q 25 947 43 965 q 7 904 7 929 l 7 901 q 25 858 7 876 q 68 840 43 840 l 71 840 q 114 858 96 840 q 132 901 132 876 l 132 904 q 114 947 132 929 q 71 965 96 965 l 68 965 m 207 965 l 207 965 q 164 947 182 965 q 146 904 146 929 l 146 901 q 164 858 146 876 q 207 840 182 840 l 210 840 q 253 858 235 840 q 271 901 271 876 l 271 904 q 253 947 271 929 q 210 965 235 965 l 207 965 m 346 965 l 346 965 q 303 947 321 965 q 285 904 285 929 l 285 901 q 303 858 285 876 q 346 840 321 840 l 349 840 q 392 858 374 840 q 410 901 410 876 l 410 904 q 392 947 410 929 q 349 965 374 965 l 346 965 m 485 965 l 485 965 q 442 947 460 965 q 424 904 424 929 l 424 901 q 442 858 424 876 q 485 840 460 840 l 488 840 q 531 858 513 840 q 549 901 549 876 l 549 904 q 531 947 549 929 q 488 965 513 965 l 485 965 m 624 965 l 624 965 q 581 947 599 965 q 563 904 563 929 l 563 901 q 581 858 563 876 q 624 840 599 840 l 626 840 q 669 858 651 840 q 688 901 688 876 l 688 904 q 669 947 688 929 q 626 965 651 965 l 624 965 m 68 826 l 68 826 q 25 808 43 826 q 7 765 7 790 l 7 763 q 25 719 7 738 q 68 701 43 701 l 71 701 q 114 719 96 701 q 132 763 132 738 l 132 765 q 114 808 132 790 q 71 826 96 826 l 68 826 m 68 688 l 68 688 q 25 669 43 688 q 7 626 7 651 l 7 624 q 25 581 7 599 q 68 563 43 563 l 71 563 q 114 581 96 563 q 132 624 132 599 l 132 626 q 114 669 132 651 q 71 688 96 688 l 68 688 m 68 549 l 68 549 q 25 531 43 549 q 7 488 7 513 l 7 485 q 25 442 7 460 q 68 424 43 424 l 71 424 q 114 442 96 424 q 132 485 132 460 l 132 488 q 114 531 132 513 q 71 549 96 549 l 68 549 m 207 549 l 207 549 q 164 531 182 549 q 146 488 146 513 l 146 485 q 164 442 146 460 q 207 424 182 424 l 210 424 q 253 442 235 424 q 271 485 271 460 l 271 488 q 253 531 271 513 q 210 549 235 549 l 207 549 m 346 549 l 346 549 q 303 531 321 549 q 285 488 285 513 l 285 485 q 303 442 285 460 q 346 424 321 424 l 349 424 q 392 442 374 424 q 410 485 410 460 l 410 488 q 392 531 410 513 q 349 549 374 549 l 346 549 m 485 549 l 485 549 q 442 531 460 549 q 424 488 424 513 l 424 485 q 442 442 424 460 q 485 424 460 424 l 488 424 q 531 442 513 424 q 549 485 549 460 l 549 488 q 531 531 549 513 q 488 549 513 549 l 485 549 m 68 410 l 68 410 q 25 392 43 410 q 7 349 7 374 l 7 346 q 25 303 7 321 q 68 285 43 285 l 71 285 q 114 303 96 285 q 132 346 132 321 l 132 349 q 114 392 132 374 q 71 410 96 410 l 68 410 m 68 271 l 68 271 q 25 253 43 271 q 7 210 7 235 l 7 207 q 25 164 7 182 q 68 146 43 146 l 71 146 q 114 164 96 146 q 132 207 132 182 l 132 210 q 114 253 132 235 q 71 271 96 271 l 68 271 m 68 132 l 68 132 q 25 114 43 132 q 7 71 7 96 l 7 68 q 25 25 7 43 q 68 7 43 7 l 71 7 q 114 25 96 7 q 132 68 132 43 l 132 71 q 114 114 132 96 q 71 132 96 132 l 68 132 m 207 132 l 207 132 q 164 114 182 132 q 146 71 146 96 l 146 68 q 164 25 146 43 q 207 7 182 7 l 210 7 q 253 25 235 7 q 271 68 271 43 l 271 71 q 253 114 271 96 q 210 132 235 132 l 207 132 m 346 132 l 346 132 q 303 114 321 132 q 285 71 285 96 l 285 68 q 303 25 285 43 q 346 7 321 7 l 349 7 q 392 25 374 7 q 410 68 410 43 l 410 71 q 392 114 410 96 q 349 132 374 132 l 346 132 m 485 132 l 485 132 q 442 114 460 132 q 424 71 424 96 l 424 68 q 442 25 424 43 q 485 7 460 7 l 488 7 q 531 25 513 7 q 549 68 549 43 l 549 71 q 531 114 549 96 q 488 132 513 132 l 485 132 m 624 132 l 624 132 q 581 114 599 132 q 563 71 563 96 l 563 68 q 581 25 563 43 q 624 7 599 7 l 626 7 q 669 25 651 7 q 688 68 688 43 l 688 71 q 669 114 688 96 q 626 132 651 132 l 624 132 z "},"É":{"ha":833,"x_min":7,"x_max":688,"o":"m 485 1104 l 485 1104 q 442 1086 460 1104 q 424 1043 424 1068 l 424 1040 q 442 997 424 1015 q 485 979 460 979 l 488 979 q 531 997 513 979 q 549 1040 549 1015 l 549 1043 q 531 1086 549 1068 q 488 1104 513 1104 l 485 1104 m 68 965 l 68 965 q 25 947 43 965 q 7 904 7 929 l 7 901 q 25 858 7 876 q 68 840 43 840 l 71 840 q 114 858 96 840 q 132 901 132 876 l 132 904 q 114 947 132 929 q 71 965 96 965 l 68 965 m 207 965 l 207 965 q 164 947 182 965 q 146 904 146 929 l 146 901 q 164 858 146 876 q 207 840 182 840 l 210 840 q 253 858 235 840 q 271 901 271 876 l 271 904 q 253 947 271 929 q 210 965 235 965 l 207 965 m 346 965 l 346 965 q 303 947 321 965 q 285 904 285 929 l 285 901 q 303 858 285 876 q 346 840 321 840 l 349 840 q 392 858 374 840 q 410 901 410 876 l 410 904 q 392 947 410 929 q 349 965 374 965 l 346 965 m 485 965 l 485 965 q 442 947 460 965 q 424 904 424 929 l 424 901 q 442 858 424 876 q 485 840 460 840 l 488 840 q 531 858 513 840 q 549 901 549 876 l 549 904 q 531 947 549 929 q 488 965 513 965 l 485 965 m 624 965 l 624 965 q 581 947 599 965 q 563 904 563 929 l 563 901 q 581 858 563 876 q 624 840 599 840 l 626 840 q 669 858 651 840 q 688 901 688 876 l 688 904 q 669 947 688 929 q 626 965 651 965 l 624 965 m 68 826 l 68 826 q 25 808 43 826 q 7 765 7 790 l 7 763 q 25 719 7 738 q 68 701 43 701 l 71 701 q 114 719 96 701 q 132 763 132 738 l 132 765 q 114 808 132 790 q 71 826 96 826 l 68 826 m 68 688 l 68 688 q 25 669 43 688 q 7 626 7 651 l 7 624 q 25 581 7 599 q 68 563 43 563 l 71 563 q 114 581 96 563 q 132 624 132 599 l 132 626 q 114 669 132 651 q 71 688 96 688 l 68 688 m 68 549 l 68 549 q 25 531 43 549 q 7 488 7 513 l 7 485 q 25 442 7 460 q 68 424 43 424 l 71 424 q 114 442 96 424 q 132 485 132 460 l 132 488 q 114 531 132 513 q 71 549 96 549 l 68 549 m 207 549 l 207 549 q 164 531 182 549 q 146 488 146 513 l 146 485 q 164 442 146 460 q 207 424 182 424 l 210 424 q 253 442 235 424 q 271 485 271 460 l 271 488 q 253 531 271 513 q 210 549 235 549 l 207 549 m 346 549 l 346 549 q 303 531 321 549 q 285 488 285 513 l 285 485 q 303 442 285 460 q 346 424 321 424 l 349 424 q 392 442 374 424 q 410 485 410 460 l 410 488 q 392 531 410 513 q 349 549 374 549 l 346 549 m 485 549 l 485 549 q 442 531 460 549 q 424 488 424 513 l 424 485 q 442 442 424 460 q 485 424 460 424 l 488 424 q 531 442 513 424 q 549 485 549 460 l 549 488 q 531 531 549 513 q 488 549 513 549 l 485 549 m 68 410 l 68 410 q 25 392 43 410 q 7 349 7 374 l 7 346 q 25 303 7 321 q 68 285 43 285 l 71 285 q 114 303 96 285 q 132 346 132 321 l 132 349 q 114 392 132 374 q 71 410 96 410 l 68 410 m 68 271 l 68 271 q 25 253 43 271 q 7 210 7 235 l 7 207 q 25 164 7 182 q 68 146 43 146 l 71 146 q 114 164 96 146 q 132 207 132 182 l 132 210 q 114 253 132 235 q 71 271 96 271 l 68 271 m 68 132 l 68 132 q 25 114 43 132 q 7 71 7 96 l 7 68 q 25 25 7 43 q 68 7 43 7 l 71 7 q 114 25 96 7 q 132 68 132 43 l 132 71 q 114 114 132 96 q 71 132 96 132 l 68 132 m 207 132 l 207 132 q 164 114 182 132 q 146 71 146 96 l 146 68 q 164 25 146 43 q 207 7 182 7 l 210 7 q 253 25 235 7 q 271 68 271 43 l 271 71 q 253 114 271 96 q 210 132 235 132 l 207 132 m 346 132 l 346 132 q 303 114 321 132 q 285 71 285 96 l 285 68 q 303 25 285 43 q 346 7 321 7 l 349 7 q 392 25 374 7 q 410 68 410 43 l 410 71 q 392 114 410 96 q 349 132 374 132 l 346 132 m 485 132 l 485 132 q 442 114 460 132 q 424 71 424 96 l 424 68 q 442 25 424 43 q 485 7 460 7 l 488 7 q 531 25 513 7 q 549 68 549 43 l 549 71 q 531 114 549 96 q 488 132 513 132 l 485 132 m 624 132 l 624 132 q 581 114 599 132 q 563 71 563 96 l 563 68 q 581 25 563 43 q 624 7 599 7 l 626 7 q 669 25 651 7 q 688 68 688 43 l 688 71 q 669 114 688 96 q 626 132 651 132 l 624 132 z "},"Ě":{"ha":833,"x_min":7,"x_max":688,"o":"m 207 1104 l 207 1104 q 164 1086 182 1104 q 146 1043 146 1068 l 146 1040 q 164 997 146 1015 q 207 979 182 979 l 210 979 q 253 997 235 979 q 271 1040 271 1015 l 271 1043 q 253 1086 271 1068 q 210 1104 235 1104 l 207 1104 m 485 1104 l 485 1104 q 442 1086 460 1104 q 424 1043 424 1068 l 424 1040 q 442 997 424 1015 q 485 979 460 979 l 488 979 q 531 997 513 979 q 549 1040 549 1015 l 549 1043 q 531 1086 549 1068 q 488 1104 513 1104 l 485 1104 m 346 965 l 346 965 q 303 947 321 965 q 285 904 285 929 l 285 901 q 303 858 285 876 q 346 840 321 840 l 349 840 q 392 858 374 840 q 410 901 410 876 l 410 904 q 392 947 410 929 q 349 965 374 965 l 346 965 m 68 826 l 68 826 q 25 808 43 826 q 7 765 7 790 l 7 763 q 25 719 7 738 q 68 701 43 701 l 71 701 q 114 719 96 701 q 132 763 132 738 l 132 765 q 114 808 132 790 q 71 826 96 826 l 68 826 m 207 826 l 207 826 q 164 808 182 826 q 146 765 146 790 l 146 763 q 164 719 146 738 q 207 701 182 701 l 210 701 q 253 719 235 701 q 271 763 271 738 l 271 765 q 253 808 271 790 q 210 826 235 826 l 207 826 m 346 826 l 346 826 q 303 808 321 826 q 285 765 285 790 l 285 763 q 303 719 285 738 q 346 701 321 701 l 349 701 q 392 719 374 701 q 410 763 410 738 l 410 765 q 392 808 410 790 q 349 826 374 826 l 346 826 m 485 826 l 485 826 q 442 808 460 826 q 424 765 424 790 l 424 763 q 442 719 424 738 q 485 701 460 701 l 488 701 q 531 719 513 701 q 549 763 549 738 l 549 765 q 531 808 549 790 q 488 826 513 826 l 485 826 m 624 826 l 624 826 q 581 808 599 826 q 563 765 563 790 l 563 763 q 581 719 563 738 q 624 701 599 701 l 626 701 q 669 719 651 701 q 688 763 688 738 l 688 765 q 669 808 688 790 q 626 826 651 826 l 624 826 m 68 688 l 68 688 q 25 669 43 688 q 7 626 7 651 l 7 624 q 25 581 7 599 q 68 563 43 563 l 71 563 q 114 581 96 563 q 132 624 132 599 l 132 626 q 114 669 132 651 q 71 688 96 688 l 68 688 m 68 549 l 68 549 q 25 531 43 549 q 7 488 7 513 l 7 485 q 25 442 7 460 q 68 424 43 424 l 71 424 q 114 442 96 424 q 132 485 132 460 l 132 488 q 114 531 132 513 q 71 549 96 549 l 68 549 m 207 549 l 207 549 q 164 531 182 549 q 146 488 146 513 l 146 485 q 164 442 146 460 q 207 424 182 424 l 210 424 q 253 442 235 424 q 271 485 271 460 l 271 488 q 253 531 271 513 q 210 549 235 549 l 207 549 m 346 549 l 346 549 q 303 531 321 549 q 285 488 285 513 l 285 485 q 303 442 285 460 q 346 424 321 424 l 349 424 q 392 442 374 424 q 410 485 410 460 l 410 488 q 392 531 410 513 q 349 549 374 549 l 346 549 m 485 549 l 485 549 q 442 531 460 549 q 424 488 424 513 l 424 485 q 442 442 424 460 q 485 424 460 424 l 488 424 q 531 442 513 424 q 549 485 549 460 l 549 488 q 531 531 549 513 q 488 549 513 549 l 485 549 m 68 410 l 68 410 q 25 392 43 410 q 7 349 7 374 l 7 346 q 25 303 7 321 q 68 285 43 285 l 71 285 q 114 303 96 285 q 132 346 132 321 l 132 349 q 114 392 132 374 q 71 410 96 410 l 68 410 m 68 271 l 68 271 q 25 253 43 271 q 7 210 7 235 l 7 207 q 25 164 7 182 q 68 146 43 146 l 71 146 q 114 164 96 146 q 132 207 132 182 l 132 210 q 114 253 132 235 q 71 271 96 271 l 68 271 m 68 132 l 68 132 q 25 114 43 132 q 7 71 7 96 l 7 68 q 25 25 7 43 q 68 7 43 7 l 71 7 q 114 25 96 7 q 132 68 132 43 l 132 71 q 114 114 132 96 q 71 132 96 132 l 68 132 m 207 132 l 207 132 q 164 114 182 132 q 146 71 146 96 l 146 68 q 164 25 146 43 q 207 7 182 7 l 210 7 q 253 25 235 7 q 271 68 271 43 l 271 71 q 253 114 271 96 q 210 132 235 132 l 207 132 m 346 132 l 346 132 q 303 114 321 132 q 285 71 285 96 l 285 68 q 303 25 285 43 q 346 7 321 7 l 349 7 q 392 25 374 7 q 410 68 410 43 l 410 71 q 392 114 410 96 q 349 132 374 132 l 346 132 m 485 132 l 485 132 q 442 114 460 132 q 424 71 424 96 l 424 68 q 442 25 424 43 q 485 7 460 7 l 488 7 q 531 25 513 7 q 549 68 549 43 l 549 71 q 531 114 549 96 q 488 132 513 132 l 485 132 m 624 132 l 624 132 q 581 114 599 132 q 563 71 563 96 l 563 68 q 581 25 563 43 q 624 7 599 7 l 626 7 q 669 25 651 7 q 688 68 688 43 l 688 71 q 669 114 688 96 q 626 132 651 132 l 624 132 z "},"Ê":{"ha":833,"x_min":7,"x_max":688,"o":"m 346 1104 l 346 1104 q 303 1086 321 1104 q 285 1043 285 1068 l 285 1040 q 303 997 285 1015 q 346 979 321 979 l 349 979 q 392 997 374 979 q 410 1040 410 1015 l 410 1043 q 392 1086 410 1068 q 349 1104 374 1104 l 346 1104 m 68 965 l 68 965 q 25 947 43 965 q 7 904 7 929 l 7 901 q 25 858 7 876 q 68 840 43 840 l 71 840 q 114 858 96 840 q 132 901 132 876 l 132 904 q 114 947 132 929 q 71 965 96 965 l 68 965 m 207 965 l 207 965 q 164 947 182 965 q 146 904 146 929 l 146 901 q 164 858 146 876 q 207 840 182 840 l 210 840 q 253 858 235 840 q 271 901 271 876 l 271 904 q 253 947 271 929 q 210 965 235 965 l 207 965 m 346 965 l 346 965 q 303 947 321 965 q 285 904 285 929 l 285 901 q 303 858 285 876 q 346 840 321 840 l 349 840 q 392 858 374 840 q 410 901 410 876 l 410 904 q 392 947 410 929 q 349 965 374 965 l 346 965 m 485 965 l 485 965 q 442 947 460 965 q 424 904 424 929 l 424 901 q 442 858 424 876 q 485 840 460 840 l 488 840 q 531 858 513 840 q 549 901 549 876 l 549 904 q 531 947 549 929 q 488 965 513 965 l 485 965 m 624 965 l 624 965 q 581 947 599 965 q 563 904 563 929 l 563 901 q 581 858 563 876 q 624 840 599 840 l 626 840 q 669 858 651 840 q 688 901 688 876 l 688 904 q 669 947 688 929 q 626 965 651 965 l 624 965 m 68 826 l 68 826 q 25 808 43 826 q 7 765 7 790 l 7 763 q 25 719 7 738 q 68 701 43 701 l 71 701 q 114 719 96 701 q 132 763 132 738 l 132 765 q 114 808 132 790 q 71 826 96 826 l 68 826 m 68 688 l 68 688 q 25 669 43 688 q 7 626 7 651 l 7 624 q 25 581 7 599 q 68 563 43 563 l 71 563 q 114 581 96 563 q 132 624 132 599 l 132 626 q 114 669 132 651 q 71 688 96 688 l 68 688 m 68 549 l 68 549 q 25 531 43 549 q 7 488 7 513 l 7 485 q 25 442 7 460 q 68 424 43 424 l 71 424 q 114 442 96 424 q 132 485 132 460 l 132 488 q 114 531 132 513 q 71 549 96 549 l 68 549 m 207 549 l 207 549 q 164 531 182 549 q 146 488 146 513 l 146 485 q 164 442 146 460 q 207 424 182 424 l 210 424 q 253 442 235 424 q 271 485 271 460 l 271 488 q 253 531 271 513 q 210 549 235 549 l 207 549 m 346 549 l 346 549 q 303 531 321 549 q 285 488 285 513 l 285 485 q 303 442 285 460 q 346 424 321 424 l 349 424 q 392 442 374 424 q 410 485 410 460 l 410 488 q 392 531 410 513 q 349 549 374 549 l 346 549 m 485 549 l 485 549 q 442 531 460 549 q 424 488 424 513 l 424 485 q 442 442 424 460 q 485 424 460 424 l 488 424 q 531 442 513 424 q 549 485 549 460 l 549 488 q 531 531 549 513 q 488 549 513 549 l 485 549 m 68 410 l 68 410 q 25 392 43 410 q 7 349 7 374 l 7 346 q 25 303 7 321 q 68 285 43 285 l 71 285 q 114 303 96 285 q 132 346 132 321 l 132 349 q 114 392 132 374 q 71 410 96 410 l 68 410 m 68 271 l 68 271 q 25 253 43 271 q 7 210 7 235 l 7 207 q 25 164 7 182 q 68 146 43 146 l 71 146 q 114 164 96 146 q 132 207 132 182 l 132 210 q 114 253 132 235 q 71 271 96 271 l 68 271 m 68 132 l 68 132 q 25 114 43 132 q 7 71 7 96 l 7 68 q 25 25 7 43 q 68 7 43 7 l 71 7 q 114 25 96 7 q 132 68 132 43 l 132 71 q 114 114 132 96 q 71 132 96 132 l 68 132 m 207 132 l 207 132 q 164 114 182 132 q 146 71 146 96 l 146 68 q 164 25 146 43 q 207 7 182 7 l 210 7 q 253 25 235 7 q 271 68 271 43 l 271 71 q 253 114 271 96 q 210 132 235 132 l 207 132 m 346 132 l 346 132 q 303 114 321 132 q 285 71 285 96 l 285 68 q 303 25 285 43 q 346 7 321 7 l 349 7 q 392 25 374 7 q 410 68 410 43 l 410 71 q 392 114 410 96 q 349 132 374 132 l 346 132 m 485 132 l 485 132 q 442 114 460 132 q 424 71 424 96 l 424 68 q 442 25 424 43 q 485 7 460 7 l 488 7 q 531 25 513 7 q 549 68 549 43 l 549 71 q 531 114 549 96 q 488 132 513 132 l 485 132 m 624 132 l 624 132 q 581 114 599 132 q 563 71 563 96 l 563 68 q 581 25 563 43 q 624 7 599 7 l 626 7 q 669 25 651 7 q 688 68 688 43 l 688 71 q 669 114 688 96 q 626 132 651 132 l 624 132 z "},"Ë":{"ha":833,"x_min":7,"x_max":688,"o":"m 207 1104 l 207 1104 q 164 1086 182 1104 q 146 1043 146 1068 l 146 1040 q 164 997 146 1015 q 207 979 182 979 l 210 979 q 253 997 235 979 q 271 1040 271 1015 l 271 1043 q 253 1086 271 1068 q 210 1104 235 1104 l 207 1104 m 485 1104 l 485 1104 q 442 1086 460 1104 q 424 1043 424 1068 l 424 1040 q 442 997 424 1015 q 485 979 460 979 l 488 979 q 531 997 513 979 q 549 1040 549 1015 l 549 1043 q 531 1086 549 1068 q 488 1104 513 1104 l 485 1104 m 68 965 l 68 965 q 25 947 43 965 q 7 904 7 929 l 7 901 q 25 858 7 876 q 68 840 43 840 l 71 840 q 114 858 96 840 q 132 901 132 876 l 132 904 q 114 947 132 929 q 71 965 96 965 l 68 965 m 207 965 l 207 965 q 164 947 182 965 q 146 904 146 929 l 146 901 q 164 858 146 876 q 207 840 182 840 l 210 840 q 253 858 235 840 q 271 901 271 876 l 271 904 q 253 947 271 929 q 210 965 235 965 l 207 965 m 346 965 l 346 965 q 303 947 321 965 q 285 904 285 929 l 285 901 q 303 858 285 876 q 346 840 321 840 l 349 840 q 392 858 374 840 q 410 901 410 876 l 410 904 q 392 947 410 929 q 349 965 374 965 l 346 965 m 485 965 l 485 965 q 442 947 460 965 q 424 904 424 929 l 424 901 q 442 858 424 876 q 485 840 460 840 l 488 840 q 531 858 513 840 q 549 901 549 876 l 549 904 q 531 947 549 929 q 488 965 513 965 l 485 965 m 624 965 l 624 965 q 581 947 599 965 q 563 904 563 929 l 563 901 q 581 858 563 876 q 624 840 599 840 l 626 840 q 669 858 651 840 q 688 901 688 876 l 688 904 q 669 947 688 929 q 626 965 651 965 l 624 965 m 68 826 l 68 826 q 25 808 43 826 q 7 765 7 790 l 7 763 q 25 719 7 738 q 68 701 43 701 l 71 701 q 114 719 96 701 q 132 763 132 738 l 132 765 q 114 808 132 790 q 71 826 96 826 l 68 826 m 68 688 l 68 688 q 25 669 43 688 q 7 626 7 651 l 7 624 q 25 581 7 599 q 68 563 43 563 l 71 563 q 114 581 96 563 q 132 624 132 599 l 132 626 q 114 669 132 651 q 71 688 96 688 l 68 688 m 68 549 l 68 549 q 25 531 43 549 q 7 488 7 513 l 7 485 q 25 442 7 460 q 68 424 43 424 l 71 424 q 114 442 96 424 q 132 485 132 460 l 132 488 q 114 531 132 513 q 71 549 96 549 l 68 549 m 207 549 l 207 549 q 164 531 182 549 q 146 488 146 513 l 146 485 q 164 442 146 460 q 207 424 182 424 l 210 424 q 253 442 235 424 q 271 485 271 460 l 271 488 q 253 531 271 513 q 210 549 235 549 l 207 549 m 346 549 l 346 549 q 303 531 321 549 q 285 488 285 513 l 285 485 q 303 442 285 460 q 346 424 321 424 l 349 424 q 392 442 374 424 q 410 485 410 460 l 410 488 q 392 531 410 513 q 349 549 374 549 l 346 549 m 485 549 l 485 549 q 442 531 460 549 q 424 488 424 513 l 424 485 q 442 442 424 460 q 485 424 460 424 l 488 424 q 531 442 513 424 q 549 485 549 460 l 549 488 q 531 531 549 513 q 488 549 513 549 l 485 549 m 68 410 l 68 410 q 25 392 43 410 q 7 349 7 374 l 7 346 q 25 303 7 321 q 68 285 43 285 l 71 285 q 114 303 96 285 q 132 346 132 321 l 132 349 q 114 392 132 374 q 71 410 96 410 l 68 410 m 68 271 l 68 271 q 25 253 43 271 q 7 210 7 235 l 7 207 q 25 164 7 182 q 68 146 43 146 l 71 146 q 114 164 96 146 q 132 207 132 182 l 132 210 q 114 253 132 235 q 71 271 96 271 l 68 271 m 68 132 l 68 132 q 25 114 43 132 q 7 71 7 96 l 7 68 q 25 25 7 43 q 68 7 43 7 l 71 7 q 114 25 96 7 q 132 68 132 43 l 132 71 q 114 114 132 96 q 71 132 96 132 l 68 132 m 207 132 l 207 132 q 164 114 182 132 q 146 71 146 96 l 146 68 q 164 25 146 43 q 207 7 182 7 l 210 7 q 253 25 235 7 q 271 68 271 43 l 271 71 q 253 114 271 96 q 210 132 235 132 l 207 132 m 346 132 l 346 132 q 303 114 321 132 q 285 71 285 96 l 285 68 q 303 25 285 43 q 346 7 321 7 l 349 7 q 392 25 374 7 q 410 68 410 43 l 410 71 q 392 114 410 96 q 349 132 374 132 l 346 132 m 485 132 l 485 132 q 442 114 460 132 q 424 71 424 96 l 424 68 q 442 25 424 43 q 485 7 460 7 l 488 7 q 531 25 513 7 q 549 68 549 43 l 549 71 q 531 114 549 96 q 488 132 513 132 l 485 132 m 624 132 l 624 132 q 581 114 599 132 q 563 71 563 96 l 563 68 q 581 25 563 43 q 624 7 599 7 l 626 7 q 669 25 651 7 q 688 68 688 43 l 688 71 q 669 114 688 96 q 626 132 651 132 l 624 132 z "},"Ė":{"ha":833,"x_min":7,"x_max":688,"o":"m 346 1104 l 346 1104 q 303 1086 321 1104 q 285 1043 285 1068 l 285 1040 q 303 997 285 1015 q 346 979 321 979 l 349 979 q 392 997 374 979 q 410 1040 410 1015 l 410 1043 q 392 1086 410 1068 q 349 1104 374 1104 l 346 1104 m 68 826 l 68 826 q 25 808 43 826 q 7 765 7 790 l 7 763 q 25 719 7 738 q 68 701 43 701 l 71 701 q 114 719 96 701 q 132 763 132 738 l 132 765 q 114 808 132 790 q 71 826 96 826 l 68 826 m 207 826 l 207 826 q 164 808 182 826 q 146 765 146 790 l 146 763 q 164 719 146 738 q 207 701 182 701 l 210 701 q 253 719 235 701 q 271 763 271 738 l 271 765 q 253 808 271 790 q 210 826 235 826 l 207 826 m 346 826 l 346 826 q 303 808 321 826 q 285 765 285 790 l 285 763 q 303 719 285 738 q 346 701 321 701 l 349 701 q 392 719 374 701 q 410 763 410 738 l 410 765 q 392 808 410 790 q 349 826 374 826 l 346 826 m 485 826 l 485 826 q 442 808 460 826 q 424 765 424 790 l 424 763 q 442 719 424 738 q 485 701 460 701 l 488 701 q 531 719 513 701 q 549 763 549 738 l 549 765 q 531 808 549 790 q 488 826 513 826 l 485 826 m 624 826 l 624 826 q 581 808 599 826 q 563 765 563 790 l 563 763 q 581 719 563 738 q 624 701 599 701 l 626 701 q 669 719 651 701 q 688 763 688 738 l 688 765 q 669 808 688 790 q 626 826 651 826 l 624 826 m 68 688 l 68 688 q 25 669 43 688 q 7 626 7 651 l 7 624 q 25 581 7 599 q 68 563 43 563 l 71 563 q 114 581 96 563 q 132 624 132 599 l 132 626 q 114 669 132 651 q 71 688 96 688 l 68 688 m 68 549 l 68 549 q 25 531 43 549 q 7 488 7 513 l 7 485 q 25 442 7 460 q 68 424 43 424 l 71 424 q 114 442 96 424 q 132 485 132 460 l 132 488 q 114 531 132 513 q 71 549 96 549 l 68 549 m 207 549 l 207 549 q 164 531 182 549 q 146 488 146 513 l 146 485 q 164 442 146 460 q 207 424 182 424 l 210 424 q 253 442 235 424 q 271 485 271 460 l 271 488 q 253 531 271 513 q 210 549 235 549 l 207 549 m 346 549 l 346 549 q 303 531 321 549 q 285 488 285 513 l 285 485 q 303 442 285 460 q 346 424 321 424 l 349 424 q 392 442 374 424 q 410 485 410 460 l 410 488 q 392 531 410 513 q 349 549 374 549 l 346 549 m 485 549 l 485 549 q 442 531 460 549 q 424 488 424 513 l 424 485 q 442 442 424 460 q 485 424 460 424 l 488 424 q 531 442 513 424 q 549 485 549 460 l 549 488 q 531 531 549 513 q 488 549 513 549 l 485 549 m 68 410 l 68 410 q 25 392 43 410 q 7 349 7 374 l 7 346 q 25 303 7 321 q 68 285 43 285 l 71 285 q 114 303 96 285 q 132 346 132 321 l 132 349 q 114 392 132 374 q 71 410 96 410 l 68 410 m 68 271 l 68 271 q 25 253 43 271 q 7 210 7 235 l 7 207 q 25 164 7 182 q 68 146 43 146 l 71 146 q 114 164 96 146 q 132 207 132 182 l 132 210 q 114 253 132 235 q 71 271 96 271 l 68 271 m 68 132 l 68 132 q 25 114 43 132 q 7 71 7 96 l 7 68 q 25 25 7 43 q 68 7 43 7 l 71 7 q 114 25 96 7 q 132 68 132 43 l 132 71 q 114 114 132 96 q 71 132 96 132 l 68 132 m 207 132 l 207 132 q 164 114 182 132 q 146 71 146 96 l 146 68 q 164 25 146 43 q 207 7 182 7 l 210 7 q 253 25 235 7 q 271 68 271 43 l 271 71 q 253 114 271 96 q 210 132 235 132 l 207 132 m 346 132 l 346 132 q 303 114 321 132 q 285 71 285 96 l 285 68 q 303 25 285 43 q 346 7 321 7 l 349 7 q 392 25 374 7 q 410 68 410 43 l 410 71 q 392 114 410 96 q 349 132 374 132 l 346 132 m 485 132 l 485 132 q 442 114 460 132 q 424 71 424 96 l 424 68 q 442 25 424 43 q 485 7 460 7 l 488 7 q 531 25 513 7 q 549 68 549 43 l 549 71 q 531 114 549 96 q 488 132 513 132 l 485 132 m 624 132 l 624 132 q 581 114 599 132 q 563 71 563 96 l 563 68 q 581 25 563 43 q 624 7 599 7 l 626 7 q 669 25 651 7 q 688 68 688 43 l 688 71 q 669 114 688 96 q 626 132 651 132 l 624 132 z "},"È":{"ha":833,"x_min":7,"x_max":688,"o":"m 207 1104 l 207 1104 q 164 1086 182 1104 q 146 1043 146 1068 l 146 1040 q 164 997 146 1015 q 207 979 182 979 l 210 979 q 253 997 235 979 q 271 1040 271 1015 l 271 1043 q 253 1086 271 1068 q 210 1104 235 1104 l 207 1104 m 68 965 l 68 965 q 25 947 43 965 q 7 904 7 929 l 7 901 q 25 858 7 876 q 68 840 43 840 l 71 840 q 114 858 96 840 q 132 901 132 876 l 132 904 q 114 947 132 929 q 71 965 96 965 l 68 965 m 207 965 l 207 965 q 164 947 182 965 q 146 904 146 929 l 146 901 q 164 858 146 876 q 207 840 182 840 l 210 840 q 253 858 235 840 q 271 901 271 876 l 271 904 q 253 947 271 929 q 210 965 235 965 l 207 965 m 346 965 l 346 965 q 303 947 321 965 q 285 904 285 929 l 285 901 q 303 858 285 876 q 346 840 321 840 l 349 840 q 392 858 374 840 q 410 901 410 876 l 410 904 q 392 947 410 929 q 349 965 374 965 l 346 965 m 485 965 l 485 965 q 442 947 460 965 q 424 904 424 929 l 424 901 q 442 858 424 876 q 485 840 460 840 l 488 840 q 531 858 513 840 q 549 901 549 876 l 549 904 q 531 947 549 929 q 488 965 513 965 l 485 965 m 624 965 l 624 965 q 581 947 599 965 q 563 904 563 929 l 563 901 q 581 858 563 876 q 624 840 599 840 l 626 840 q 669 858 651 840 q 688 901 688 876 l 688 904 q 669 947 688 929 q 626 965 651 965 l 624 965 m 68 826 l 68 826 q 25 808 43 826 q 7 765 7 790 l 7 763 q 25 719 7 738 q 68 701 43 701 l 71 701 q 114 719 96 701 q 132 763 132 738 l 132 765 q 114 808 132 790 q 71 826 96 826 l 68 826 m 68 688 l 68 688 q 25 669 43 688 q 7 626 7 651 l 7 624 q 25 581 7 599 q 68 563 43 563 l 71 563 q 114 581 96 563 q 132 624 132 599 l 132 626 q 114 669 132 651 q 71 688 96 688 l 68 688 m 68 549 l 68 549 q 25 531 43 549 q 7 488 7 513 l 7 485 q 25 442 7 460 q 68 424 43 424 l 71 424 q 114 442 96 424 q 132 485 132 460 l 132 488 q 114 531 132 513 q 71 549 96 549 l 68 549 m 207 549 l 207 549 q 164 531 182 549 q 146 488 146 513 l 146 485 q 164 442 146 460 q 207 424 182 424 l 210 424 q 253 442 235 424 q 271 485 271 460 l 271 488 q 253 531 271 513 q 210 549 235 549 l 207 549 m 346 549 l 346 549 q 303 531 321 549 q 285 488 285 513 l 285 485 q 303 442 285 460 q 346 424 321 424 l 349 424 q 392 442 374 424 q 410 485 410 460 l 410 488 q 392 531 410 513 q 349 549 374 549 l 346 549 m 485 549 l 485 549 q 442 531 460 549 q 424 488 424 513 l 424 485 q 442 442 424 460 q 485 424 460 424 l 488 424 q 531 442 513 424 q 549 485 549 460 l 549 488 q 531 531 549 513 q 488 549 513 549 l 485 549 m 68 410 l 68 410 q 25 392 43 410 q 7 349 7 374 l 7 346 q 25 303 7 321 q 68 285 43 285 l 71 285 q 114 303 96 285 q 132 346 132 321 l 132 349 q 114 392 132 374 q 71 410 96 410 l 68 410 m 68 271 l 68 271 q 25 253 43 271 q 7 210 7 235 l 7 207 q 25 164 7 182 q 68 146 43 146 l 71 146 q 114 164 96 146 q 132 207 132 182 l 132 210 q 114 253 132 235 q 71 271 96 271 l 68 271 m 68 132 l 68 132 q 25 114 43 132 q 7 71 7 96 l 7 68 q 25 25 7 43 q 68 7 43 7 l 71 7 q 114 25 96 7 q 132 68 132 43 l 132 71 q 114 114 132 96 q 71 132 96 132 l 68 132 m 207 132 l 207 132 q 164 114 182 132 q 146 71 146 96 l 146 68 q 164 25 146 43 q 207 7 182 7 l 210 7 q 253 25 235 7 q 271 68 271 43 l 271 71 q 253 114 271 96 q 210 132 235 132 l 207 132 m 346 132 l 346 132 q 303 114 321 132 q 285 71 285 96 l 285 68 q 303 25 285 43 q 346 7 321 7 l 349 7 q 392 25 374 7 q 410 68 410 43 l 410 71 q 392 114 410 96 q 349 132 374 132 l 346 132 m 485 132 l 485 132 q 442 114 460 132 q 424 71 424 96 l 424 68 q 442 25 424 43 q 485 7 460 7 l 488 7 q 531 25 513 7 q 549 68 549 43 l 549 71 q 531 114 549 96 q 488 132 513 132 l 485 132 m 624 132 l 624 132 q 581 114 599 132 q 563 71 563 96 l 563 68 q 581 25 563 43 q 624 7 599 7 l 626 7 q 669 25 651 7 q 688 68 688 43 l 688 71 q 669 114 688 96 q 626 132 651 132 l 624 132 z "},"Ē":{"ha":833,"x_min":7,"x_max":688,"o":"m 207 1104 l 207 1104 q 164 1086 182 1104 q 146 1043 146 1068 l 146 1040 q 164 997 146 1015 q 207 979 182 979 l 210 979 q 253 997 235 979 q 271 1040 271 1015 l 271 1043 q 253 1086 271 1068 q 210 1104 235 1104 l 207 1104 m 346 1104 l 346 1104 q 303 1086 321 1104 q 285 1043 285 1068 l 285 1040 q 303 997 285 1015 q 346 979 321 979 l 349 979 q 392 997 374 979 q 410 1040 410 1015 l 410 1043 q 392 1086 410 1068 q 349 1104 374 1104 l 346 1104 m 485 1104 l 485 1104 q 442 1086 460 1104 q 424 1043 424 1068 l 424 1040 q 442 997 424 1015 q 485 979 460 979 l 488 979 q 531 997 513 979 q 549 1040 549 1015 l 549 1043 q 531 1086 549 1068 q 488 1104 513 1104 l 485 1104 m 68 826 l 68 826 q 25 808 43 826 q 7 765 7 790 l 7 763 q 25 719 7 738 q 68 701 43 701 l 71 701 q 114 719 96 701 q 132 763 132 738 l 132 765 q 114 808 132 790 q 71 826 96 826 l 68 826 m 207 826 l 207 826 q 164 808 182 826 q 146 765 146 790 l 146 763 q 164 719 146 738 q 207 701 182 701 l 210 701 q 253 719 235 701 q 271 763 271 738 l 271 765 q 253 808 271 790 q 210 826 235 826 l 207 826 m 346 826 l 346 826 q 303 808 321 826 q 285 765 285 790 l 285 763 q 303 719 285 738 q 346 701 321 701 l 349 701 q 392 719 374 701 q 410 763 410 738 l 410 765 q 392 808 410 790 q 349 826 374 826 l 346 826 m 485 826 l 485 826 q 442 808 460 826 q 424 765 424 790 l 424 763 q 442 719 424 738 q 485 701 460 701 l 488 701 q 531 719 513 701 q 549 763 549 738 l 549 765 q 531 808 549 790 q 488 826 513 826 l 485 826 m 624 826 l 624 826 q 581 808 599 826 q 563 765 563 790 l 563 763 q 581 719 563 738 q 624 701 599 701 l 626 701 q 669 719 651 701 q 688 763 688 738 l 688 765 q 669 808 688 790 q 626 826 651 826 l 624 826 m 68 688 l 68 688 q 25 669 43 688 q 7 626 7 651 l 7 624 q 25 581 7 599 q 68 563 43 563 l 71 563 q 114 581 96 563 q 132 624 132 599 l 132 626 q 114 669 132 651 q 71 688 96 688 l 68 688 m 68 549 l 68 549 q 25 531 43 549 q 7 488 7 513 l 7 485 q 25 442 7 460 q 68 424 43 424 l 71 424 q 114 442 96 424 q 132 485 132 460 l 132 488 q 114 531 132 513 q 71 549 96 549 l 68 549 m 207 549 l 207 549 q 164 531 182 549 q 146 488 146 513 l 146 485 q 164 442 146 460 q 207 424 182 424 l 210 424 q 253 442 235 424 q 271 485 271 460 l 271 488 q 253 531 271 513 q 210 549 235 549 l 207 549 m 346 549 l 346 549 q 303 531 321 549 q 285 488 285 513 l 285 485 q 303 442 285 460 q 346 424 321 424 l 349 424 q 392 442 374 424 q 410 485 410 460 l 410 488 q 392 531 410 513 q 349 549 374 549 l 346 549 m 485 549 l 485 549 q 442 531 460 549 q 424 488 424 513 l 424 485 q 442 442 424 460 q 485 424 460 424 l 488 424 q 531 442 513 424 q 549 485 549 460 l 549 488 q 531 531 549 513 q 488 549 513 549 l 485 549 m 68 410 l 68 410 q 25 392 43 410 q 7 349 7 374 l 7 346 q 25 303 7 321 q 68 285 43 285 l 71 285 q 114 303 96 285 q 132 346 132 321 l 132 349 q 114 392 132 374 q 71 410 96 410 l 68 410 m 68 271 l 68 271 q 25 253 43 271 q 7 210 7 235 l 7 207 q 25 164 7 182 q 68 146 43 146 l 71 146 q 114 164 96 146 q 132 207 132 182 l 132 210 q 114 253 132 235 q 71 271 96 271 l 68 271 m 68 132 l 68 132 q 25 114 43 132 q 7 71 7 96 l 7 68 q 25 25 7 43 q 68 7 43 7 l 71 7 q 114 25 96 7 q 132 68 132 43 l 132 71 q 114 114 132 96 q 71 132 96 132 l 68 132 m 207 132 l 207 132 q 164 114 182 132 q 146 71 146 96 l 146 68 q 164 25 146 43 q 207 7 182 7 l 210 7 q 253 25 235 7 q 271 68 271 43 l 271 71 q 253 114 271 96 q 210 132 235 132 l 207 132 m 346 132 l 346 132 q 303 114 321 132 q 285 71 285 96 l 285 68 q 303 25 285 43 q 346 7 321 7 l 349 7 q 392 25 374 7 q 410 68 410 43 l 410 71 q 392 114 410 96 q 349 132 374 132 l 346 132 m 485 132 l 485 132 q 442 114 460 132 q 424 71 424 96 l 424 68 q 442 25 424 43 q 485 7 460 7 l 488 7 q 531 25 513 7 q 549 68 549 43 l 549 71 q 531 114 549 96 q 488 132 513 132 l 485 132 m 624 132 l 624 132 q 581 114 599 132 q 563 71 563 96 l 563 68 q 581 25 563 43 q 624 7 599 7 l 626 7 q 669 25 651 7 q 688 68 688 43 l 688 71 q 669 114 688 96 q 626 132 651 132 l 624 132 z "},"Ę":{"ha":833,"x_min":7,"x_max":688,"o":"m 68 965 l 68 965 q 25 947 43 965 q 7 904 7 929 l 7 901 q 25 858 7 876 q 68 840 43 840 l 71 840 q 114 858 96 840 q 132 901 132 876 l 132 904 q 114 947 132 929 q 71 965 96 965 l 68 965 m 207 965 l 207 965 q 164 947 182 965 q 146 904 146 929 l 146 901 q 164 858 146 876 q 207 840 182 840 l 210 840 q 253 858 235 840 q 271 901 271 876 l 271 904 q 253 947 271 929 q 210 965 235 965 l 207 965 m 346 965 l 346 965 q 303 947 321 965 q 285 904 285 929 l 285 901 q 303 858 285 876 q 346 840 321 840 l 349 840 q 392 858 374 840 q 410 901 410 876 l 410 904 q 392 947 410 929 q 349 965 374 965 l 346 965 m 485 965 l 485 965 q 442 947 460 965 q 424 904 424 929 l 424 901 q 442 858 424 876 q 485 840 460 840 l 488 840 q 531 858 513 840 q 549 901 549 876 l 549 904 q 531 947 549 929 q 488 965 513 965 l 485 965 m 624 965 l 624 965 q 581 947 599 965 q 563 904 563 929 l 563 901 q 581 858 563 876 q 624 840 599 840 l 626 840 q 669 858 651 840 q 688 901 688 876 l 688 904 q 669 947 688 929 q 626 965 651 965 l 624 965 m 68 826 l 68 826 q 25 808 43 826 q 7 765 7 790 l 7 763 q 25 719 7 738 q 68 701 43 701 l 71 701 q 114 719 96 701 q 132 763 132 738 l 132 765 q 114 808 132 790 q 71 826 96 826 l 68 826 m 68 688 l 68 688 q 25 669 43 688 q 7 626 7 651 l 7 624 q 25 581 7 599 q 68 563 43 563 l 71 563 q 114 581 96 563 q 132 624 132 599 l 132 626 q 114 669 132 651 q 71 688 96 688 l 68 688 m 68 549 l 68 549 q 25 531 43 549 q 7 488 7 513 l 7 485 q 25 442 7 460 q 68 424 43 424 l 71 424 q 114 442 96 424 q 132 485 132 460 l 132 488 q 114 531 132 513 q 71 549 96 549 l 68 549 m 207 549 l 207 549 q 164 531 182 549 q 146 488 146 513 l 146 485 q 164 442 146 460 q 207 424 182 424 l 210 424 q 253 442 235 424 q 271 485 271 460 l 271 488 q 253 531 271 513 q 210 549 235 549 l 207 549 m 346 549 l 346 549 q 303 531 321 549 q 285 488 285 513 l 285 485 q 303 442 285 460 q 346 424 321 424 l 349 424 q 392 442 374 424 q 410 485 410 460 l 410 488 q 392 531 410 513 q 349 549 374 549 l 346 549 m 485 549 l 485 549 q 442 531 460 549 q 424 488 424 513 l 424 485 q 442 442 424 460 q 485 424 460 424 l 488 424 q 531 442 513 424 q 549 485 549 460 l 549 488 q 531 531 549 513 q 488 549 513 549 l 485 549 m 68 410 l 68 410 q 25 392 43 410 q 7 349 7 374 l 7 346 q 25 303 7 321 q 68 285 43 285 l 71 285 q 114 303 96 285 q 132 346 132 321 l 132 349 q 114 392 132 374 q 71 410 96 410 l 68 410 m 68 271 l 68 271 q 25 253 43 271 q 7 210 7 235 l 7 207 q 25 164 7 182 q 68 146 43 146 l 71 146 q 114 164 96 146 q 132 207 132 182 l 132 210 q 114 253 132 235 q 71 271 96 271 l 68 271 m 68 132 l 68 132 q 25 114 43 132 q 7 71 7 96 l 7 68 q 25 25 7 43 q 68 7 43 7 l 71 7 q 114 25 96 7 q 132 68 132 43 l 132 71 q 114 114 132 96 q 71 132 96 132 l 68 132 m 207 132 l 207 132 q 164 114 182 132 q 146 71 146 96 l 146 68 q 164 25 146 43 q 207 7 182 7 l 210 7 q 253 25 235 7 q 271 68 271 43 l 271 71 q 253 114 271 96 q 210 132 235 132 l 207 132 m 346 132 l 346 132 q 303 114 321 132 q 285 71 285 96 l 285 68 q 303 25 285 43 q 346 7 321 7 l 349 7 q 392 25 374 7 q 410 68 410 43 l 410 71 q 392 114 410 96 q 349 132 374 132 l 346 132 m 485 132 l 485 132 q 442 114 460 132 q 424 71 424 96 l 424 68 q 442 25 424 43 q 485 7 460 7 l 488 7 q 531 25 513 7 q 549 68 549 43 l 549 71 q 531 114 549 96 q 488 132 513 132 l 485 132 m 624 132 l 624 132 q 581 114 599 132 q 563 71 563 96 l 563 68 q 581 25 563 43 q 624 7 599 7 l 626 7 q 669 25 651 7 q 688 68 688 43 l 688 71 q 669 114 688 96 q 626 132 651 132 l 624 132 m 346 -7 l 346 -7 q 303 -25 321 -7 q 285 -68 285 -43 l 285 -71 q 303 -114 285 -96 q 346 -132 321 -132 l 349 -132 q 392 -114 374 -132 q 410 -71 410 -96 l 410 -68 q 392 -25 410 -43 q 349 -7 374 -7 l 346 -7 m 346 -146 l 346 -146 q 303 -164 321 -146 q 285 -207 285 -182 l 285 -210 q 303 -253 285 -235 q 346 -271 321 -271 l 349 -271 q 392 -253 374 -271 q 410 -210 410 -235 l 410 -207 q 392 -164 410 -182 q 349 -146 374 -146 l 346 -146 m 485 -146 l 485 -146 q 442 -164 460 -146 q 424 -207 424 -182 l 424 -210 q 442 -253 424 -235 q 485 -271 460 -271 l 488 -271 q 531 -253 513 -271 q 549 -210 549 -235 l 549 -207 q 531 -164 549 -182 q 488 -146 513 -146 l 485 -146 z "},"Ð":{"ha":833,"x_min":7,"x_max":688,"o":"m 68 965 l 68 965 q 25 947 43 965 q 7 904 7 929 l 7 901 q 25 858 7 876 q 68 840 43 840 l 71 840 q 114 858 96 840 q 132 901 132 876 l 132 904 q 114 947 132 929 q 71 965 96 965 l 68 965 m 207 965 l 207 965 q 164 947 182 965 q 146 904 146 929 l 146 901 q 164 858 146 876 q 207 840 182 840 l 210 840 q 253 858 235 840 q 271 901 271 876 l 271 904 q 253 947 271 929 q 210 965 235 965 l 207 965 m 346 965 l 346 965 q 303 947 321 965 q 285 904 285 929 l 285 901 q 303 858 285 876 q 346 840 321 840 l 349 840 q 392 858 374 840 q 410 901 410 876 l 410 904 q 392 947 410 929 q 349 965 374 965 l 346 965 m 485 965 l 485 965 q 442 947 460 965 q 424 904 424 929 l 424 901 q 442 858 424 876 q 485 840 460 840 l 488 840 q 531 858 513 840 q 549 901 549 876 l 549 904 q 531 947 549 929 q 488 965 513 965 l 485 965 m 207 826 l 207 826 q 164 808 182 826 q 146 765 146 790 l 146 763 q 164 719 146 738 q 207 701 182 701 l 210 701 q 253 719 235 701 q 271 763 271 738 l 271 765 q 253 808 271 790 q 210 826 235 826 l 207 826 m 624 826 l 624 826 q 581 808 599 826 q 563 765 563 790 l 563 763 q 581 719 563 738 q 624 701 599 701 l 626 701 q 669 719 651 701 q 688 763 688 738 l 688 765 q 669 808 688 790 q 626 826 651 826 l 624 826 m 207 688 l 207 688 q 164 669 182 688 q 146 626 146 651 l 146 624 q 164 581 146 599 q 207 563 182 563 l 210 563 q 253 581 235 563 q 271 624 271 599 l 271 626 q 253 669 271 651 q 210 688 235 688 l 207 688 m 624 688 l 624 688 q 581 669 599 688 q 563 626 563 651 l 563 624 q 581 581 563 599 q 624 563 599 563 l 626 563 q 669 581 651 563 q 688 624 688 599 l 688 626 q 669 669 688 651 q 626 688 651 688 l 624 688 m 68 549 l 68 549 q 25 531 43 549 q 7 488 7 513 l 7 485 q 25 442 7 460 q 68 424 43 424 l 71 424 q 114 442 96 424 q 132 485 132 460 l 132 488 q 114 531 132 513 q 71 549 96 549 l 68 549 m 207 549 l 207 549 q 164 531 182 549 q 146 488 146 513 l 146 485 q 164 442 146 460 q 207 424 182 424 l 210 424 q 253 442 235 424 q 271 485 271 460 l 271 488 q 253 531 271 513 q 210 549 235 549 l 207 549 m 346 549 l 346 549 q 303 531 321 549 q 285 488 285 513 l 285 485 q 303 442 285 460 q 346 424 321 424 l 349 424 q 392 442 374 424 q 410 485 410 460 l 410 488 q 392 531 410 513 q 349 549 374 549 l 346 549 m 624 549 l 624 549 q 581 531 599 549 q 563 488 563 513 l 563 485 q 581 442 563 460 q 624 424 599 424 l 626 424 q 669 442 651 424 q 688 485 688 460 l 688 488 q 669 531 688 513 q 626 549 651 549 l 624 549 m 207 410 l 207 410 q 164 392 182 410 q 146 349 146 374 l 146 346 q 164 303 146 321 q 207 285 182 285 l 210 285 q 253 303 235 285 q 271 346 271 321 l 271 349 q 253 392 271 374 q 210 410 235 410 l 207 410 m 624 410 l 624 410 q 581 392 599 410 q 563 349 563 374 l 563 346 q 581 303 563 321 q 624 285 599 285 l 626 285 q 669 303 651 285 q 688 346 688 321 l 688 349 q 669 392 688 374 q 626 410 651 410 l 624 410 m 207 271 l 207 271 q 164 253 182 271 q 146 210 146 235 l 146 207 q 164 164 146 182 q 207 146 182 146 l 210 146 q 253 164 235 146 q 271 207 271 182 l 271 210 q 253 253 271 235 q 210 271 235 271 l 207 271 m 624 271 l 624 271 q 581 253 599 271 q 563 210 563 235 l 563 207 q 581 164 563 182 q 624 146 599 146 l 626 146 q 669 164 651 146 q 688 207 688 182 l 688 210 q 669 253 688 235 q 626 271 651 271 l 624 271 m 68 132 l 68 132 q 25 114 43 132 q 7 71 7 96 l 7 68 q 25 25 7 43 q 68 7 43 7 l 71 7 q 114 25 96 7 q 132 68 132 43 l 132 71 q 114 114 132 96 q 71 132 96 132 l 68 132 m 207 132 l 207 132 q 164 114 182 132 q 146 71 146 96 l 146 68 q 164 25 146 43 q 207 7 182 7 l 210 7 q 253 25 235 7 q 271 68 271 43 l 271 71 q 253 114 271 96 q 210 132 235 132 l 207 132 m 346 132 l 346 132 q 303 114 321 132 q 285 71 285 96 l 285 68 q 303 25 285 43 q 346 7 321 7 l 349 7 q 392 25 374 7 q 410 68 410 43 l 410 71 q 392 114 410 96 q 349 132 374 132 l 346 132 m 485 132 l 485 132 q 442 114 460 132 q 424 71 424 96 l 424 68 q 442 25 424 43 q 485 7 460 7 l 488 7 q 531 25 513 7 q 549 68 549 43 l 549 71 q 531 114 549 96 q 488 132 513 132 l 485 132 z "},"€":{"ha":833,"x_min":7,"x_max":688,"o":"m 346 965 l 346 965 q 303 947 321 965 q 285 904 285 929 l 285 901 q 303 858 285 876 q 346 840 321 840 l 349 840 q 392 858 374 840 q 410 901 410 876 l 410 904 q 392 947 410 929 q 349 965 374 965 l 346 965 m 485 965 l 485 965 q 442 947 460 965 q 424 904 424 929 l 424 901 q 442 858 424 876 q 485 840 460 840 l 488 840 q 531 858 513 840 q 549 901 549 876 l 549 904 q 531 947 549 929 q 488 965 513 965 l 485 965 m 207 826 l 207 826 q 164 808 182 826 q 146 765 146 790 l 146 763 q 164 719 146 738 q 207 701 182 701 l 210 701 q 253 719 235 701 q 271 763 271 738 l 271 765 q 253 808 271 790 q 210 826 235 826 l 207 826 m 624 826 l 624 826 q 581 808 599 826 q 563 765 563 790 l 563 763 q 581 719 563 738 q 624 701 599 701 l 626 701 q 669 719 651 701 q 688 763 688 738 l 688 765 q 669 808 688 790 q 626 826 651 826 l 624 826 m 68 688 l 68 688 q 25 669 43 688 q 7 626 7 651 l 7 624 q 25 581 7 599 q 68 563 43 563 l 71 563 q 114 581 96 563 q 132 624 132 599 l 132 626 q 114 669 132 651 q 71 688 96 688 l 68 688 m 207 688 l 207 688 q 164 669 182 688 q 146 626 146 651 l 146 624 q 164 581 146 599 q 207 563 182 563 l 210 563 q 253 581 235 563 q 271 624 271 599 l 271 626 q 253 669 271 651 q 210 688 235 688 l 207 688 m 346 688 l 346 688 q 303 669 321 688 q 285 626 285 651 l 285 624 q 303 581 285 599 q 346 563 321 563 l 349 563 q 392 581 374 563 q 410 624 410 599 l 410 626 q 392 669 410 651 q 349 688 374 688 l 346 688 m 207 549 l 207 549 q 164 531 182 549 q 146 488 146 513 l 146 485 q 164 442 146 460 q 207 424 182 424 l 210 424 q 253 442 235 424 q 271 485 271 460 l 271 488 q 253 531 271 513 q 210 549 235 549 l 207 549 m 68 410 l 68 410 q 25 392 43 410 q 7 349 7 374 l 7 346 q 25 303 7 321 q 68 285 43 285 l 71 285 q 114 303 96 285 q 132 346 132 321 l 132 349 q 114 392 132 374 q 71 410 96 410 l 68 410 m 207 410 l 207 410 q 164 392 182 410 q 146 349 146 374 l 146 346 q 164 303 146 321 q 207 285 182 285 l 210 285 q 253 303 235 285 q 271 346 271 321 l 271 349 q 253 392 271 374 q 210 410 235 410 l 207 410 m 346 410 l 346 410 q 303 392 321 410 q 285 349 285 374 l 285 346 q 303 303 285 321 q 346 285 321 285 l 349 285 q 392 303 374 285 q 410 346 410 321 l 410 349 q 392 392 410 374 q 349 410 374 410 l 346 410 m 207 271 l 207 271 q 164 253 182 271 q 146 210 146 235 l 146 207 q 164 164 146 182 q 207 146 182 146 l 210 146 q 253 164 235 146 q 271 207 271 182 l 271 210 q 253 253 271 235 q 210 271 235 271 l 207 271 m 624 271 l 624 271 q 581 253 599 271 q 563 210 563 235 l 563 207 q 581 164 563 182 q 624 146 599 146 l 626 146 q 669 164 651 146 q 688 207 688 182 l 688 210 q 669 253 688 235 q 626 271 651 271 l 624 271 m 346 132 l 346 132 q 303 114 321 132 q 285 71 285 96 l 285 68 q 303 25 285 43 q 346 7 321 7 l 349 7 q 392 25 374 7 q 410 68 410 43 l 410 71 q 392 114 410 96 q 349 132 374 132 l 346 132 m 485 132 l 485 132 q 442 114 460 132 q 424 71 424 96 l 424 68 q 442 25 424 43 q 485 7 460 7 l 488 7 q 531 25 513 7 q 549 68 549 43 l 549 71 q 531 114 549 96 q 488 132 513 132 l 485 132 z "},"F":{"ha":833,"x_min":7,"x_max":688,"o":"m 68 965 l 68 965 q 25 947 43 965 q 7 904 7 929 l 7 901 q 25 858 7 876 q 68 840 43 840 l 71 840 q 114 858 96 840 q 132 901 132 876 l 132 904 q 114 947 132 929 q 71 965 96 965 l 68 965 m 207 965 l 207 965 q 164 947 182 965 q 146 904 146 929 l 146 901 q 164 858 146 876 q 207 840 182 840 l 210 840 q 253 858 235 840 q 271 901 271 876 l 271 904 q 253 947 271 929 q 210 965 235 965 l 207 965 m 346 965 l 346 965 q 303 947 321 965 q 285 904 285 929 l 285 901 q 303 858 285 876 q 346 840 321 840 l 349 840 q 392 858 374 840 q 410 901 410 876 l 410 904 q 392 947 410 929 q 349 965 374 965 l 346 965 m 485 965 l 485 965 q 442 947 460 965 q 424 904 424 929 l 424 901 q 442 858 424 876 q 485 840 460 840 l 488 840 q 531 858 513 840 q 549 901 549 876 l 549 904 q 531 947 549 929 q 488 965 513 965 l 485 965 m 624 965 l 624 965 q 581 947 599 965 q 563 904 563 929 l 563 901 q 581 858 563 876 q 624 840 599 840 l 626 840 q 669 858 651 840 q 688 901 688 876 l 688 904 q 669 947 688 929 q 626 965 651 965 l 624 965 m 68 826 l 68 826 q 25 808 43 826 q 7 765 7 790 l 7 763 q 25 719 7 738 q 68 701 43 701 l 71 701 q 114 719 96 701 q 132 763 132 738 l 132 765 q 114 808 132 790 q 71 826 96 826 l 68 826 m 68 688 l 68 688 q 25 669 43 688 q 7 626 7 651 l 7 624 q 25 581 7 599 q 68 563 43 563 l 71 563 q 114 581 96 563 q 132 624 132 599 l 132 626 q 114 669 132 651 q 71 688 96 688 l 68 688 m 68 549 l 68 549 q 25 531 43 549 q 7 488 7 513 l 7 485 q 25 442 7 460 q 68 424 43 424 l 71 424 q 114 442 96 424 q 132 485 132 460 l 132 488 q 114 531 132 513 q 71 549 96 549 l 68 549 m 207 549 l 207 549 q 164 531 182 549 q 146 488 146 513 l 146 485 q 164 442 146 460 q 207 424 182 424 l 210 424 q 253 442 235 424 q 271 485 271 460 l 271 488 q 253 531 271 513 q 210 549 235 549 l 207 549 m 346 549 l 346 549 q 303 531 321 549 q 285 488 285 513 l 285 485 q 303 442 285 460 q 346 424 321 424 l 349 424 q 392 442 374 424 q 410 485 410 460 l 410 488 q 392 531 410 513 q 349 549 374 549 l 346 549 m 485 549 l 485 549 q 442 531 460 549 q 424 488 424 513 l 424 485 q 442 442 424 460 q 485 424 460 424 l 488 424 q 531 442 513 424 q 549 485 549 460 l 549 488 q 531 531 549 513 q 488 549 513 549 l 485 549 m 68 410 l 68 410 q 25 392 43 410 q 7 349 7 374 l 7 346 q 25 303 7 321 q 68 285 43 285 l 71 285 q 114 303 96 285 q 132 346 132 321 l 132 349 q 114 392 132 374 q 71 410 96 410 l 68 410 m 68 271 l 68 271 q 25 253 43 271 q 7 210 7 235 l 7 207 q 25 164 7 182 q 68 146 43 146 l 71 146 q 114 164 96 146 q 132 207 132 182 l 132 210 q 114 253 132 235 q 71 271 96 271 l 68 271 m 68 132 l 68 132 q 25 114 43 132 q 7 71 7 96 l 7 68 q 25 25 7 43 q 68 7 43 7 l 71 7 q 114 25 96 7 q 132 68 132 43 l 132 71 q 114 114 132 96 q 71 132 96 132 l 68 132 z "},"G":{"ha":833,"x_min":7,"x_max":688,"o":"m 207 965 l 207 965 q 164 947 182 965 q 146 904 146 929 l 146 901 q 164 858 146 876 q 207 840 182 840 l 210 840 q 253 858 235 840 q 271 901 271 876 l 271 904 q 253 947 271 929 q 210 965 235 965 l 207 965 m 346 965 l 346 965 q 303 947 321 965 q 285 904 285 929 l 285 901 q 303 858 285 876 q 346 840 321 840 l 349 840 q 392 858 374 840 q 410 901 410 876 l 410 904 q 392 947 410 929 q 349 965 374 965 l 346 965 m 485 965 l 485 965 q 442 947 460 965 q 424 904 424 929 l 424 901 q 442 858 424 876 q 485 840 460 840 l 488 840 q 531 858 513 840 q 549 901 549 876 l 549 904 q 531 947 549 929 q 488 965 513 965 l 485 965 m 68 826 l 68 826 q 25 808 43 826 q 7 765 7 790 l 7 763 q 25 719 7 738 q 68 701 43 701 l 71 701 q 114 719 96 701 q 132 763 132 738 l 132 765 q 114 808 132 790 q 71 826 96 826 l 68 826 m 624 826 l 624 826 q 581 808 599 826 q 563 765 563 790 l 563 763 q 581 719 563 738 q 624 701 599 701 l 626 701 q 669 719 651 701 q 688 763 688 738 l 688 765 q 669 808 688 790 q 626 826 651 826 l 624 826 m 68 688 l 68 688 q 25 669 43 688 q 7 626 7 651 l 7 624 q 25 581 7 599 q 68 563 43 563 l 71 563 q 114 581 96 563 q 132 624 132 599 l 132 626 q 114 669 132 651 q 71 688 96 688 l 68 688 m 68 549 l 68 549 q 25 531 43 549 q 7 488 7 513 l 7 485 q 25 442 7 460 q 68 424 43 424 l 71 424 q 114 442 96 424 q 132 485 132 460 l 132 488 q 114 531 132 513 q 71 549 96 549 l 68 549 m 68 410 l 68 410 q 25 392 43 410 q 7 349 7 374 l 7 346 q 25 303 7 321 q 68 285 43 285 l 71 285 q 114 303 96 285 q 132 346 132 321 l 132 349 q 114 392 132 374 q 71 410 96 410 l 68 410 m 485 410 l 485 410 q 442 392 460 410 q 424 349 424 374 l 424 346 q 442 303 424 321 q 485 285 460 285 l 488 285 q 531 303 513 285 q 549 346 549 321 l 549 349 q 531 392 549 374 q 488 410 513 410 l 485 410 m 624 410 l 624 410 q 581 392 599 410 q 563 349 563 374 l 563 346 q 581 303 563 321 q 624 285 599 285 l 626 285 q 669 303 651 285 q 688 346 688 321 l 688 349 q 669 392 688 374 q 626 410 651 410 l 624 410 m 68 271 l 68 271 q 25 253 43 271 q 7 210 7 235 l 7 207 q 25 164 7 182 q 68 146 43 146 l 71 146 q 114 164 96 146 q 132 207 132 182 l 132 210 q 114 253 132 235 q 71 271 96 271 l 68 271 m 624 271 l 624 271 q 581 253 599 271 q 563 210 563 235 l 563 207 q 581 164 563 182 q 624 146 599 146 l 626 146 q 669 164 651 146 q 688 207 688 182 l 688 210 q 669 253 688 235 q 626 271 651 271 l 624 271 m 207 132 l 207 132 q 164 114 182 132 q 146 71 146 96 l 146 68 q 164 25 146 43 q 207 7 182 7 l 210 7 q 253 25 235 7 q 271 68 271 43 l 271 71 q 253 114 271 96 q 210 132 235 132 l 207 132 m 346 132 l 346 132 q 303 114 321 132 q 285 71 285 96 l 285 68 q 303 25 285 43 q 346 7 321 7 l 349 7 q 392 25 374 7 q 410 68 410 43 l 410 71 q 392 114 410 96 q 349 132 374 132 l 346 132 m 485 132 l 485 132 q 442 114 460 132 q 424 71 424 96 l 424 68 q 442 25 424 43 q 485 7 460 7 l 488 7 q 531 25 513 7 q 549 68 549 43 l 549 71 q 531 114 549 96 q 488 132 513 132 l 485 132 z "},"Ğ":{"ha":833,"x_min":7,"x_max":688,"o":"m 68 1104 l 68 1104 q 25 1086 43 1104 q 7 1043 7 1068 l 7 1040 q 25 997 7 1015 q 68 979 43 979 l 71 979 q 114 997 96 979 q 132 1040 132 1015 l 132 1043 q 114 1086 132 1068 q 71 1104 96 1104 l 68 1104 m 624 1104 l 624 1104 q 581 1086 599 1104 q 563 1043 563 1068 l 563 1040 q 581 997 563 1015 q 624 979 599 979 l 626 979 q 669 997 651 979 q 688 1040 688 1015 l 688 1043 q 669 1086 688 1068 q 626 1104 651 1104 l 624 1104 m 207 965 l 207 965 q 164 947 182 965 q 146 904 146 929 l 146 901 q 164 858 146 876 q 207 840 182 840 l 210 840 q 253 858 235 840 q 271 901 271 876 l 271 904 q 253 947 271 929 q 210 965 235 965 l 207 965 m 346 965 l 346 965 q 303 947 321 965 q 285 904 285 929 l 285 901 q 303 858 285 876 q 346 840 321 840 l 349 840 q 392 858 374 840 q 410 901 410 876 l 410 904 q 392 947 410 929 q 349 965 374 965 l 346 965 m 485 965 l 485 965 q 442 947 460 965 q 424 904 424 929 l 424 901 q 442 858 424 876 q 485 840 460 840 l 488 840 q 531 858 513 840 q 549 901 549 876 l 549 904 q 531 947 549 929 q 488 965 513 965 l 485 965 m 207 826 l 207 826 q 164 808 182 826 q 146 765 146 790 l 146 763 q 164 719 146 738 q 207 701 182 701 l 210 701 q 253 719 235 701 q 271 763 271 738 l 271 765 q 253 808 271 790 q 210 826 235 826 l 207 826 m 346 826 l 346 826 q 303 808 321 826 q 285 765 285 790 l 285 763 q 303 719 285 738 q 346 701 321 701 l 349 701 q 392 719 374 701 q 410 763 410 738 l 410 765 q 392 808 410 790 q 349 826 374 826 l 346 826 m 485 826 l 485 826 q 442 808 460 826 q 424 765 424 790 l 424 763 q 442 719 424 738 q 485 701 460 701 l 488 701 q 531 719 513 701 q 549 763 549 738 l 549 765 q 531 808 549 790 q 488 826 513 826 l 485 826 m 68 688 l 68 688 q 25 669 43 688 q 7 626 7 651 l 7 624 q 25 581 7 599 q 68 563 43 563 l 71 563 q 114 581 96 563 q 132 624 132 599 l 132 626 q 114 669 132 651 q 71 688 96 688 l 68 688 m 624 688 l 624 688 q 581 669 599 688 q 563 626 563 651 l 563 624 q 581 581 563 599 q 624 563 599 563 l 626 563 q 669 581 651 563 q 688 624 688 599 l 688 626 q 669 669 688 651 q 626 688 651 688 l 624 688 m 68 549 l 68 549 q 25 531 43 549 q 7 488 7 513 l 7 485 q 25 442 7 460 q 68 424 43 424 l 71 424 q 114 442 96 424 q 132 485 132 460 l 132 488 q 114 531 132 513 q 71 549 96 549 l 68 549 m 68 410 l 68 410 q 25 392 43 410 q 7 349 7 374 l 7 346 q 25 303 7 321 q 68 285 43 285 l 71 285 q 114 303 96 285 q 132 346 132 321 l 132 349 q 114 392 132 374 q 71 410 96 410 l 68 410 m 485 410 l 485 410 q 442 392 460 410 q 424 349 424 374 l 424 346 q 442 303 424 321 q 485 285 460 285 l 488 285 q 531 303 513 285 q 549 346 549 321 l 549 349 q 531 392 549 374 q 488 410 513 410 l 485 410 m 624 410 l 624 410 q 581 392 599 410 q 563 349 563 374 l 563 346 q 581 303 563 321 q 624 285 599 285 l 626 285 q 669 303 651 285 q 688 346 688 321 l 688 349 q 669 392 688 374 q 626 410 651 410 l 624 410 m 68 271 l 68 271 q 25 253 43 271 q 7 210 7 235 l 7 207 q 25 164 7 182 q 68 146 43 146 l 71 146 q 114 164 96 146 q 132 207 132 182 l 132 210 q 114 253 132 235 q 71 271 96 271 l 68 271 m 624 271 l 624 271 q 581 253 599 271 q 563 210 563 235 l 563 207 q 581 164 563 182 q 624 146 599 146 l 626 146 q 669 164 651 146 q 688 207 688 182 l 688 210 q 669 253 688 235 q 626 271 651 271 l 624 271 m 207 132 l 207 132 q 164 114 182 132 q 146 71 146 96 l 146 68 q 164 25 146 43 q 207 7 182 7 l 210 7 q 253 25 235 7 q 271 68 271 43 l 271 71 q 253 114 271 96 q 210 132 235 132 l 207 132 m 346 132 l 346 132 q 303 114 321 132 q 285 71 285 96 l 285 68 q 303 25 285 43 q 346 7 321 7 l 349 7 q 392 25 374 7 q 410 68 410 43 l 410 71 q 392 114 410 96 q 349 132 374 132 l 346 132 m 485 132 l 485 132 q 442 114 460 132 q 424 71 424 96 l 424 68 q 442 25 424 43 q 485 7 460 7 l 488 7 q 531 25 513 7 q 549 68 549 43 l 549 71 q 531 114 549 96 q 488 132 513 132 l 485 132 z "},"Ġ":{"ha":833,"x_min":7,"x_max":688,"o":"m 346 1104 l 346 1104 q 303 1086 321 1104 q 285 1043 285 1068 l 285 1040 q 303 997 285 1015 q 346 979 321 979 l 349 979 q 392 997 374 979 q 410 1040 410 1015 l 410 1043 q 392 1086 410 1068 q 349 1104 374 1104 l 346 1104 m 207 826 l 207 826 q 164 808 182 826 q 146 765 146 790 l 146 763 q 164 719 146 738 q 207 701 182 701 l 210 701 q 253 719 235 701 q 271 763 271 738 l 271 765 q 253 808 271 790 q 210 826 235 826 l 207 826 m 346 826 l 346 826 q 303 808 321 826 q 285 765 285 790 l 285 763 q 303 719 285 738 q 346 701 321 701 l 349 701 q 392 719 374 701 q 410 763 410 738 l 410 765 q 392 808 410 790 q 349 826 374 826 l 346 826 m 485 826 l 485 826 q 442 808 460 826 q 424 765 424 790 l 424 763 q 442 719 424 738 q 485 701 460 701 l 488 701 q 531 719 513 701 q 549 763 549 738 l 549 765 q 531 808 549 790 q 488 826 513 826 l 485 826 m 68 688 l 68 688 q 25 669 43 688 q 7 626 7 651 l 7 624 q 25 581 7 599 q 68 563 43 563 l 71 563 q 114 581 96 563 q 132 624 132 599 l 132 626 q 114 669 132 651 q 71 688 96 688 l 68 688 m 624 688 l 624 688 q 581 669 599 688 q 563 626 563 651 l 563 624 q 581 581 563 599 q 624 563 599 563 l 626 563 q 669 581 651 563 q 688 624 688 599 l 688 626 q 669 669 688 651 q 626 688 651 688 l 624 688 m 68 549 l 68 549 q 25 531 43 549 q 7 488 7 513 l 7 485 q 25 442 7 460 q 68 424 43 424 l 71 424 q 114 442 96 424 q 132 485 132 460 l 132 488 q 114 531 132 513 q 71 549 96 549 l 68 549 m 68 410 l 68 410 q 25 392 43 410 q 7 349 7 374 l 7 346 q 25 303 7 321 q 68 285 43 285 l 71 285 q 114 303 96 285 q 132 346 132 321 l 132 349 q 114 392 132 374 q 71 410 96 410 l 68 410 m 485 410 l 485 410 q 442 392 460 410 q 424 349 424 374 l 424 346 q 442 303 424 321 q 485 285 460 285 l 488 285 q 531 303 513 285 q 549 346 549 321 l 549 349 q 531 392 549 374 q 488 410 513 410 l 485 410 m 624 410 l 624 410 q 581 392 599 410 q 563 349 563 374 l 563 346 q 581 303 563 321 q 624 285 599 285 l 626 285 q 669 303 651 285 q 688 346 688 321 l 688 349 q 669 392 688 374 q 626 410 651 410 l 624 410 m 68 271 l 68 271 q 25 253 43 271 q 7 210 7 235 l 7 207 q 25 164 7 182 q 68 146 43 146 l 71 146 q 114 164 96 146 q 132 207 132 182 l 132 210 q 114 253 132 235 q 71 271 96 271 l 68 271 m 624 271 l 624 271 q 581 253 599 271 q 563 210 563 235 l 563 207 q 581 164 563 182 q 624 146 599 146 l 626 146 q 669 164 651 146 q 688 207 688 182 l 688 210 q 669 253 688 235 q 626 271 651 271 l 624 271 m 207 132 l 207 132 q 164 114 182 132 q 146 71 146 96 l 146 68 q 164 25 146 43 q 207 7 182 7 l 210 7 q 253 25 235 7 q 271 68 271 43 l 271 71 q 253 114 271 96 q 210 132 235 132 l 207 132 m 346 132 l 346 132 q 303 114 321 132 q 285 71 285 96 l 285 68 q 303 25 285 43 q 346 7 321 7 l 349 7 q 392 25 374 7 q 410 68 410 43 l 410 71 q 392 114 410 96 q 349 132 374 132 l 346 132 m 485 132 l 485 132 q 442 114 460 132 q 424 71 424 96 l 424 68 q 442 25 424 43 q 485 7 460 7 l 488 7 q 531 25 513 7 q 549 68 549 43 l 549 71 q 531 114 549 96 q 488 132 513 132 l 485 132 z "},"H":{"ha":833,"x_min":7,"x_max":688,"o":"m 68 965 l 68 965 q 25 947 43 965 q 7 904 7 929 l 7 901 q 25 858 7 876 q 68 840 43 840 l 71 840 q 114 858 96 840 q 132 901 132 876 l 132 904 q 114 947 132 929 q 71 965 96 965 l 68 965 m 624 965 l 624 965 q 581 947 599 965 q 563 904 563 929 l 563 901 q 581 858 563 876 q 624 840 599 840 l 626 840 q 669 858 651 840 q 688 901 688 876 l 688 904 q 669 947 688 929 q 626 965 651 965 l 624 965 m 68 826 l 68 826 q 25 808 43 826 q 7 765 7 790 l 7 763 q 25 719 7 738 q 68 701 43 701 l 71 701 q 114 719 96 701 q 132 763 132 738 l 132 765 q 114 808 132 790 q 71 826 96 826 l 68 826 m 624 826 l 624 826 q 581 808 599 826 q 563 765 563 790 l 563 763 q 581 719 563 738 q 624 701 599 701 l 626 701 q 669 719 651 701 q 688 763 688 738 l 688 765 q 669 808 688 790 q 626 826 651 826 l 624 826 m 68 688 l 68 688 q 25 669 43 688 q 7 626 7 651 l 7 624 q 25 581 7 599 q 68 563 43 563 l 71 563 q 114 581 96 563 q 132 624 132 599 l 132 626 q 114 669 132 651 q 71 688 96 688 l 68 688 m 624 688 l 624 688 q 581 669 599 688 q 563 626 563 651 l 563 624 q 581 581 563 599 q 624 563 599 563 l 626 563 q 669 581 651 563 q 688 624 688 599 l 688 626 q 669 669 688 651 q 626 688 651 688 l 624 688 m 68 549 l 68 549 q 25 531 43 549 q 7 488 7 513 l 7 485 q 25 442 7 460 q 68 424 43 424 l 71 424 q 114 442 96 424 q 132 485 132 460 l 132 488 q 114 531 132 513 q 71 549 96 549 l 68 549 m 207 549 l 207 549 q 164 531 182 549 q 146 488 146 513 l 146 485 q 164 442 146 460 q 207 424 182 424 l 210 424 q 253 442 235 424 q 271 485 271 460 l 271 488 q 253 531 271 513 q 210 549 235 549 l 207 549 m 346 549 l 346 549 q 303 531 321 549 q 285 488 285 513 l 285 485 q 303 442 285 460 q 346 424 321 424 l 349 424 q 392 442 374 424 q 410 485 410 460 l 410 488 q 392 531 410 513 q 349 549 374 549 l 346 549 m 485 549 l 485 549 q 442 531 460 549 q 424 488 424 513 l 424 485 q 442 442 424 460 q 485 424 460 424 l 488 424 q 531 442 513 424 q 549 485 549 460 l 549 488 q 531 531 549 513 q 488 549 513 549 l 485 549 m 624 549 l 624 549 q 581 531 599 549 q 563 488 563 513 l 563 485 q 581 442 563 460 q 624 424 599 424 l 626 424 q 669 442 651 424 q 688 485 688 460 l 688 488 q 669 531 688 513 q 626 549 651 549 l 624 549 m 68 410 l 68 410 q 25 392 43 410 q 7 349 7 374 l 7 346 q 25 303 7 321 q 68 285 43 285 l 71 285 q 114 303 96 285 q 132 346 132 321 l 132 349 q 114 392 132 374 q 71 410 96 410 l 68 410 m 624 410 l 624 410 q 581 392 599 410 q 563 349 563 374 l 563 346 q 581 303 563 321 q 624 285 599 285 l 626 285 q 669 303 651 285 q 688 346 688 321 l 688 349 q 669 392 688 374 q 626 410 651 410 l 624 410 m 68 271 l 68 271 q 25 253 43 271 q 7 210 7 235 l 7 207 q 25 164 7 182 q 68 146 43 146 l 71 146 q 114 164 96 146 q 132 207 132 182 l 132 210 q 114 253 132 235 q 71 271 96 271 l 68 271 m 624 271 l 624 271 q 581 253 599 271 q 563 210 563 235 l 563 207 q 581 164 563 182 q 624 146 599 146 l 626 146 q 669 164 651 146 q 688 207 688 182 l 688 210 q 669 253 688 235 q 626 271 651 271 l 624 271 m 68 132 l 68 132 q 25 114 43 132 q 7 71 7 96 l 7 68 q 25 25 7 43 q 68 7 43 7 l 71 7 q 114 25 96 7 q 132 68 132 43 l 132 71 q 114 114 132 96 q 71 132 96 132 l 68 132 m 624 132 l 624 132 q 581 114 599 132 q 563 71 563 96 l 563 68 q 581 25 563 43 q 624 7 599 7 l 626 7 q 669 25 651 7 q 688 68 688 43 l 688 71 q 669 114 688 96 q 626 132 651 132 l 624 132 z "},"Ħ":{"ha":833,"x_min":7,"x_max":688,"o":"m 207 965 l 207 965 q 164 947 182 965 q 146 904 146 929 l 146 901 q 164 858 146 876 q 207 840 182 840 l 210 840 q 253 858 235 840 q 271 901 271 876 l 271 904 q 253 947 271 929 q 210 965 235 965 l 207 965 m 485 965 l 485 965 q 442 947 460 965 q 424 904 424 929 l 424 901 q 442 858 424 876 q 485 840 460 840 l 488 840 q 531 858 513 840 q 549 901 549 876 l 549 904 q 531 947 549 929 q 488 965 513 965 l 485 965 m 68 826 l 68 826 q 25 808 43 826 q 7 765 7 790 l 7 763 q 25 719 7 738 q 68 701 43 701 l 71 701 q 114 719 96 701 q 132 763 132 738 l 132 765 q 114 808 132 790 q 71 826 96 826 l 68 826 m 207 826 l 207 826 q 164 808 182 826 q 146 765 146 790 l 146 763 q 164 719 146 738 q 207 701 182 701 l 210 701 q 253 719 235 701 q 271 763 271 738 l 271 765 q 253 808 271 790 q 210 826 235 826 l 207 826 m 346 826 l 346 826 q 303 808 321 826 q 285 765 285 790 l 285 763 q 303 719 285 738 q 346 701 321 701 l 349 701 q 392 719 374 701 q 410 763 410 738 l 410 765 q 392 808 410 790 q 349 826 374 826 l 346 826 m 485 826 l 485 826 q 442 808 460 826 q 424 765 424 790 l 424 763 q 442 719 424 738 q 485 701 460 701 l 488 701 q 531 719 513 701 q 549 763 549 738 l 549 765 q 531 808 549 790 q 488 826 513 826 l 485 826 m 624 826 l 624 826 q 581 808 599 826 q 563 765 563 790 l 563 763 q 581 719 563 738 q 624 701 599 701 l 626 701 q 669 719 651 701 q 688 763 688 738 l 688 765 q 669 808 688 790 q 626 826 651 826 l 624 826 m 207 688 l 207 688 q 164 669 182 688 q 146 626 146 651 l 146 624 q 164 581 146 599 q 207 563 182 563 l 210 563 q 253 581 235 563 q 271 624 271 599 l 271 626 q 253 669 271 651 q 210 688 235 688 l 207 688 m 485 688 l 485 688 q 442 669 460 688 q 424 626 424 651 l 424 624 q 442 581 424 599 q 485 563 460 563 l 488 563 q 531 581 513 563 q 549 624 549 599 l 549 626 q 531 669 549 651 q 488 688 513 688 l 485 688 m 207 549 l 207 549 q 164 531 182 549 q 146 488 146 513 l 146 485 q 164 442 146 460 q 207 424 182 424 l 210 424 q 253 442 235 424 q 271 485 271 460 l 271 488 q 253 531 271 513 q 210 549 235 549 l 207 549 m 346 549 l 346 549 q 303 531 321 549 q 285 488 285 513 l 285 485 q 303 442 285 460 q 346 424 321 424 l 349 424 q 392 442 374 424 q 410 485 410 460 l 410 488 q 392 531 410 513 q 349 549 374 549 l 346 549 m 485 549 l 485 549 q 442 531 460 549 q 424 488 424 513 l 424 485 q 442 442 424 460 q 485 424 460 424 l 488 424 q 531 442 513 424 q 549 485 549 460 l 549 488 q 531 531 549 513 q 488 549 513 549 l 485 549 m 207 410 l 207 410 q 164 392 182 410 q 146 349 146 374 l 146 346 q 164 303 146 321 q 207 285 182 285 l 210 285 q 253 303 235 285 q 271 346 271 321 l 271 349 q 253 392 271 374 q 210 410 235 410 l 207 410 m 485 410 l 485 410 q 442 392 460 410 q 424 349 424 374 l 424 346 q 442 303 424 321 q 485 285 460 285 l 488 285 q 531 303 513 285 q 549 346 549 321 l 549 349 q 531 392 549 374 q 488 410 513 410 l 485 410 m 207 271 l 207 271 q 164 253 182 271 q 146 210 146 235 l 146 207 q 164 164 146 182 q 207 146 182 146 l 210 146 q 253 164 235 146 q 271 207 271 182 l 271 210 q 253 253 271 235 q 210 271 235 271 l 207 271 m 485 271 l 485 271 q 442 253 460 271 q 424 210 424 235 l 424 207 q 442 164 424 182 q 485 146 460 146 l 488 146 q 531 164 513 146 q 549 207 549 182 l 549 210 q 531 253 549 235 q 488 271 513 271 l 485 271 m 207 132 l 207 132 q 164 114 182 132 q 146 71 146 96 l 146 68 q 164 25 146 43 q 207 7 182 7 l 210 7 q 253 25 235 7 q 271 68 271 43 l 271 71 q 253 114 271 96 q 210 132 235 132 l 207 132 m 485 132 l 485 132 q 442 114 460 132 q 424 71 424 96 l 424 68 q 442 25 424 43 q 485 7 460 7 l 488 7 q 531 25 513 7 q 549 68 549 43 l 549 71 q 531 114 549 96 q 488 132 513 132 l 485 132 z "},"I":{"ha":833,"x_min":146,"x_max":549,"o":"m 207 965 l 207 965 q 164 947 182 965 q 146 904 146 929 l 146 901 q 164 858 146 876 q 207 840 182 840 l 210 840 q 253 858 235 840 q 271 901 271 876 l 271 904 q 253 947 271 929 q 210 965 235 965 l 207 965 m 346 965 l 346 965 q 303 947 321 965 q 285 904 285 929 l 285 901 q 303 858 285 876 q 346 840 321 840 l 349 840 q 392 858 374 840 q 410 901 410 876 l 410 904 q 392 947 410 929 q 349 965 374 965 l 346 965 m 485 965 l 485 965 q 442 947 460 965 q 424 904 424 929 l 424 901 q 442 858 424 876 q 485 840 460 840 l 488 840 q 531 858 513 840 q 549 901 549 876 l 549 904 q 531 947 549 929 q 488 965 513 965 l 485 965 m 346 826 l 346 826 q 303 808 321 826 q 285 765 285 790 l 285 763 q 303 719 285 738 q 346 701 321 701 l 349 701 q 392 719 374 701 q 410 763 410 738 l 410 765 q 392 808 410 790 q 349 826 374 826 l 346 826 m 346 688 l 346 688 q 303 669 321 688 q 285 626 285 651 l 285 624 q 303 581 285 599 q 346 563 321 563 l 349 563 q 392 581 374 563 q 410 624 410 599 l 410 626 q 392 669 410 651 q 349 688 374 688 l 346 688 m 346 549 l 346 549 q 303 531 321 549 q 285 488 285 513 l 285 485 q 303 442 285 460 q 346 424 321 424 l 349 424 q 392 442 374 424 q 410 485 410 460 l 410 488 q 392 531 410 513 q 349 549 374 549 l 346 549 m 346 410 l 346 410 q 303 392 321 410 q 285 349 285 374 l 285 346 q 303 303 285 321 q 346 285 321 285 l 349 285 q 392 303 374 285 q 410 346 410 321 l 410 349 q 392 392 410 374 q 349 410 374 410 l 346 410 m 346 271 l 346 271 q 303 253 321 271 q 285 210 285 235 l 285 207 q 303 164 285 182 q 346 146 321 146 l 349 146 q 392 164 374 146 q 410 207 410 182 l 410 210 q 392 253 410 235 q 349 271 374 271 l 346 271 m 207 132 l 207 132 q 164 114 182 132 q 146 71 146 96 l 146 68 q 164 25 146 43 q 207 7 182 7 l 210 7 q 253 25 235 7 q 271 68 271 43 l 271 71 q 253 114 271 96 q 210 132 235 132 l 207 132 m 346 132 l 346 132 q 303 114 321 132 q 285 71 285 96 l 285 68 q 303 25 285 43 q 346 7 321 7 l 349 7 q 392 25 374 7 q 410 68 410 43 l 410 71 q 392 114 410 96 q 349 132 374 132 l 346 132 m 485 132 l 485 132 q 442 114 460 132 q 424 71 424 96 l 424 68 q 442 25 424 43 q 485 7 460 7 l 488 7 q 531 25 513 7 q 549 68 549 43 l 549 71 q 531 114 549 96 q 488 132 513 132 l 485 132 z "},"Í":{"ha":833,"x_min":146,"x_max":549,"o":"m 485 1104 l 485 1104 q 442 1086 460 1104 q 424 1043 424 1068 l 424 1040 q 442 997 424 1015 q 485 979 460 979 l 488 979 q 531 997 513 979 q 549 1040 549 1015 l 549 1043 q 531 1086 549 1068 q 488 1104 513 1104 l 485 1104 m 346 965 l 346 965 q 303 947 321 965 q 285 904 285 929 l 285 901 q 303 858 285 876 q 346 840 321 840 l 349 840 q 392 858 374 840 q 410 901 410 876 l 410 904 q 392 947 410 929 q 349 965 374 965 l 346 965 m 207 826 l 207 826 q 164 808 182 826 q 146 765 146 790 l 146 763 q 164 719 146 738 q 207 701 182 701 l 210 701 q 253 719 235 701 q 271 763 271 738 l 271 765 q 253 808 271 790 q 210 826 235 826 l 207 826 m 346 826 l 346 826 q 303 808 321 826 q 285 765 285 790 l 285 763 q 303 719 285 738 q 346 701 321 701 l 349 701 q 392 719 374 701 q 410 763 410 738 l 410 765 q 392 808 410 790 q 349 826 374 826 l 346 826 m 485 826 l 485 826 q 442 808 460 826 q 424 765 424 790 l 424 763 q 442 719 424 738 q 485 701 460 701 l 488 701 q 531 719 513 701 q 549 763 549 738 l 549 765 q 531 808 549 790 q 488 826 513 826 l 485 826 m 346 688 l 346 688 q 303 669 321 688 q 285 626 285 651 l 285 624 q 303 581 285 599 q 346 563 321 563 l 349 563 q 392 581 374 563 q 410 624 410 599 l 410 626 q 392 669 410 651 q 349 688 374 688 l 346 688 m 346 549 l 346 549 q 303 531 321 549 q 285 488 285 513 l 285 485 q 303 442 285 460 q 346 424 321 424 l 349 424 q 392 442 374 424 q 410 485 410 460 l 410 488 q 392 531 410 513 q 349 549 374 549 l 346 549 m 346 410 l 346 410 q 303 392 321 410 q 285 349 285 374 l 285 346 q 303 303 285 321 q 346 285 321 285 l 349 285 q 392 303 374 285 q 410 346 410 321 l 410 349 q 392 392 410 374 q 349 410 374 410 l 346 410 m 346 271 l 346 271 q 303 253 321 271 q 285 210 285 235 l 285 207 q 303 164 285 182 q 346 146 321 146 l 349 146 q 392 164 374 146 q 410 207 410 182 l 410 210 q 392 253 410 235 q 349 271 374 271 l 346 271 m 207 132 l 207 132 q 164 114 182 132 q 146 71 146 96 l 146 68 q 164 25 146 43 q 207 7 182 7 l 210 7 q 253 25 235 7 q 271 68 271 43 l 271 71 q 253 114 271 96 q 210 132 235 132 l 207 132 m 346 132 l 346 132 q 303 114 321 132 q 285 71 285 96 l 285 68 q 303 25 285 43 q 346 7 321 7 l 349 7 q 392 25 374 7 q 410 68 410 43 l 410 71 q 392 114 410 96 q 349 132 374 132 l 346 132 m 485 132 l 485 132 q 442 114 460 132 q 424 71 424 96 l 424 68 q 442 25 424 43 q 485 7 460 7 l 488 7 q 531 25 513 7 q 549 68 549 43 l 549 71 q 531 114 549 96 q 488 132 513 132 l 485 132 z "},"Î":{"ha":833,"x_min":146,"x_max":549,"o":"m 346 1104 l 346 1104 q 303 1086 321 1104 q 285 1043 285 1068 l 285 1040 q 303 997 285 1015 q 346 979 321 979 l 349 979 q 392 997 374 979 q 410 1040 410 1015 l 410 1043 q 392 1086 410 1068 q 349 1104 374 1104 l 346 1104 m 207 965 l 207 965 q 164 947 182 965 q 146 904 146 929 l 146 901 q 164 858 146 876 q 207 840 182 840 l 210 840 q 253 858 235 840 q 271 901 271 876 l 271 904 q 253 947 271 929 q 210 965 235 965 l 207 965 m 485 965 l 485 965 q 442 947 460 965 q 424 904 424 929 l 424 901 q 442 858 424 876 q 485 840 460 840 l 488 840 q 531 858 513 840 q 549 901 549 876 l 549 904 q 531 947 549 929 q 488 965 513 965 l 485 965 m 207 826 l 207 826 q 164 808 182 826 q 146 765 146 790 l 146 763 q 164 719 146 738 q 207 701 182 701 l 210 701 q 253 719 235 701 q 271 763 271 738 l 271 765 q 253 808 271 790 q 210 826 235 826 l 207 826 m 346 826 l 346 826 q 303 808 321 826 q 285 765 285 790 l 285 763 q 303 719 285 738 q 346 701 321 701 l 349 701 q 392 719 374 701 q 410 763 410 738 l 410 765 q 392 808 410 790 q 349 826 374 826 l 346 826 m 485 826 l 485 826 q 442 808 460 826 q 424 765 424 790 l 424 763 q 442 719 424 738 q 485 701 460 701 l 488 701 q 531 719 513 701 q 549 763 549 738 l 549 765 q 531 808 549 790 q 488 826 513 826 l 485 826 m 346 688 l 346 688 q 303 669 321 688 q 285 626 285 651 l 285 624 q 303 581 285 599 q 346 563 321 563 l 349 563 q 392 581 374 563 q 410 624 410 599 l 410 626 q 392 669 410 651 q 349 688 374 688 l 346 688 m 346 549 l 346 549 q 303 531 321 549 q 285 488 285 513 l 285 485 q 303 442 285 460 q 346 424 321 424 l 349 424 q 392 442 374 424 q 410 485 410 460 l 410 488 q 392 531 410 513 q 349 549 374 549 l 346 549 m 346 410 l 346 410 q 303 392 321 410 q 285 349 285 374 l 285 346 q 303 303 285 321 q 346 285 321 285 l 349 285 q 392 303 374 285 q 410 346 410 321 l 410 349 q 392 392 410 374 q 349 410 374 410 l 346 410 m 346 271 l 346 271 q 303 253 321 271 q 285 210 285 235 l 285 207 q 303 164 285 182 q 346 146 321 146 l 349 146 q 392 164 374 146 q 410 207 410 182 l 410 210 q 392 253 410 235 q 349 271 374 271 l 346 271 m 207 132 l 207 132 q 164 114 182 132 q 146 71 146 96 l 146 68 q 164 25 146 43 q 207 7 182 7 l 210 7 q 253 25 235 7 q 271 68 271 43 l 271 71 q 253 114 271 96 q 210 132 235 132 l 207 132 m 346 132 l 346 132 q 303 114 321 132 q 285 71 285 96 l 285 68 q 303 25 285 43 q 346 7 321 7 l 349 7 q 392 25 374 7 q 410 68 410 43 l 410 71 q 392 114 410 96 q 349 132 374 132 l 346 132 m 485 132 l 485 132 q 442 114 460 132 q 424 71 424 96 l 424 68 q 442 25 424 43 q 485 7 460 7 l 488 7 q 531 25 513 7 q 549 68 549 43 l 549 71 q 531 114 549 96 q 488 132 513 132 l 485 132 z "},"Ï":{"ha":833,"x_min":146,"x_max":549,"o":"m 207 1104 l 207 1104 q 164 1086 182 1104 q 146 1043 146 1068 l 146 1040 q 164 997 146 1015 q 207 979 182 979 l 210 979 q 253 997 235 979 q 271 1040 271 1015 l 271 1043 q 253 1086 271 1068 q 210 1104 235 1104 l 207 1104 m 485 1104 l 485 1104 q 442 1086 460 1104 q 424 1043 424 1068 l 424 1040 q 442 997 424 1015 q 485 979 460 979 l 488 979 q 531 997 513 979 q 549 1040 549 1015 l 549 1043 q 531 1086 549 1068 q 488 1104 513 1104 l 485 1104 m 207 826 l 207 826 q 164 808 182 826 q 146 765 146 790 l 146 763 q 164 719 146 738 q 207 701 182 701 l 210 701 q 253 719 235 701 q 271 763 271 738 l 271 765 q 253 808 271 790 q 210 826 235 826 l 207 826 m 346 826 l 346 826 q 303 808 321 826 q 285 765 285 790 l 285 763 q 303 719 285 738 q 346 701 321 701 l 349 701 q 392 719 374 701 q 410 763 410 738 l 410 765 q 392 808 410 790 q 349 826 374 826 l 346 826 m 485 826 l 485 826 q 442 808 460 826 q 424 765 424 790 l 424 763 q 442 719 424 738 q 485 701 460 701 l 488 701 q 531 719 513 701 q 549 763 549 738 l 549 765 q 531 808 549 790 q 488 826 513 826 l 485 826 m 346 688 l 346 688 q 303 669 321 688 q 285 626 285 651 l 285 624 q 303 581 285 599 q 346 563 321 563 l 349 563 q 392 581 374 563 q 410 624 410 599 l 410 626 q 392 669 410 651 q 349 688 374 688 l 346 688 m 346 549 l 346 549 q 303 531 321 549 q 285 488 285 513 l 285 485 q 303 442 285 460 q 346 424 321 424 l 349 424 q 392 442 374 424 q 410 485 410 460 l 410 488 q 392 531 410 513 q 349 549 374 549 l 346 549 m 346 410 l 346 410 q 303 392 321 410 q 285 349 285 374 l 285 346 q 303 303 285 321 q 346 285 321 285 l 349 285 q 392 303 374 285 q 410 346 410 321 l 410 349 q 392 392 410 374 q 349 410 374 410 l 346 410 m 346 271 l 346 271 q 303 253 321 271 q 285 210 285 235 l 285 207 q 303 164 285 182 q 346 146 321 146 l 349 146 q 392 164 374 146 q 410 207 410 182 l 410 210 q 392 253 410 235 q 349 271 374 271 l 346 271 m 207 132 l 207 132 q 164 114 182 132 q 146 71 146 96 l 146 68 q 164 25 146 43 q 207 7 182 7 l 210 7 q 253 25 235 7 q 271 68 271 43 l 271 71 q 253 114 271 96 q 210 132 235 132 l 207 132 m 346 132 l 346 132 q 303 114 321 132 q 285 71 285 96 l 285 68 q 303 25 285 43 q 346 7 321 7 l 349 7 q 392 25 374 7 q 410 68 410 43 l 410 71 q 392 114 410 96 q 349 132 374 132 l 346 132 m 485 132 l 485 132 q 442 114 460 132 q 424 71 424 96 l 424 68 q 442 25 424 43 q 485 7 460 7 l 488 7 q 531 25 513 7 q 549 68 549 43 l 549 71 q 531 114 549 96 q 488 132 513 132 l 485 132 z "},"İ":{"ha":833,"x_min":146,"x_max":549,"o":"m 346 1104 l 346 1104 q 303 1086 321 1104 q 285 1043 285 1068 l 285 1040 q 303 997 285 1015 q 346 979 321 979 l 349 979 q 392 997 374 979 q 410 1040 410 1015 l 410 1043 q 392 1086 410 1068 q 349 1104 374 1104 l 346 1104 m 207 826 l 207 826 q 164 808 182 826 q 146 765 146 790 l 146 763 q 164 719 146 738 q 207 701 182 701 l 210 701 q 253 719 235 701 q 271 763 271 738 l 271 765 q 253 808 271 790 q 210 826 235 826 l 207 826 m 346 826 l 346 826 q 303 808 321 826 q 285 765 285 790 l 285 763 q 303 719 285 738 q 346 701 321 701 l 349 701 q 392 719 374 701 q 410 763 410 738 l 410 765 q 392 808 410 790 q 349 826 374 826 l 346 826 m 485 826 l 485 826 q 442 808 460 826 q 424 765 424 790 l 424 763 q 442 719 424 738 q 485 701 460 701 l 488 701 q 531 719 513 701 q 549 763 549 738 l 549 765 q 531 808 549 790 q 488 826 513 826 l 485 826 m 346 688 l 346 688 q 303 669 321 688 q 285 626 285 651 l 285 624 q 303 581 285 599 q 346 563 321 563 l 349 563 q 392 581 374 563 q 410 624 410 599 l 410 626 q 392 669 410 651 q 349 688 374 688 l 346 688 m 346 549 l 346 549 q 303 531 321 549 q 285 488 285 513 l 285 485 q 303 442 285 460 q 346 424 321 424 l 349 424 q 392 442 374 424 q 410 485 410 460 l 410 488 q 392 531 410 513 q 349 549 374 549 l 346 549 m 346 410 l 346 410 q 303 392 321 410 q 285 349 285 374 l 285 346 q 303 303 285 321 q 346 285 321 285 l 349 285 q 392 303 374 285 q 410 346 410 321 l 410 349 q 392 392 410 374 q 349 410 374 410 l 346 410 m 346 271 l 346 271 q 303 253 321 271 q 285 210 285 235 l 285 207 q 303 164 285 182 q 346 146 321 146 l 349 146 q 392 164 374 146 q 410 207 410 182 l 410 210 q 392 253 410 235 q 349 271 374 271 l 346 271 m 207 132 l 207 132 q 164 114 182 132 q 146 71 146 96 l 146 68 q 164 25 146 43 q 207 7 182 7 l 210 7 q 253 25 235 7 q 271 68 271 43 l 271 71 q 253 114 271 96 q 210 132 235 132 l 207 132 m 346 132 l 346 132 q 303 114 321 132 q 285 71 285 96 l 285 68 q 303 25 285 43 q 346 7 321 7 l 349 7 q 392 25 374 7 q 410 68 410 43 l 410 71 q 392 114 410 96 q 349 132 374 132 l 346 132 m 485 132 l 485 132 q 442 114 460 132 q 424 71 424 96 l 424 68 q 442 25 424 43 q 485 7 460 7 l 488 7 q 531 25 513 7 q 549 68 549 43 l 549 71 q 531 114 549 96 q 488 132 513 132 l 485 132 z "},"Ì":{"ha":833,"x_min":146,"x_max":549,"o":"m 207 1104 l 207 1104 q 164 1086 182 1104 q 146 1043 146 1068 l 146 1040 q 164 997 146 1015 q 207 979 182 979 l 210 979 q 253 997 235 979 q 271 1040 271 1015 l 271 1043 q 253 1086 271 1068 q 210 1104 235 1104 l 207 1104 m 346 965 l 346 965 q 303 947 321 965 q 285 904 285 929 l 285 901 q 303 858 285 876 q 346 840 321 840 l 349 840 q 392 858 374 840 q 410 901 410 876 l 410 904 q 392 947 410 929 q 349 965 374 965 l 346 965 m 207 826 l 207 826 q 164 808 182 826 q 146 765 146 790 l 146 763 q 164 719 146 738 q 207 701 182 701 l 210 701 q 253 719 235 701 q 271 763 271 738 l 271 765 q 253 808 271 790 q 210 826 235 826 l 207 826 m 346 826 l 346 826 q 303 808 321 826 q 285 765 285 790 l 285 763 q 303 719 285 738 q 346 701 321 701 l 349 701 q 392 719 374 701 q 410 763 410 738 l 410 765 q 392 808 410 790 q 349 826 374 826 l 346 826 m 485 826 l 485 826 q 442 808 460 826 q 424 765 424 790 l 424 763 q 442 719 424 738 q 485 701 460 701 l 488 701 q 531 719 513 701 q 549 763 549 738 l 549 765 q 531 808 549 790 q 488 826 513 826 l 485 826 m 346 688 l 346 688 q 303 669 321 688 q 285 626 285 651 l 285 624 q 303 581 285 599 q 346 563 321 563 l 349 563 q 392 581 374 563 q 410 624 410 599 l 410 626 q 392 669 410 651 q 349 688 374 688 l 346 688 m 346 549 l 346 549 q 303 531 321 549 q 285 488 285 513 l 285 485 q 303 442 285 460 q 346 424 321 424 l 349 424 q 392 442 374 424 q 410 485 410 460 l 410 488 q 392 531 410 513 q 349 549 374 549 l 346 549 m 346 410 l 346 410 q 303 392 321 410 q 285 349 285 374 l 285 346 q 303 303 285 321 q 346 285 321 285 l 349 285 q 392 303 374 285 q 410 346 410 321 l 410 349 q 392 392 410 374 q 349 410 374 410 l 346 410 m 346 271 l 346 271 q 303 253 321 271 q 285 210 285 235 l 285 207 q 303 164 285 182 q 346 146 321 146 l 349 146 q 392 164 374 146 q 410 207 410 182 l 410 210 q 392 253 410 235 q 349 271 374 271 l 346 271 m 207 132 l 207 132 q 164 114 182 132 q 146 71 146 96 l 146 68 q 164 25 146 43 q 207 7 182 7 l 210 7 q 253 25 235 7 q 271 68 271 43 l 271 71 q 253 114 271 96 q 210 132 235 132 l 207 132 m 346 132 l 346 132 q 303 114 321 132 q 285 71 285 96 l 285 68 q 303 25 285 43 q 346 7 321 7 l 349 7 q 392 25 374 7 q 410 68 410 43 l 410 71 q 392 114 410 96 q 349 132 374 132 l 346 132 m 485 132 l 485 132 q 442 114 460 132 q 424 71 424 96 l 424 68 q 442 25 424 43 q 485 7 460 7 l 488 7 q 531 25 513 7 q 549 68 549 43 l 549 71 q 531 114 549 96 q 488 132 513 132 l 485 132 z "},"Ī":{"ha":833,"x_min":146,"x_max":549,"o":"m 207 1104 l 207 1104 q 164 1086 182 1104 q 146 1043 146 1068 l 146 1040 q 164 997 146 1015 q 207 979 182 979 l 210 979 q 253 997 235 979 q 271 1040 271 1015 l 271 1043 q 253 1086 271 1068 q 210 1104 235 1104 l 207 1104 m 346 1104 l 346 1104 q 303 1086 321 1104 q 285 1043 285 1068 l 285 1040 q 303 997 285 1015 q 346 979 321 979 l 349 979 q 392 997 374 979 q 410 1040 410 1015 l 410 1043 q 392 1086 410 1068 q 349 1104 374 1104 l 346 1104 m 485 1104 l 485 1104 q 442 1086 460 1104 q 424 1043 424 1068 l 424 1040 q 442 997 424 1015 q 485 979 460 979 l 488 979 q 531 997 513 979 q 549 1040 549 1015 l 549 1043 q 531 1086 549 1068 q 488 1104 513 1104 l 485 1104 m 207 826 l 207 826 q 164 808 182 826 q 146 765 146 790 l 146 763 q 164 719 146 738 q 207 701 182 701 l 210 701 q 253 719 235 701 q 271 763 271 738 l 271 765 q 253 808 271 790 q 210 826 235 826 l 207 826 m 346 826 l 346 826 q 303 808 321 826 q 285 765 285 790 l 285 763 q 303 719 285 738 q 346 701 321 701 l 349 701 q 392 719 374 701 q 410 763 410 738 l 410 765 q 392 808 410 790 q 349 826 374 826 l 346 826 m 485 826 l 485 826 q 442 808 460 826 q 424 765 424 790 l 424 763 q 442 719 424 738 q 485 701 460 701 l 488 701 q 531 719 513 701 q 549 763 549 738 l 549 765 q 531 808 549 790 q 488 826 513 826 l 485 826 m 346 688 l 346 688 q 303 669 321 688 q 285 626 285 651 l 285 624 q 303 581 285 599 q 346 563 321 563 l 349 563 q 392 581 374 563 q 410 624 410 599 l 410 626 q 392 669 410 651 q 349 688 374 688 l 346 688 m 346 549 l 346 549 q 303 531 321 549 q 285 488 285 513 l 285 485 q 303 442 285 460 q 346 424 321 424 l 349 424 q 392 442 374 424 q 410 485 410 460 l 410 488 q 392 531 410 513 q 349 549 374 549 l 346 549 m 346 410 l 346 410 q 303 392 321 410 q 285 349 285 374 l 285 346 q 303 303 285 321 q 346 285 321 285 l 349 285 q 392 303 374 285 q 410 346 410 321 l 410 349 q 392 392 410 374 q 349 410 374 410 l 346 410 m 346 271 l 346 271 q 303 253 321 271 q 285 210 285 235 l 285 207 q 303 164 285 182 q 346 146 321 146 l 349 146 q 392 164 374 146 q 410 207 410 182 l 410 210 q 392 253 410 235 q 349 271 374 271 l 346 271 m 207 132 l 207 132 q 164 114 182 132 q 146 71 146 96 l 146 68 q 164 25 146 43 q 207 7 182 7 l 210 7 q 253 25 235 7 q 271 68 271 43 l 271 71 q 253 114 271 96 q 210 132 235 132 l 207 132 m 346 132 l 346 132 q 303 114 321 132 q 285 71 285 96 l 285 68 q 303 25 285 43 q 346 7 321 7 l 349 7 q 392 25 374 7 q 410 68 410 43 l 410 71 q 392 114 410 96 q 349 132 374 132 l 346 132 m 485 132 l 485 132 q 442 114 460 132 q 424 71 424 96 l 424 68 q 442 25 424 43 q 485 7 460 7 l 488 7 q 531 25 513 7 q 549 68 549 43 l 549 71 q 531 114 549 96 q 488 132 513 132 l 485 132 z "},"Į":{"ha":833,"x_min":146,"x_max":549,"o":"m 207 965 l 207 965 q 164 947 182 965 q 146 904 146 929 l 146 901 q 164 858 146 876 q 207 840 182 840 l 210 840 q 253 858 235 840 q 271 901 271 876 l 271 904 q 253 947 271 929 q 210 965 235 965 l 207 965 m 346 965 l 346 965 q 303 947 321 965 q 285 904 285 929 l 285 901 q 303 858 285 876 q 346 840 321 840 l 349 840 q 392 858 374 840 q 410 901 410 876 l 410 904 q 392 947 410 929 q 349 965 374 965 l 346 965 m 485 965 l 485 965 q 442 947 460 965 q 424 904 424 929 l 424 901 q 442 858 424 876 q 485 840 460 840 l 488 840 q 531 858 513 840 q 549 901 549 876 l 549 904 q 531 947 549 929 q 488 965 513 965 l 485 965 m 346 826 l 346 826 q 303 808 321 826 q 285 765 285 790 l 285 763 q 303 719 285 738 q 346 701 321 701 l 349 701 q 392 719 374 701 q 410 763 410 738 l 410 765 q 392 808 410 790 q 349 826 374 826 l 346 826 m 346 688 l 346 688 q 303 669 321 688 q 285 626 285 651 l 285 624 q 303 581 285 599 q 346 563 321 563 l 349 563 q 392 581 374 563 q 410 624 410 599 l 410 626 q 392 669 410 651 q 349 688 374 688 l 346 688 m 346 549 l 346 549 q 303 531 321 549 q 285 488 285 513 l 285 485 q 303 442 285 460 q 346 424 321 424 l 349 424 q 392 442 374 424 q 410 485 410 460 l 410 488 q 392 531 410 513 q 349 549 374 549 l 346 549 m 346 410 l 346 410 q 303 392 321 410 q 285 349 285 374 l 285 346 q 303 303 285 321 q 346 285 321 285 l 349 285 q 392 303 374 285 q 410 346 410 321 l 410 349 q 392 392 410 374 q 349 410 374 410 l 346 410 m 346 271 l 346 271 q 303 253 321 271 q 285 210 285 235 l 285 207 q 303 164 285 182 q 346 146 321 146 l 349 146 q 392 164 374 146 q 410 207 410 182 l 410 210 q 392 253 410 235 q 349 271 374 271 l 346 271 m 207 132 l 207 132 q 164 114 182 132 q 146 71 146 96 l 146 68 q 164 25 146 43 q 207 7 182 7 l 210 7 q 253 25 235 7 q 271 68 271 43 l 271 71 q 253 114 271 96 q 210 132 235 132 l 207 132 m 346 132 l 346 132 q 303 114 321 132 q 285 71 285 96 l 285 68 q 303 25 285 43 q 346 7 321 7 l 349 7 q 392 25 374 7 q 410 68 410 43 l 410 71 q 392 114 410 96 q 349 132 374 132 l 346 132 m 485 132 l 485 132 q 442 114 460 132 q 424 71 424 96 l 424 68 q 442 25 424 43 q 485 7 460 7 l 488 7 q 531 25 513 7 q 549 68 549 43 l 549 71 q 531 114 549 96 q 488 132 513 132 l 485 132 m 346 -7 l 346 -7 q 303 -25 321 -7 q 285 -68 285 -43 l 285 -71 q 303 -114 285 -96 q 346 -132 321 -132 l 349 -132 q 392 -114 374 -132 q 410 -71 410 -96 l 410 -68 q 392 -25 410 -43 q 349 -7 374 -7 l 346 -7 m 346 -146 l 346 -146 q 303 -164 321 -146 q 285 -207 285 -182 l 285 -210 q 303 -253 285 -235 q 346 -271 321 -271 l 349 -271 q 392 -253 374 -271 q 410 -210 410 -235 l 410 -207 q 392 -164 410 -182 q 349 -146 374 -146 l 346 -146 m 485 -146 l 485 -146 q 442 -164 460 -146 q 424 -207 424 -182 l 424 -210 q 442 -253 424 -235 q 485 -271 460 -271 l 488 -271 q 531 -253 513 -271 q 549 -210 549 -235 l 549 -207 q 531 -164 549 -182 q 488 -146 513 -146 l 485 -146 z "},"J":{"ha":833,"x_min":7,"x_max":688,"o":"m 346 965 l 346 965 q 303 947 321 965 q 285 904 285 929 l 285 901 q 303 858 285 876 q 346 840 321 840 l 349 840 q 392 858 374 840 q 410 901 410 876 l 410 904 q 392 947 410 929 q 349 965 374 965 l 346 965 m 485 965 l 485 965 q 442 947 460 965 q 424 904 424 929 l 424 901 q 442 858 424 876 q 485 840 460 840 l 488 840 q 531 858 513 840 q 549 901 549 876 l 549 904 q 531 947 549 929 q 488 965 513 965 l 485 965 m 624 965 l 624 965 q 581 947 599 965 q 563 904 563 929 l 563 901 q 581 858 563 876 q 624 840 599 840 l 626 840 q 669 858 651 840 q 688 901 688 876 l 688 904 q 669 947 688 929 q 626 965 651 965 l 624 965 m 485 826 l 485 826 q 442 808 460 826 q 424 765 424 790 l 424 763 q 442 719 424 738 q 485 701 460 701 l 488 701 q 531 719 513 701 q 549 763 549 738 l 549 765 q 531 808 549 790 q 488 826 513 826 l 485 826 m 485 688 l 485 688 q 442 669 460 688 q 424 626 424 651 l 424 624 q 442 581 424 599 q 485 563 460 563 l 488 563 q 531 581 513 563 q 549 624 549 599 l 549 626 q 531 669 549 651 q 488 688 513 688 l 485 688 m 485 549 l 485 549 q 442 531 460 549 q 424 488 424 513 l 424 485 q 442 442 424 460 q 485 424 460 424 l 488 424 q 531 442 513 424 q 549 485 549 460 l 549 488 q 531 531 549 513 q 488 549 513 549 l 485 549 m 485 410 l 485 410 q 442 392 460 410 q 424 349 424 374 l 424 346 q 442 303 424 321 q 485 285 460 285 l 488 285 q 531 303 513 285 q 549 346 549 321 l 549 349 q 531 392 549 374 q 488 410 513 410 l 485 410 m 68 271 l 68 271 q 25 253 43 271 q 7 210 7 235 l 7 207 q 25 164 7 182 q 68 146 43 146 l 71 146 q 114 164 96 146 q 132 207 132 182 l 132 210 q 114 253 132 235 q 71 271 96 271 l 68 271 m 485 271 l 485 271 q 442 253 460 271 q 424 210 424 235 l 424 207 q 442 164 424 182 q 485 146 460 146 l 488 146 q 531 164 513 146 q 549 207 549 182 l 549 210 q 531 253 549 235 q 488 271 513 271 l 485 271 m 207 132 l 207 132 q 164 114 182 132 q 146 71 146 96 l 146 68 q 164 25 146 43 q 207 7 182 7 l 210 7 q 253 25 235 7 q 271 68 271 43 l 271 71 q 253 114 271 96 q 210 132 235 132 l 207 132 m 346 132 l 346 132 q 303 114 321 132 q 285 71 285 96 l 285 68 q 303 25 285 43 q 346 7 321 7 l 349 7 q 392 25 374 7 q 410 68 410 43 l 410 71 q 392 114 410 96 q 349 132 374 132 l 346 132 z "},"K":{"ha":833,"x_min":7,"x_max":688,"o":"m 68 965 l 68 965 q 25 947 43 965 q 7 904 7 929 l 7 901 q 25 858 7 876 q 68 840 43 840 l 71 840 q 114 858 96 840 q 132 901 132 876 l 132 904 q 114 947 132 929 q 71 965 96 965 l 68 965 m 624 965 l 624 965 q 581 947 599 965 q 563 904 563 929 l 563 901 q 581 858 563 876 q 624 840 599 840 l 626 840 q 669 858 651 840 q 688 901 688 876 l 688 904 q 669 947 688 929 q 626 965 651 965 l 624 965 m 68 826 l 68 826 q 25 808 43 826 q 7 765 7 790 l 7 763 q 25 719 7 738 q 68 701 43 701 l 71 701 q 114 719 96 701 q 132 763 132 738 l 132 765 q 114 808 132 790 q 71 826 96 826 l 68 826 m 485 826 l 485 826 q 442 808 460 826 q 424 765 424 790 l 424 763 q 442 719 424 738 q 485 701 460 701 l 488 701 q 531 719 513 701 q 549 763 549 738 l 549 765 q 531 808 549 790 q 488 826 513 826 l 485 826 m 68 688 l 68 688 q 25 669 43 688 q 7 626 7 651 l 7 624 q 25 581 7 599 q 68 563 43 563 l 71 563 q 114 581 96 563 q 132 624 132 599 l 132 626 q 114 669 132 651 q 71 688 96 688 l 68 688 m 346 688 l 346 688 q 303 669 321 688 q 285 626 285 651 l 285 624 q 303 581 285 599 q 346 563 321 563 l 349 563 q 392 581 374 563 q 410 624 410 599 l 410 626 q 392 669 410 651 q 349 688 374 688 l 346 688 m 68 549 l 68 549 q 25 531 43 549 q 7 488 7 513 l 7 485 q 25 442 7 460 q 68 424 43 424 l 71 424 q 114 442 96 424 q 132 485 132 460 l 132 488 q 114 531 132 513 q 71 549 96 549 l 68 549 m 207 549 l 207 549 q 164 531 182 549 q 146 488 146 513 l 146 485 q 164 442 146 460 q 207 424 182 424 l 210 424 q 253 442 235 424 q 271 485 271 460 l 271 488 q 253 531 271 513 q 210 549 235 549 l 207 549 m 68 410 l 68 410 q 25 392 43 410 q 7 349 7 374 l 7 346 q 25 303 7 321 q 68 285 43 285 l 71 285 q 114 303 96 285 q 132 346 132 321 l 132 349 q 114 392 132 374 q 71 410 96 410 l 68 410 m 346 410 l 346 410 q 303 392 321 410 q 285 349 285 374 l 285 346 q 303 303 285 321 q 346 285 321 285 l 349 285 q 392 303 374 285 q 410 346 410 321 l 410 349 q 392 392 410 374 q 349 410 374 410 l 346 410 m 68 271 l 68 271 q 25 253 43 271 q 7 210 7 235 l 7 207 q 25 164 7 182 q 68 146 43 146 l 71 146 q 114 164 96 146 q 132 207 132 182 l 132 210 q 114 253 132 235 q 71 271 96 271 l 68 271 m 485 271 l 485 271 q 442 253 460 271 q 424 210 424 235 l 424 207 q 442 164 424 182 q 485 146 460 146 l 488 146 q 531 164 513 146 q 549 207 549 182 l 549 210 q 531 253 549 235 q 488 271 513 271 l 485 271 m 68 132 l 68 132 q 25 114 43 132 q 7 71 7 96 l 7 68 q 25 25 7 43 q 68 7 43 7 l 71 7 q 114 25 96 7 q 132 68 132 43 l 132 71 q 114 114 132 96 q 71 132 96 132 l 68 132 m 624 132 l 624 132 q 581 114 599 132 q 563 71 563 96 l 563 68 q 581 25 563 43 q 624 7 599 7 l 626 7 q 669 25 651 7 q 688 68 688 43 l 688 71 q 669 114 688 96 q 626 132 651 132 l 624 132 z "},"L":{"ha":833,"x_min":7,"x_max":688,"o":"m 68 965 l 68 965 q 25 947 43 965 q 7 904 7 929 l 7 901 q 25 858 7 876 q 68 840 43 840 l 71 840 q 114 858 96 840 q 132 901 132 876 l 132 904 q 114 947 132 929 q 71 965 96 965 l 68 965 m 68 826 l 68 826 q 25 808 43 826 q 7 765 7 790 l 7 763 q 25 719 7 738 q 68 701 43 701 l 71 701 q 114 719 96 701 q 132 763 132 738 l 132 765 q 114 808 132 790 q 71 826 96 826 l 68 826 m 68 688 l 68 688 q 25 669 43 688 q 7 626 7 651 l 7 624 q 25 581 7 599 q 68 563 43 563 l 71 563 q 114 581 96 563 q 132 624 132 599 l 132 626 q 114 669 132 651 q 71 688 96 688 l 68 688 m 68 549 l 68 549 q 25 531 43 549 q 7 488 7 513 l 7 485 q 25 442 7 460 q 68 424 43 424 l 71 424 q 114 442 96 424 q 132 485 132 460 l 132 488 q 114 531 132 513 q 71 549 96 549 l 68 549 m 68 410 l 68 410 q 25 392 43 410 q 7 349 7 374 l 7 346 q 25 303 7 321 q 68 285 43 285 l 71 285 q 114 303 96 285 q 132 346 132 321 l 132 349 q 114 392 132 374 q 71 410 96 410 l 68 410 m 68 271 l 68 271 q 25 253 43 271 q 7 210 7 235 l 7 207 q 25 164 7 182 q 68 146 43 146 l 71 146 q 114 164 96 146 q 132 207 132 182 l 132 210 q 114 253 132 235 q 71 271 96 271 l 68 271 m 68 132 l 68 132 q 25 114 43 132 q 7 71 7 96 l 7 68 q 25 25 7 43 q 68 7 43 7 l 71 7 q 114 25 96 7 q 132 68 132 43 l 132 71 q 114 114 132 96 q 71 132 96 132 l 68 132 m 207 132 l 207 132 q 164 114 182 132 q 146 71 146 96 l 146 68 q 164 25 146 43 q 207 7 182 7 l 210 7 q 253 25 235 7 q 271 68 271 43 l 271 71 q 253 114 271 96 q 210 132 235 132 l 207 132 m 346 132 l 346 132 q 303 114 321 132 q 285 71 285 96 l 285 68 q 303 25 285 43 q 346 7 321 7 l 349 7 q 392 25 374 7 q 410 68 410 43 l 410 71 q 392 114 410 96 q 349 132 374 132 l 346 132 m 485 132 l 485 132 q 442 114 460 132 q 424 71 424 96 l 424 68 q 442 25 424 43 q 485 7 460 7 l 488 7 q 531 25 513 7 q 549 68 549 43 l 549 71 q 531 114 549 96 q 488 132 513 132 l 485 132 m 624 132 l 624 132 q 581 114 599 132 q 563 71 563 96 l 563 68 q 581 25 563 43 q 624 7 599 7 l 626 7 q 669 25 651 7 q 688 68 688 43 l 688 71 q 669 114 688 96 q 626 132 651 132 l 624 132 z "},"Ĺ":{"ha":833,"x_min":7,"x_max":688,"o":"m 485 1104 l 485 1104 q 442 1086 460 1104 q 424 1043 424 1068 l 424 1040 q 442 997 424 1015 q 485 979 460 979 l 488 979 q 531 997 513 979 q 549 1040 549 1015 l 549 1043 q 531 1086 549 1068 q 488 1104 513 1104 l 485 1104 m 68 965 l 68 965 q 25 947 43 965 q 7 904 7 929 l 7 901 q 25 858 7 876 q 68 840 43 840 l 71 840 q 114 858 96 840 q 132 901 132 876 l 132 904 q 114 947 132 929 q 71 965 96 965 l 68 965 m 346 965 l 346 965 q 303 947 321 965 q 285 904 285 929 l 285 901 q 303 858 285 876 q 346 840 321 840 l 349 840 q 392 858 374 840 q 410 901 410 876 l 410 904 q 392 947 410 929 q 349 965 374 965 l 346 965 m 68 826 l 68 826 q 25 808 43 826 q 7 765 7 790 l 7 763 q 25 719 7 738 q 68 701 43 701 l 71 701 q 114 719 96 701 q 132 763 132 738 l 132 765 q 114 808 132 790 q 71 826 96 826 l 68 826 m 68 688 l 68 688 q 25 669 43 688 q 7 626 7 651 l 7 624 q 25 581 7 599 q 68 563 43 563 l 71 563 q 114 581 96 563 q 132 624 132 599 l 132 626 q 114 669 132 651 q 71 688 96 688 l 68 688 m 68 549 l 68 549 q 25 531 43 549 q 7 488 7 513 l 7 485 q 25 442 7 460 q 68 424 43 424 l 71 424 q 114 442 96 424 q 132 485 132 460 l 132 488 q 114 531 132 513 q 71 549 96 549 l 68 549 m 68 410 l 68 410 q 25 392 43 410 q 7 349 7 374 l 7 346 q 25 303 7 321 q 68 285 43 285 l 71 285 q 114 303 96 285 q 132 346 132 321 l 132 349 q 114 392 132 374 q 71 410 96 410 l 68 410 m 68 271 l 68 271 q 25 253 43 271 q 7 210 7 235 l 7 207 q 25 164 7 182 q 68 146 43 146 l 71 146 q 114 164 96 146 q 132 207 132 182 l 132 210 q 114 253 132 235 q 71 271 96 271 l 68 271 m 68 132 l 68 132 q 25 114 43 132 q 7 71 7 96 l 7 68 q 25 25 7 43 q 68 7 43 7 l 71 7 q 114 25 96 7 q 132 68 132 43 l 132 71 q 114 114 132 96 q 71 132 96 132 l 68 132 m 207 132 l 207 132 q 164 114 182 132 q 146 71 146 96 l 146 68 q 164 25 146 43 q 207 7 182 7 l 210 7 q 253 25 235 7 q 271 68 271 43 l 271 71 q 253 114 271 96 q 210 132 235 132 l 207 132 m 346 132 l 346 132 q 303 114 321 132 q 285 71 285 96 l 285 68 q 303 25 285 43 q 346 7 321 7 l 349 7 q 392 25 374 7 q 410 68 410 43 l 410 71 q 392 114 410 96 q 349 132 374 132 l 346 132 m 485 132 l 485 132 q 442 114 460 132 q 424 71 424 96 l 424 68 q 442 25 424 43 q 485 7 460 7 l 488 7 q 531 25 513 7 q 549 68 549 43 l 549 71 q 531 114 549 96 q 488 132 513 132 l 485 132 m 624 132 l 624 132 q 581 114 599 132 q 563 71 563 96 l 563 68 q 581 25 563 43 q 624 7 599 7 l 626 7 q 669 25 651 7 q 688 68 688 43 l 688 71 q 669 114 688 96 q 626 132 651 132 l 624 132 z "},"Ľ":{"ha":833,"x_min":7,"x_max":688,"o":"m 346 1104 l 346 1104 q 303 1086 321 1104 q 285 1043 285 1068 l 285 1040 q 303 997 285 1015 q 346 979 321 979 l 349 979 q 392 997 374 979 q 410 1040 410 1015 l 410 1043 q 392 1086 410 1068 q 349 1104 374 1104 l 346 1104 m 68 965 l 68 965 q 25 947 43 965 q 7 904 7 929 l 7 901 q 25 858 7 876 q 68 840 43 840 l 71 840 q 114 858 96 840 q 132 901 132 876 l 132 904 q 114 947 132 929 q 71 965 96 965 l 68 965 m 346 965 l 346 965 q 303 947 321 965 q 285 904 285 929 l 285 901 q 303 858 285 876 q 346 840 321 840 l 349 840 q 392 858 374 840 q 410 901 410 876 l 410 904 q 392 947 410 929 q 349 965 374 965 l 346 965 m 68 826 l 68 826 q 25 808 43 826 q 7 765 7 790 l 7 763 q 25 719 7 738 q 68 701 43 701 l 71 701 q 114 719 96 701 q 132 763 132 738 l 132 765 q 114 808 132 790 q 71 826 96 826 l 68 826 m 68 688 l 68 688 q 25 669 43 688 q 7 626 7 651 l 7 624 q 25 581 7 599 q 68 563 43 563 l 71 563 q 114 581 96 563 q 132 624 132 599 l 132 626 q 114 669 132 651 q 71 688 96 688 l 68 688 m 68 549 l 68 549 q 25 531 43 549 q 7 488 7 513 l 7 485 q 25 442 7 460 q 68 424 43 424 l 71 424 q 114 442 96 424 q 132 485 132 460 l 132 488 q 114 531 132 513 q 71 549 96 549 l 68 549 m 68 410 l 68 410 q 25 392 43 410 q 7 349 7 374 l 7 346 q 25 303 7 321 q 68 285 43 285 l 71 285 q 114 303 96 285 q 132 346 132 321 l 132 349 q 114 392 132 374 q 71 410 96 410 l 68 410 m 68 271 l 68 271 q 25 253 43 271 q 7 210 7 235 l 7 207 q 25 164 7 182 q 68 146 43 146 l 71 146 q 114 164 96 146 q 132 207 132 182 l 132 210 q 114 253 132 235 q 71 271 96 271 l 68 271 m 68 132 l 68 132 q 25 114 43 132 q 7 71 7 96 l 7 68 q 25 25 7 43 q 68 7 43 7 l 71 7 q 114 25 96 7 q 132 68 132 43 l 132 71 q 114 114 132 96 q 71 132 96 132 l 68 132 m 207 132 l 207 132 q 164 114 182 132 q 146 71 146 96 l 146 68 q 164 25 146 43 q 207 7 182 7 l 210 7 q 253 25 235 7 q 271 68 271 43 l 271 71 q 253 114 271 96 q 210 132 235 132 l 207 132 m 346 132 l 346 132 q 303 114 321 132 q 285 71 285 96 l 285 68 q 303 25 285 43 q 346 7 321 7 l 349 7 q 392 25 374 7 q 410 68 410 43 l 410 71 q 392 114 410 96 q 349 132 374 132 l 346 132 m 485 132 l 485 132 q 442 114 460 132 q 424 71 424 96 l 424 68 q 442 25 424 43 q 485 7 460 7 l 488 7 q 531 25 513 7 q 549 68 549 43 l 549 71 q 531 114 549 96 q 488 132 513 132 l 485 132 m 624 132 l 624 132 q 581 114 599 132 q 563 71 563 96 l 563 68 q 581 25 563 43 q 624 7 599 7 l 626 7 q 669 25 651 7 q 688 68 688 43 l 688 71 q 669 114 688 96 q 626 132 651 132 l 624 132 z "},"Ł":{"ha":833,"x_min":7,"x_max":688,"o":"m 207 965 l 207 965 q 164 947 182 965 q 146 904 146 929 l 146 901 q 164 858 146 876 q 207 840 182 840 l 210 840 q 253 858 235 840 q 271 901 271 876 l 271 904 q 253 947 271 929 q 210 965 235 965 l 207 965 m 207 826 l 207 826 q 164 808 182 826 q 146 765 146 790 l 146 763 q 164 719 146 738 q 207 701 182 701 l 210 701 q 253 719 235 701 q 271 763 271 738 l 271 765 q 253 808 271 790 q 210 826 235 826 l 207 826 m 207 688 l 207 688 q 164 669 182 688 q 146 626 146 651 l 146 624 q 164 581 146 599 q 207 563 182 563 l 210 563 q 253 581 235 563 q 271 624 271 599 l 271 626 q 253 669 271 651 q 210 688 235 688 l 207 688 m 346 688 l 346 688 q 303 669 321 688 q 285 626 285 651 l 285 624 q 303 581 285 599 q 346 563 321 563 l 349 563 q 392 581 374 563 q 410 624 410 599 l 410 626 q 392 669 410 651 q 349 688 374 688 l 346 688 m 68 549 l 68 549 q 25 531 43 549 q 7 488 7 513 l 7 485 q 25 442 7 460 q 68 424 43 424 l 71 424 q 114 442 96 424 q 132 485 132 460 l 132 488 q 114 531 132 513 q 71 549 96 549 l 68 549 m 207 549 l 207 549 q 164 531 182 549 q 146 488 146 513 l 146 485 q 164 442 146 460 q 207 424 182 424 l 210 424 q 253 442 235 424 q 271 485 271 460 l 271 488 q 253 531 271 513 q 210 549 235 549 l 207 549 m 207 410 l 207 410 q 164 392 182 410 q 146 349 146 374 l 146 346 q 164 303 146 321 q 207 285 182 285 l 210 285 q 253 303 235 285 q 271 346 271 321 l 271 349 q 253 392 271 374 q 210 410 235 410 l 207 410 m 207 271 l 207 271 q 164 253 182 271 q 146 210 146 235 l 146 207 q 164 164 146 182 q 207 146 182 146 l 210 146 q 253 164 235 146 q 271 207 271 182 l 271 210 q 253 253 271 235 q 210 271 235 271 l 207 271 m 207 132 l 207 132 q 164 114 182 132 q 146 71 146 96 l 146 68 q 164 25 146 43 q 207 7 182 7 l 210 7 q 253 25 235 7 q 271 68 271 43 l 271 71 q 253 114 271 96 q 210 132 235 132 l 207 132 m 346 132 l 346 132 q 303 114 321 132 q 285 71 285 96 l 285 68 q 303 25 285 43 q 346 7 321 7 l 349 7 q 392 25 374 7 q 410 68 410 43 l 410 71 q 392 114 410 96 q 349 132 374 132 l 346 132 m 485 132 l 485 132 q 442 114 460 132 q 424 71 424 96 l 424 68 q 442 25 424 43 q 485 7 460 7 l 488 7 q 531 25 513 7 q 549 68 549 43 l 549 71 q 531 114 549 96 q 488 132 513 132 l 485 132 m 624 132 l 624 132 q 581 114 599 132 q 563 71 563 96 l 563 68 q 581 25 563 43 q 624 7 599 7 l 626 7 q 669 25 651 7 q 688 68 688 43 l 688 71 q 669 114 688 96 q 626 132 651 132 l 624 132 z "},"M":{"ha":833,"x_min":7,"x_max":688,"o":"m 68 965 l 68 965 q 25 947 43 965 q 7 904 7 929 l 7 901 q 25 858 7 876 q 68 840 43 840 l 71 840 q 114 858 96 840 q 132 901 132 876 l 132 904 q 114 947 132 929 q 71 965 96 965 l 68 965 m 624 965 l 624 965 q 581 947 599 965 q 563 904 563 929 l 563 901 q 581 858 563 876 q 624 840 599 840 l 626 840 q 669 858 651 840 q 688 901 688 876 l 688 904 q 669 947 688 929 q 626 965 651 965 l 624 965 m 68 826 l 68 826 q 25 808 43 826 q 7 765 7 790 l 7 763 q 25 719 7 738 q 68 701 43 701 l 71 701 q 114 719 96 701 q 132 763 132 738 l 132 765 q 114 808 132 790 q 71 826 96 826 l 68 826 m 624 826 l 624 826 q 581 808 599 826 q 563 765 563 790 l 563 763 q 581 719 563 738 q 624 701 599 701 l 626 701 q 669 719 651 701 q 688 763 688 738 l 688 765 q 669 808 688 790 q 626 826 651 826 l 624 826 m 68 688 l 68 688 q 25 669 43 688 q 7 626 7 651 l 7 624 q 25 581 7 599 q 68 563 43 563 l 71 563 q 114 581 96 563 q 132 624 132 599 l 132 626 q 114 669 132 651 q 71 688 96 688 l 68 688 m 207 688 l 207 688 q 164 669 182 688 q 146 626 146 651 l 146 624 q 164 581 146 599 q 207 563 182 563 l 210 563 q 253 581 235 563 q 271 624 271 599 l 271 626 q 253 669 271 651 q 210 688 235 688 l 207 688 m 485 688 l 485 688 q 442 669 460 688 q 424 626 424 651 l 424 624 q 442 581 424 599 q 485 563 460 563 l 488 563 q 531 581 513 563 q 549 624 549 599 l 549 626 q 531 669 549 651 q 488 688 513 688 l 485 688 m 624 688 l 624 688 q 581 669 599 688 q 563 626 563 651 l 563 624 q 581 581 563 599 q 624 563 599 563 l 626 563 q 669 581 651 563 q 688 624 688 599 l 688 626 q 669 669 688 651 q 626 688 651 688 l 624 688 m 68 549 l 68 549 q 25 531 43 549 q 7 488 7 513 l 7 485 q 25 442 7 460 q 68 424 43 424 l 71 424 q 114 442 96 424 q 132 485 132 460 l 132 488 q 114 531 132 513 q 71 549 96 549 l 68 549 m 346 549 l 346 549 q 303 531 321 549 q 285 488 285 513 l 285 485 q 303 442 285 460 q 346 424 321 424 l 349 424 q 392 442 374 424 q 410 485 410 460 l 410 488 q 392 531 410 513 q 349 549 374 549 l 346 549 m 624 549 l 624 549 q 581 531 599 549 q 563 488 563 513 l 563 485 q 581 442 563 460 q 624 424 599 424 l 626 424 q 669 442 651 424 q 688 485 688 460 l 688 488 q 669 531 688 513 q 626 549 651 549 l 624 549 m 68 410 l 68 410 q 25 392 43 410 q 7 349 7 374 l 7 346 q 25 303 7 321 q 68 285 43 285 l 71 285 q 114 303 96 285 q 132 346 132 321 l 132 349 q 114 392 132 374 q 71 410 96 410 l 68 410 m 624 410 l 624 410 q 581 392 599 410 q 563 349 563 374 l 563 346 q 581 303 563 321 q 624 285 599 285 l 626 285 q 669 303 651 285 q 688 346 688 321 l 688 349 q 669 392 688 374 q 626 410 651 410 l 624 410 m 68 271 l 68 271 q 25 253 43 271 q 7 210 7 235 l 7 207 q 25 164 7 182 q 68 146 43 146 l 71 146 q 114 164 96 146 q 132 207 132 182 l 132 210 q 114 253 132 235 q 71 271 96 271 l 68 271 m 624 271 l 624 271 q 581 253 599 271 q 563 210 563 235 l 563 207 q 581 164 563 182 q 624 146 599 146 l 626 146 q 669 164 651 146 q 688 207 688 182 l 688 210 q 669 253 688 235 q 626 271 651 271 l 624 271 m 68 132 l 68 132 q 25 114 43 132 q 7 71 7 96 l 7 68 q 25 25 7 43 q 68 7 43 7 l 71 7 q 114 25 96 7 q 132 68 132 43 l 132 71 q 114 114 132 96 q 71 132 96 132 l 68 132 m 624 132 l 624 132 q 581 114 599 132 q 563 71 563 96 l 563 68 q 581 25 563 43 q 624 7 599 7 l 626 7 q 669 25 651 7 q 688 68 688 43 l 688 71 q 669 114 688 96 q 626 132 651 132 l 624 132 z "}}}
